<?xml version="1.0" encoding="iso-8859-1"?>
<!-- Uploaded to: SVG Repo, www.svgrepo.com, Generator: SVG Repo Mixer Tools -->
<svg height="800px" width="800px" version="1.1" id="Layer_1" xmlns="http://www.w3.org/2000/svg" xmlns:xlink="http://www.w3.org/1999/xlink" 
	 viewBox="0 0 480 480" xml:space="preserve">
<g transform="translate(0 -540.36)">
	<path style="fill:#181721;" d="M2.872,930.712l31.588-4.786l5.743-107.207l5.743-68.919c0,0,3.707,26.75,4.786,40.203
		c0.613,7.64,1.166,15.312,0.957,22.973C50.693,849.505,41.16,922.097,41.16,922.097s4.401,6.1,7.658,7.658
		c16.212,7.753,36.532,11.355,53.604,5.743c4.934-1.622,8.628-6.193,11.486-10.529c3.721-5.645,6.701-19.144,6.701-19.144
		s3.711,12.925,7.658,18.187c3.947,5.262,9.031,10.502,15.315,12.444c11.013,3.402,23.576,0.924,34.459-2.872
		c5.431-1.894,14.358-9.572,14.358-9.572c1.853-43.556-10.526-92.242-10.529-133.052c0.186-18.68,7.658-55.518,7.658-55.518
		l5.743,70.833l1.914,119.651l33.502,3.829l1.914-120.608c-1.653-51.476-12.98-100.552-24.887-150.282l-60.933-17.79l-6.749-10.249
		l-50.616,0.619l-7.6,11.148l-55.015,19.144c-16.16,41.459-19.264,84.52-23.93,128.266L0,854.135L2.872,930.712z"/>
	<path style="fill:#221727;" d="M89.539,640.92h51.102l-7.445,66.556l-17.598,44.785l-17.26-40.742L89.539,640.92z"/>
	<g>
		<path style="fill:#CA4638;" d="M114.865,754.586l-44.989-89.977l12.444-8.615h-9.572l17.23-24.887L114.865,754.586z"/>
		<path style="fill:#CA4638;" d="M114.865,754.586l44.989-89.977l-12.444-8.615h9.572l-17.23-24.887L114.865,754.586z"/>
		<path style="fill:#CA4638;" d="M113.891,752.344l1.913-0.074l5.735,153.464l-1.913,0.074L113.891,752.344z"/>
		<path style="fill:#CA4638;" d="M147.096,702.574l12.117-14.271l15.64,15.495L147.096,702.574z"/>
	</g>
	<path style="fill:#3B3C3D;" d="M144.271,702.197l31.587-0.147l0.019,4.051l-31.587,0.147L144.271,702.197z"/>
	<g>
		<path style="fill:#85562A;" d="M372.329,882.637l4.315-1.726l-3.452-53.512l-12.083-94.941l-11.867-75.953
			c-2.903-18.58-89.726,91.385-25.246,71.637l15.536,108.75l18.125,46.607L372.329,882.637z"/>
		<path style="fill:#85562A;" d="M177.588,881.477l-4.257-1.865l5.188-53.372l15.159-94.498l14.327-75.527
			c3.505-18.476,86.712,94.25,22.906,72.419l-19.058,108.188l-19.629,45.994L177.588,881.477z"/>
	</g>
	<path style="fill:#A16938;" d="M253.003,620.471h43.155l5.179,14.457l-49.196,2.589L253.003,620.471z"/>
	<path style="fill:#9D6533;" d="M169.283,915.435c0,0,37.377-86.578,56.964-129.464c2.513-5.502,7.333-10.366,7.768-16.399
		c0.563-7.806-4.232-15.085-6.905-22.44c-4.051-11.149-11.126-21.243-13.809-32.798c-4.499-19.369-3.452-59.554-3.452-59.554
		l25.893-12.083l21.577-10.357l35.387,1.726l25.893,8.631l29.345,11.22c0,0-9.611,33.844-13.81,50.923
		c-5.416,22.03-16.857,43.878-14.673,66.458c0.695,7.182,5.615,13.296,8.631,19.851c18.985,41.263,59.554,122.56,59.554,122.56
		l-31.071,17.262l-38.839,0.863l1.726,8.631l-97.53-2.589l3.452-10.357l-31.071-2.589L169.283,915.435z"/>
	<path style="fill:#8E5B2E;" d="M314.917,925.91l25.633-4.883L301.49,806.291L314.917,925.91z"/>
	<path style="fill:#754824;" d="M258.397,634.281h33.877v1.942h-33.877V634.281z"/>
	<g shape-rendering="auto" image-rendering="auto" color-rendering="auto" color-interpolation="sRGB">
		<path style="fill:#7B4E22;" d="M264.439,653.297c-3.649,0-6.662,3.013-6.662,6.662s3.013,6.66,6.662,6.66
			c3.649,0,6.66-3.012,6.66-6.66S268.088,653.297,264.439,653.297z"/>
		<path style="fill:#654B32;" d="M264.439,658.42c0.88,0,1.537,0.659,1.537,1.539s-0.657,1.537-1.537,1.537
			c-0.88,0-1.539-0.657-1.539-1.537S263.56,658.42,264.439,658.42z"/>
	</g>
	<path style="fill:#7F522B;" d="M234.015,643.559l18.988-23.304l15.536,30.208c0,0-6.355,14.15-12.946,16.399
		c-2.245,0.766-4.746-0.742-6.905-1.726c-3.195-1.457-6.463-3.279-8.631-6.042C236.626,654.724,234.015,643.559,234.015,643.559
		L234.015,643.559z"/>
	<g shape-rendering="auto" image-rendering="auto" color-rendering="auto" color-interpolation="sRGB">
		<path style="fill:#7B4E22;" d="M284.748,653.297c-3.649,0-6.66,3.013-6.66,6.662s3.012,6.66,6.66,6.66s6.662-3.012,6.662-6.66
			S288.397,653.297,284.748,653.297z"/>
		<path style="fill:#654B32;" d="M284.748,658.42c0.88,0,1.539,0.659,1.539,1.539s-0.659,1.537-1.539,1.537
			c-0.88,0-1.537-0.657-1.537-1.537S283.868,658.42,284.748,658.42z"/>
	</g>
	<path style="fill:#7F522B;" d="M315.146,643.559l-18.988-23.304l-15.536,30.208c0,0,6.355,14.15,12.946,16.399
		c2.245,0.766,4.746-0.742,6.905-1.726c3.195-1.457,6.463-3.279,8.631-6.042C312.535,654.724,315.146,643.559,315.146,643.559z"/>
	<g shape-rendering="auto" image-rendering="auto" color-rendering="auto" color-interpolation="sRGB">
		<path style="fill:#1C0E09;" d="M270.863,646.471c-2.747,0-5.039,2.292-5.039,5.039v12.58c0,2.747,2.292,5.039,5.039,5.039h7.65
			c2.747,0,5.039-2.292,5.039-5.039v-12.58c0-2.747-2.292-5.039-5.039-5.039H270.863z M270.947,651.596h7.482v12.41h-7.482V651.596z
			"/>
		<path style="fill:#85562A;" d="M253.096,664.921v1l-0.25,272.775l3.295,0.088l0.25-273.863H253.096z M293.377,664.921v1
			l-0.06,273.85l3.295,0.088l0.06-274.938H293.377z"/>
	</g>
	<path style="fill:#7B4E22;" d="M232.464,761.739c0,0,14.424,3.769,21.807,4.577c9.128,0.999,27.546,0.305,27.546,0.305
		l26.685-1.831l10.904-0.305l4.304,18.919l-19.798,1.831l-21.52,0.61c0,0-19.385,0.247-28.98-0.916
		c-8.737-1.058-25.824-5.493-25.824-5.493L232.464,761.739z"/>
	<path shape-rendering="auto" image-rendering="auto" color-rendering="auto" color-interpolation="sRGB" style="fill:#1C0E09;" d="
		M273.055,764.715c-2.882,0-5.283,2.401-5.283,5.283v13.818c0,2.882,2.401,5.283,5.283,5.283h8.447c2.882,0,5.281-2.401,5.281-5.283
		v-13.818c0-2.882-2.399-5.283-5.281-5.283H273.055z M273.055,769.84h8.447c0.133,0,0.158,0.026,0.158,0.158v13.818
		c0,0.133-0.026,0.16-0.158,0.16h-8.447c-0.132,0-0.16-0.028-0.16-0.16v-13.818C272.895,769.865,272.922,769.84,273.055,769.84z"/>
	<path style="fill:#8E5B2E;" d="M225.983,925.91l-25.633-4.883l39.059-114.737L225.983,925.91z"/>
	<g>
		<path style="fill:#633E1C;" d="M252.024,775.65c-0.095,1.565-1.441,2.757-3.007,2.662s-2.757-1.441-2.662-3.007l0,0
			c0.095-1.565,1.441-2.757,3.007-2.662h0C250.927,772.738,252.119,774.085,252.024,775.65L252.024,775.65L252.024,775.65z"/>
		<path style="fill:#633E1C;" d="M264.718,776.422c-0.095,1.565-1.441,2.757-3.007,2.662s-2.757-1.441-2.662-3.007l0,0
			c0.095-1.565,1.441-2.757,3.007-2.662h0C263.621,773.51,264.813,774.856,264.718,776.422L264.718,776.422L264.718,776.422z"/>
		<path style="fill:#633E1C;" d="M293.454,775.673c0.107,1.565-1.074,2.92-2.639,3.028c0,0,0,0,0,0
			c-1.565,0.107-2.92-1.074-3.028-2.639l0,0c-0.107-1.565,1.074-2.92,2.639-3.028c0,0,0,0,0,0
			C291.991,772.927,293.347,774.108,293.454,775.673L293.454,775.673z"/>
		<path style="fill:#633E1C;" d="M306.142,774.802c0.107,1.565-1.074,2.92-2.639,3.028c0,0,0,0,0,0
			c-1.565,0.107-2.92-1.074-3.028-2.639l0,0c-0.107-1.565,1.074-2.92,2.639-3.028c0,0,0,0,0,0
			C304.679,772.056,306.035,773.237,306.142,774.802L306.142,774.802z"/>
	</g>
	<path id="SVGCleanerId_0" style="fill:#9D6533;" d="M213.607,649.913l16.823-5.094c0.431-0.131,0.884,0.111,1.015,0.542
		c0.131,0.431-0.111,0.883-0.542,1.014l-16.823,5.094c-0.431,0.131-0.884-0.111-1.015-0.542
		C212.934,650.496,213.176,650.044,213.607,649.913z"/>
	<path id="SVGCleanerId_1" style="fill:#9D6533;" d="M215.899,650.248h1.061c0.842,0,1.519,0.678,1.519,1.519v0.791
		c0,0.842-0.678,1.519-1.519,1.519h-1.061c-0.842,0-1.519-0.678-1.519-1.519v-0.791C214.38,650.926,215.057,650.248,215.899,650.248
		L215.899,650.248z"/>
	<g>
		<path id="SVGCleanerId_0_1_" style="fill:#9D6533;" d="M213.607,649.913l16.823-5.094c0.431-0.131,0.884,0.111,1.015,0.542
			c0.131,0.431-0.111,0.883-0.542,1.014l-16.823,5.094c-0.431,0.131-0.884-0.111-1.015-0.542
			C212.934,650.496,213.176,650.044,213.607,649.913z"/>
	</g>
	<g>
		<path id="SVGCleanerId_1_1_" style="fill:#9D6533;" d="M215.899,650.248h1.061c0.842,0,1.519,0.678,1.519,1.519v0.791
			c0,0.842-0.678,1.519-1.519,1.519h-1.061c-0.842,0-1.519-0.678-1.519-1.519v-0.791
			C214.38,650.926,215.057,650.248,215.899,650.248L215.899,650.248z"/>
	</g>
	<g>
		<path style="fill:#9D6533;" d="M340.948,648.349l-16.823-5.094c-0.431-0.131-0.884,0.111-1.015,0.542
			c-0.131,0.431,0.111,0.883,0.542,1.014l16.823,5.094c0.431,0.131,0.884-0.111,1.015-0.542
			C341.621,648.931,341.38,648.479,340.948,648.349z"/>
		<path style="fill:#9D6533;" d="M338.657,648.684h-1.061c-0.842,0-1.519,0.678-1.519,1.519v0.791c0,0.842,0.678,1.519,1.519,1.519
			h1.061c0.842,0,1.519-0.678,1.519-1.519v-0.791C340.176,649.361,339.498,648.684,338.657,648.684z"/>
	</g>
	<path style="fill:#784E26;" d="M345.624,832.24l-13.298-120.201l-7.4,22.612l12.066,77.165L345.624,832.24z"/>
	<path style="fill:#9CCC65;" d="M329.582,746.131h142.539c4.365,0,7.878,3.514,7.878,7.878v178.577c0,4.365-3.514,7.878-7.878,7.878
		H329.582c-4.365,0-7.878-3.514-7.878-7.878V754.009C321.704,749.645,325.218,746.131,329.582,746.131z"/>
	<path style="fill:#89B358;" d="M399.121,767.909v172.555h3.463V767.909H399.121z"/>
	<g>
		<path style="fill:#75994C;" d="M321.703,758.708v13.125H480v-13.125H321.703z"/>
		<path style="fill:#75994C;" d="M321.703,784.958v13.125H480v-13.125H321.703z"/>
		<path style="fill:#75994C;" d="M321.703,811.208v13.125H480v-13.125H321.703z"/>
		<path style="fill:#75994C;" d="M321.703,837.458v13.125H480v-13.125H321.703z"/>
		<path style="fill:#75994C;" d="M321.703,863.708v13.125H480v-13.125H321.703z"/>
		<path style="fill:#75994C;" d="M321.703,889.958v13.125H480v-13.125H321.703z"/>
		<path style="fill:#75994C;" d="M321.703,916.208v13.125H480v-13.125H321.703z"/>
		<path style="fill:#75994C;" d="M329.582,746.132c-0.436,0-0.859,0.042-1.275,0.109v194.113c0.416,0.067,0.84,0.109,1.275,0.109
			h11.85V746.132H329.582z"/>
		<path style="fill:#75994C;" d="M354.557,746.132v194.332h13.125V746.132H354.557z"/>
		<path style="fill:#75994C;" d="M380.807,746.132v194.332h13.125V746.132H380.807z"/>
		<path style="fill:#75994C;" d="M407.057,746.132v194.332h13.125V746.132H407.057z"/>
		<path style="fill:#75994C;" d="M433.307,746.132v194.332h13.125V746.132H433.307z"/>
		<path style="fill:#75994C;" d="M459.557,746.132v194.332h12.564c0.189,0,0.375-0.014,0.561-0.027V746.159
			c-0.186-0.013-0.371-0.027-0.561-0.027H459.557z"/>
	</g>
	<path style="fill:#587339;" d="M358.729,728.629h84.047l-41.701,40.54L358.729,728.629z"/>
	<path style="fill:#DADFE1;" d="M404.299,822.09c0,1.904-1.543,3.447-3.447,3.447s-3.447-1.543-3.447-3.447s1.543-3.447,3.447-3.447
		S404.299,820.186,404.299,822.09z"/>
	<g shape-rendering="auto" image-rendering="auto" color-rendering="auto" color-interpolation="sRGB">
		<path style="fill:#ABB7B7;" d="M400.852,819.801c-1.261,0-2.289,1.028-2.289,2.289s1.028,2.289,2.289,2.289
			c1.261,0,2.289-1.028,2.289-2.289S402.112,819.801,400.852,819.801z M400.852,820.328c0.977,0,1.764,0.785,1.764,1.762
			s-0.787,1.764-1.764,1.764c-0.977,0-1.762-0.787-1.762-1.764S399.875,820.328,400.852,820.328z"/>
		<g>
			<path style="fill:#75994C;" d="M400.115,821.197c-0.096,0.009-0.167,0.094-0.158,0.191c0.005,0.054,0.035,0.102,0.08,0.132
				c0,0,0.539,0.365,0.727,0.557c0.218,0.223,0.617,0.844,0.617,0.844c0.052,0.082,0.161,0.106,0.242,0.053
				c0.081-0.052,0.105-0.159,0.054-0.241c0,0-0.376-0.607-0.662-0.9c-0.257-0.263-0.785-0.605-0.785-0.605
				C400.197,821.204,400.156,821.193,400.115,821.197L400.115,821.197z"/>
			<path style="fill:#75994C;" d="M401.582,821.273c-0.034,0.002-0.066,0.013-0.094,0.033c0,0-0.468,0.314-0.701,0.541
				c-0.285,0.278-0.697,0.857-0.697,0.857c-0.062,0.074-0.052,0.185,0.022,0.247c0.074,0.062,0.185,0.052,0.247-0.022
				c0.005-0.006,0.01-0.013,0.015-0.02c0,0,0.43-0.589,0.658-0.811c0.176-0.171,0.656-0.504,0.656-0.504
				c0.081-0.052,0.105-0.161,0.052-0.242C401.706,821.3,401.645,821.27,401.582,821.273L401.582,821.273z"/>
		</g>
	</g>
	<path style="fill:#DADFE1;" d="M404.299,795.793c0,1.904-1.543,3.447-3.447,3.447s-3.447-1.543-3.447-3.447
		s1.543-3.447,3.447-3.447S404.299,793.89,404.299,795.793z"/>
	<g shape-rendering="auto" image-rendering="auto" color-rendering="auto" color-interpolation="sRGB">
		<path style="fill:#ABB7B7;" d="M400.852,793.504c-1.261,0-2.289,1.028-2.289,2.289s1.028,2.289,2.289,2.289
			c1.261,0,2.289-1.028,2.289-2.289S402.112,793.504,400.852,793.504z M400.852,794.031c0.977,0,1.764,0.785,1.764,1.762
			s-0.787,1.764-1.764,1.764c-0.977,0-1.762-0.787-1.762-1.764S399.875,794.031,400.852,794.031z"/>
		<g>
			<path style="fill:#75994C;" d="M400.115,794.9c-0.096,0.009-0.167,0.094-0.158,0.191c0.005,0.054,0.035,0.102,0.08,0.132
				c0,0,0.539,0.365,0.727,0.557c0.218,0.223,0.617,0.844,0.617,0.844c0.052,0.082,0.161,0.106,0.242,0.053
				c0.081-0.052,0.105-0.159,0.054-0.241c0,0-0.376-0.607-0.662-0.9c-0.257-0.263-0.785-0.605-0.785-0.605
				C400.197,794.907,400.156,794.896,400.115,794.9L400.115,794.9z"/>
			<path style="fill:#75994C;" d="M401.582,794.976c-0.034,0.002-0.066,0.013-0.094,0.033c0,0-0.468,0.314-0.701,0.541
				c-0.285,0.278-0.697,0.857-0.697,0.857c-0.062,0.074-0.052,0.185,0.022,0.247c0.074,0.062,0.185,0.052,0.247-0.022
				c0.005-0.006,0.01-0.013,0.015-0.02c0,0,0.43-0.589,0.658-0.811c0.176-0.171,0.656-0.504,0.656-0.504
				c0.081-0.052,0.105-0.161,0.052-0.242C401.706,795.003,401.645,794.973,401.582,794.976L401.582,794.976z"/>
		</g>
	</g>
	<path style="fill:#DADFE1;" d="M404.299,900.98c0,1.904-1.543,3.447-3.447,3.447s-3.447-1.543-3.447-3.447s1.543-3.447,3.447-3.447
		S404.299,899.077,404.299,900.98z"/>
	<g shape-rendering="auto" image-rendering="auto" color-rendering="auto" color-interpolation="sRGB">
		<path style="fill:#ABB7B7;" d="M400.852,898.691c-1.261,0-2.289,1.028-2.289,2.289s1.028,2.289,2.289,2.289
			c1.261,0,2.289-1.028,2.289-2.289S402.112,898.691,400.852,898.691z M400.852,899.217c0.977,0,1.764,0.787,1.764,1.764
			s-0.787,1.764-1.764,1.764c-0.977,0-1.762-0.787-1.762-1.764S399.875,899.217,400.852,899.217z"/>
		<g>
			<path style="fill:#75994C;" d="M400.133,900.086c-0.097-0.002-0.177,0.075-0.179,0.172c-0.001,0.062,0.03,0.12,0.083,0.152
				c0,0,0.539,0.365,0.727,0.557c0.218,0.223,0.617,0.844,0.617,0.844c0.052,0.082,0.161,0.106,0.242,0.053
				c0.081-0.052,0.105-0.159,0.054-0.241c0,0-0.376-0.607-0.662-0.9c-0.257-0.263-0.785-0.605-0.785-0.605
				C400.202,900.097,400.168,900.086,400.133,900.086L400.133,900.086z"/>
			<path style="fill:#75994C;" d="M401.582,900.164c-0.034,0.001-0.066,0.012-0.094,0.031c0,0-0.468,0.315-0.701,0.543
				c-0.285,0.278-0.697,0.857-0.697,0.857c-0.062,0.074-0.052,0.185,0.022,0.247c0.074,0.062,0.185,0.052,0.247-0.022
				c0.005-0.006,0.01-0.013,0.015-0.02c0,0,0.43-0.589,0.658-0.811c0.176-0.171,0.656-0.504,0.656-0.504
				c0.081-0.052,0.105-0.161,0.052-0.242C401.706,900.191,401.645,900.16,401.582,900.164L401.582,900.164z"/>
		</g>
	</g>
	<path style="fill:#DADFE1;" d="M404.299,874.684c0,1.904-1.543,3.447-3.447,3.447s-3.447-1.543-3.447-3.447
		s1.543-3.447,3.447-3.447S404.299,872.78,404.299,874.684z"/>
	<g shape-rendering="auto" image-rendering="auto" color-rendering="auto" color-interpolation="sRGB">
		<path style="fill:#ABB7B7;" d="M400.852,872.394c-1.261,0-2.289,1.028-2.289,2.289s1.028,2.289,2.289,2.289
			c1.261,0,2.289-1.028,2.289-2.289S402.112,872.394,400.852,872.394z M400.852,872.92c0.977,0,1.764,0.787,1.764,1.764
			s-0.787,1.764-1.764,1.764c-0.977,0-1.762-0.787-1.762-1.764S399.875,872.92,400.852,872.92z"/>
		<g>
			<path style="fill:#75994C;" d="M400.133,873.789c-0.097-0.002-0.177,0.075-0.179,0.172c-0.001,0.062,0.03,0.12,0.083,0.152
				c0,0,0.539,0.365,0.727,0.557c0.218,0.223,0.617,0.844,0.617,0.844c0.052,0.082,0.161,0.106,0.242,0.053
				c0.081-0.052,0.105-0.159,0.054-0.241c0,0-0.376-0.607-0.662-0.9c-0.257-0.263-0.785-0.605-0.785-0.605
				C400.202,873.8,400.168,873.789,400.133,873.789L400.133,873.789z"/>
			<path style="fill:#75994C;" d="M401.582,873.867c-0.034,0.001-0.066,0.012-0.094,0.031c0,0-0.468,0.315-0.701,0.543
				c-0.285,0.278-0.697,0.857-0.697,0.857c-0.062,0.074-0.052,0.185,0.022,0.247c0.074,0.062,0.185,0.052,0.247-0.022
				c0.005-0.006,0.01-0.013,0.015-0.02c0,0,0.43-0.589,0.658-0.811c0.176-0.171,0.656-0.504,0.656-0.504
				c0.081-0.052,0.105-0.161,0.052-0.242C401.706,873.894,401.645,873.863,401.582,873.867L401.582,873.867z"/>
		</g>
	</g>
	<path style="fill:#DADFE1;" d="M404.299,848.387c0,1.904-1.543,3.447-3.447,3.447s-3.447-1.543-3.447-3.447
		s1.543-3.447,3.447-3.447S404.299,846.483,404.299,848.387z"/>
	<g shape-rendering="auto" image-rendering="auto" color-rendering="auto" color-interpolation="sRGB">
		<path style="fill:#ABB7B7;" d="M400.852,846.098c-1.261,0-2.289,1.028-2.289,2.289s1.028,2.289,2.289,2.289
			c1.261,0,2.289-1.028,2.289-2.289S402.112,846.098,400.852,846.098z M400.852,846.625c0.977,0,1.764,0.785,1.764,1.762
			s-0.787,1.764-1.764,1.764c-0.977,0-1.762-0.787-1.762-1.764S399.875,846.625,400.852,846.625z"/>
		<g>
			<path style="fill:#75994C;" d="M400.133,847.492c-0.097-0.002-0.177,0.075-0.179,0.172c-0.001,0.062,0.03,0.12,0.083,0.152
				c0,0,0.539,0.365,0.727,0.557c0.218,0.223,0.617,0.844,0.617,0.844c0.052,0.082,0.161,0.106,0.242,0.053
				c0.081-0.052,0.105-0.159,0.054-0.241c0,0-0.376-0.607-0.662-0.9c-0.257-0.263-0.785-0.605-0.785-0.605
				C400.202,847.503,400.168,847.493,400.133,847.492L400.133,847.492z"/>
			<path style="fill:#75994C;" d="M401.582,847.57c-0.034,0.002-0.066,0.013-0.094,0.033c0,0-0.468,0.314-0.701,0.541
				c-0.285,0.278-0.697,0.857-0.697,0.857c-0.062,0.074-0.052,0.185,0.022,0.247c0.074,0.062,0.185,0.052,0.247-0.022
				c0.005-0.006,0.01-0.013,0.015-0.02c0,0,0.43-0.589,0.658-0.811c0.176-0.171,0.656-0.504,0.656-0.504
				c0.081-0.052,0.105-0.161,0.052-0.242C401.706,847.597,401.645,847.566,401.582,847.57L401.582,847.57z"/>
		</g>
	</g>
	<path style="fill:#DADFE1;" d="M404.299,927.277c0,1.904-1.543,3.447-3.447,3.447s-3.447-1.543-3.447-3.447
		s1.543-3.447,3.447-3.447S404.299,925.374,404.299,927.277z"/>
	<g shape-rendering="auto" image-rendering="auto" color-rendering="auto" color-interpolation="sRGB">
		<path style="fill:#ABB7B7;" d="M400.852,924.988c-1.261,0-2.289,1.028-2.289,2.289s1.028,2.289,2.289,2.289
			c1.261,0,2.289-1.028,2.289-2.289S402.112,924.988,400.852,924.988z M400.852,925.514c0.977,0,1.764,0.787,1.764,1.764
			s-0.787,1.764-1.764,1.764c-0.977,0-1.762-0.787-1.762-1.764S399.875,925.514,400.852,925.514z"/>
		<g>
			<path style="fill:#75994C;" d="M400.133,926.383c-0.097-0.002-0.177,0.075-0.179,0.172c-0.001,0.062,0.03,0.12,0.083,0.152
				c0,0,0.539,0.365,0.727,0.557c0.218,0.223,0.617,0.844,0.617,0.844c0.052,0.082,0.161,0.106,0.242,0.053
				c0.081-0.052,0.105-0.159,0.054-0.241c0,0-0.376-0.607-0.662-0.9c-0.257-0.263-0.785-0.605-0.785-0.605
				C400.202,926.394,400.168,926.383,400.133,926.383L400.133,926.383z"/>
			<path style="fill:#75994C;" d="M401.582,926.461c-0.034,0.001-0.066,0.012-0.094,0.031c0,0-0.468,0.315-0.701,0.543
				c-0.285,0.278-0.697,0.857-0.697,0.857c-0.062,0.074-0.052,0.185,0.022,0.247c0.074,0.062,0.185,0.052,0.247-0.022
				c0.005-0.006,0.01-0.013,0.015-0.02c0,0,0.43-0.589,0.658-0.811c0.176-0.171,0.656-0.506,0.656-0.506
				c0.08-0.054,0.101-0.163,0.047-0.243C401.701,926.487,401.643,926.458,401.582,926.461L401.582,926.461z"/>
		</g>
	</g>
	<path style="fill:#7B4E22;" d="M269.603,737.065c0,2.386-1.934,4.32-4.32,4.32s-4.32-1.934-4.32-4.32s1.934-4.32,4.32-4.32
		S269.603,734.68,269.603,737.065z"/>
	<path style="fill:#543518;" d="M267.916,737.065c0,1.454-1.179,2.633-2.633,2.633h0c-1.454,0-2.633-1.179-2.633-2.633l0,0
		c0-1.454,1.179-2.633,2.633-2.633S267.916,735.611,267.916,737.065z"/>
	<path style="fill:#7B4E22;" d="M288.879,737.065c0,2.386-1.934,4.32-4.32,4.32s-4.32-1.934-4.32-4.32s1.934-4.32,4.32-4.32
		S288.879,734.68,288.879,737.065z"/>
	<path style="fill:#543518;" d="M287.192,737.065c0,1.454-1.179,2.633-2.633,2.633h0c-1.454,0-2.633-1.179-2.633-2.633l0,0
		c0-1.454,1.179-2.633,2.633-2.633S287.192,735.611,287.192,737.065z"/>
	<path style="fill:#7B4E22;" d="M269.603,701.387c0,2.386-1.934,4.32-4.32,4.32s-4.32-1.934-4.32-4.32s1.934-4.32,4.32-4.32
		S269.603,699.001,269.603,701.387z"/>
	<path style="fill:#543518;" d="M267.916,701.387c0,1.454-1.179,2.633-2.633,2.633h0c-1.454,0-2.633-1.179-2.633-2.633l0,0
		c0-1.454,1.179-2.633,2.633-2.633S267.916,699.933,267.916,701.387z"/>
	<path style="fill:#7B4E22;" d="M288.879,701.387c0,2.386-1.934,4.32-4.32,4.32s-4.32-1.934-4.32-4.32s1.934-4.32,4.32-4.32
		S288.879,699.001,288.879,701.387z"/>
	<path style="fill:#543518;" d="M287.192,701.387c0,1.454-1.179,2.633-2.633,2.633l0,0c-1.454,0-2.633-1.179-2.633-2.633l0,0
		c0-1.454,1.179-2.633,2.633-2.633S287.192,699.933,287.192,701.387z"/>
	<path style="fill:#7B4E22;" d="M269.603,795.983c0,2.386-1.934,4.32-4.32,4.32s-4.32-1.934-4.32-4.32s1.934-4.32,4.32-4.32
		S269.603,793.598,269.603,795.983z"/>
	<path style="fill:#543518;" d="M267.916,795.983c0,1.454-1.179,2.633-2.633,2.633h0c-1.454,0-2.633-1.179-2.633-2.633l0,0
		c0-1.454,1.179-2.633,2.633-2.633S267.916,794.529,267.916,795.983z"/>
	<path style="fill:#7B4E22;" d="M288.879,795.983c0,2.386-1.934,4.32-4.32,4.32s-4.32-1.934-4.32-4.32s1.934-4.32,4.32-4.32
		S288.879,793.598,288.879,795.983z"/>
	<path style="fill:#543518;" d="M287.192,795.983c0,1.454-1.179,2.633-2.633,2.633h0c-1.454,0-2.633-1.179-2.633-2.633l0,0
		c0-1.454,1.179-2.633,2.633-2.633S287.192,794.529,287.192,795.983z"/>
	<path style="fill:#784E26;" d="M207.259,826.063l12.083-94.941l8.631,17.262l-12.083,61.28L207.259,826.063z"/>
	<g>
		<path style="fill:#587339;" d="M328.307,916.208v13.125h13.125v-13.125H328.307z"/>
		<path style="fill:#587339;" d="M354.557,916.208v13.125h13.125v-13.125H354.557z"/>
		<path style="fill:#587339;" d="M380.807,916.208v13.125h13.125v-13.125H380.807z"/>
		<path style="fill:#587339;" d="M407.057,916.208v13.125h13.125v-13.125H407.057z"/>
		<path style="fill:#587339;" d="M433.307,916.208v13.125h13.125v-13.125H433.307z"/>
		<path style="fill:#587339;" d="M459.557,916.208v13.125h13.125v-13.125H459.557z"/>
		<path style="fill:#587339;" d="M328.307,889.958v13.125h13.125v-13.125H328.307z"/>
		<path style="fill:#587339;" d="M354.557,889.958v13.125h13.125v-13.125H354.557z"/>
		<path style="fill:#587339;" d="M380.807,889.958v13.125h13.125v-13.125H380.807z"/>
		<path style="fill:#587339;" d="M407.057,889.958v13.125h13.125v-13.125H407.057z"/>
		<path style="fill:#587339;" d="M433.307,889.958v13.125h13.125v-13.125H433.307z"/>
		<path style="fill:#587339;" d="M459.557,889.958v13.125h13.125v-13.125H459.557z"/>
		<path style="fill:#587339;" d="M328.307,863.708v13.125h13.125v-13.125H328.307z"/>
		<path style="fill:#587339;" d="M354.557,863.708v13.125h13.125v-13.125H354.557z"/>
		<path style="fill:#587339;" d="M380.807,863.708v13.125h13.125v-13.125H380.807z"/>
		<path style="fill:#587339;" d="M407.057,863.708v13.125h13.125v-13.125H407.057z"/>
		<path style="fill:#587339;" d="M433.307,863.708v13.125h13.125v-13.125H433.307z"/>
		<path style="fill:#587339;" d="M459.557,863.708v13.125h13.125v-13.125H459.557z"/>
		<path style="fill:#587339;" d="M328.307,837.458v13.125h13.125v-13.125H328.307z"/>
		<path style="fill:#587339;" d="M354.557,837.458v13.125h13.125v-13.125H354.557z"/>
		<path style="fill:#587339;" d="M380.807,837.458v13.125h13.125v-13.125H380.807z"/>
		<path style="fill:#587339;" d="M407.057,837.458v13.125h13.125v-13.125H407.057z"/>
		<path style="fill:#587339;" d="M433.307,837.458v13.125h13.125v-13.125H433.307z"/>
		<path style="fill:#587339;" d="M459.557,837.458v13.125h13.125v-13.125H459.557z"/>
		<path style="fill:#587339;" d="M328.307,811.208v13.125h13.125v-13.125H328.307z"/>
		<path style="fill:#587339;" d="M354.557,811.208v13.125h13.125v-13.125H354.557z"/>
		<path style="fill:#587339;" d="M380.807,811.208v13.125h13.125v-13.125H380.807z"/>
		<path style="fill:#587339;" d="M407.057,811.208v13.125h13.125v-13.125H407.057z"/>
		<path style="fill:#587339;" d="M433.307,811.208v13.125h13.125v-13.125H433.307z"/>
		<path style="fill:#587339;" d="M459.557,811.208v13.125h13.125v-13.125H459.557z"/>
		<path style="fill:#587339;" d="M328.307,784.958v13.125h13.125v-13.125H328.307z"/>
		<path style="fill:#587339;" d="M354.557,784.958v13.125h13.125v-13.125H354.557z"/>
		<path style="fill:#587339;" d="M380.807,784.958v13.125h13.125v-13.125H380.807z"/>
		<path style="fill:#587339;" d="M407.057,784.958v13.125h13.125v-13.125H407.057z"/>
		<path style="fill:#587339;" d="M433.307,784.958v13.125h13.125v-13.125H433.307z"/>
		<path style="fill:#587339;" d="M459.557,784.958v13.125h13.125v-13.125H459.557z"/>
		<path style="fill:#587339;" d="M328.307,758.708v13.125h13.125v-13.125H328.307z"/>
		<path style="fill:#587339;" d="M354.557,758.708v13.125h13.125v-13.125H354.557z"/>
		<path style="fill:#587339;" d="M380.807,758.708v13.125h13.125v-13.125H380.807z"/>
		<path style="fill:#587339;" d="M407.057,758.708v13.125h13.125v-13.125H407.057z"/>
		<path style="fill:#587339;" d="M433.307,758.708v13.125h13.125v-13.125H433.307z"/>
		<path style="fill:#587339;" d="M459.557,758.708v13.125h13.125v-13.125H459.557z"/>
	</g>
	<g>
		<path style="fill:#9CCC65;" d="M458.091,746.25l-15.317-17.621l-28.86,27.715l18.697,21.584L458.091,746.25z"/>
		<path style="fill:#9CCC65;" d="M343.614,746.25l15.316-17.621l28.86,27.715l-18.697,21.584L343.614,746.25z"/>
	</g>
	<g>
		<path style="fill:#75994C;" d="M369.489,746.125h69.158v34.883h-69.158V746.125z"/>
	</g>
	<path style="fill:#DADFE1;" d="M404.299,769.497c0,1.904-1.543,3.447-3.447,3.447s-3.447-1.543-3.447-3.447
		s1.543-3.447,3.447-3.447S404.299,767.593,404.299,769.497z"/>
	<g shape-rendering="auto" image-rendering="auto" color-rendering="auto" color-interpolation="sRGB">
		<path style="fill:#ABB7B7;" d="M400.852,767.209c-1.261,0-2.289,1.026-2.289,2.287s1.028,2.289,2.289,2.289
			c1.261,0,2.289-1.028,2.289-2.289S402.112,767.209,400.852,767.209z M400.852,767.734c0.977,0,1.764,0.785,1.764,1.762
			s-0.787,1.764-1.764,1.764c-0.977,0-1.762-0.787-1.762-1.764S399.875,767.734,400.852,767.734z"/>
		<g>
			<path style="fill:#75994C;" d="M400.115,768.603c-0.096,0.009-0.167,0.094-0.158,0.191c0.005,0.054,0.035,0.102,0.08,0.132
				c0,0,0.539,0.367,0.727,0.559c0.218,0.223,0.617,0.842,0.617,0.842c0.047,0.085,0.154,0.115,0.238,0.068
				c0.085-0.047,0.115-0.154,0.068-0.238c-0.003-0.005-0.006-0.01-0.009-0.015c0,0-0.376-0.609-0.662-0.902
				c-0.257-0.263-0.785-0.605-0.785-0.605C400.197,768.61,400.156,768.599,400.115,768.603L400.115,768.603z"/>
			<path style="fill:#75994C;" d="M401.582,768.68c-0.034,0.002-0.066,0.013-0.094,0.033c0,0-0.468,0.314-0.701,0.541
				c-0.285,0.278-0.697,0.857-0.697,0.857c-0.062,0.074-0.052,0.185,0.022,0.247c0.074,0.062,0.185,0.052,0.247-0.022
				c0.005-0.006,0.01-0.013,0.015-0.02c0,0,0.43-0.589,0.658-0.811c0.176-0.171,0.656-0.504,0.656-0.504
				c0.081-0.052,0.105-0.161,0.052-0.242C401.706,768.706,401.645,768.676,401.582,768.68L401.582,768.68z"/>
		</g>
	</g>
</g>
</svg>