<?xml version="1.0" encoding="iso-8859-1"?>
<!-- Uploaded to: SVG Repo, www.svgrepo.com, Generator: SVG Repo Mixer Tools -->
<svg height="800px" width="800px" version="1.1" id="Layer_1" xmlns="http://www.w3.org/2000/svg" xmlns:xlink="http://www.w3.org/1999/xlink" 
	 viewBox="0 0 512 512" xml:space="preserve">
<g>
	<path style="fill:#CCC3A8;" d="M350.751,142.495c-1.212,0-2.442-0.265-3.607-0.825L163.931,53.683
		c-4.156-1.996-5.908-6.982-3.911-11.139c1.996-4.155,6.983-5.907,11.138-3.911l183.212,87.987
		c4.156,1.996,5.908,6.983,3.912,11.139C356.846,140.749,353.861,142.495,350.751,142.495z"/>
	<path style="fill:#CCC3A8;" d="M167.551,142.495c-3.11,0-6.095-1.745-7.531-4.736c-1.997-4.156-0.245-9.144,3.911-11.139
		l183.212-87.987c4.154-1.996,9.144-0.245,11.139,3.911c1.996,4.156,0.245,9.144-3.912,11.139L171.158,141.67
		C169.993,142.229,168.763,142.495,167.551,142.495z"/>
	<path style="fill:#CCC3A8;" d="M359.93,257.789c-1.07,0-2.155-0.207-3.203-0.642l-201.885-83.966
		c-4.257-1.771-6.273-6.656-4.502-10.913c1.77-4.257,6.657-6.274,10.913-4.502l201.886,83.966c4.256,1.771,6.272,6.656,4.502,10.913
		C366.307,255.852,363.202,257.789,359.93,257.789z"/>
	<path style="fill:#CCC3A8;" d="M158.051,257.789c-3.271,0-6.377-1.934-7.711-5.144c-1.771-4.256,0.245-9.143,4.502-10.913
		l201.885-83.966c4.256-1.772,9.144,0.244,10.915,4.502c1.77,4.256-0.246,9.143-4.502,10.913l-201.886,83.966
		C160.206,257.582,159.121,257.789,158.051,257.789z"/>
	<path style="fill:#CCC3A8;" d="M369.883,382.83c-1.035,0-2.087-0.194-3.106-0.602l-221.401-88.839
		c-4.279-1.717-6.355-6.578-4.638-10.857c1.716-4.28,6.577-6.357,10.856-4.639l221.401,88.839c4.28,1.717,6.357,6.578,4.639,10.857
		C376.326,380.848,373.192,382.83,369.883,382.83z"/>
	<path style="fill:#CCC3A8;" d="M148.487,382.83c-3.31,0-6.442-1.981-7.75-5.241c-1.717-4.279,0.36-9.139,4.638-10.857
		l221.401-88.839c4.279-1.716,9.139,0.36,10.857,4.639c1.717,4.279-0.36,9.139-4.639,10.857l-221.401,88.839
		C150.574,382.637,149.522,382.83,148.487,382.83z"/>
</g>
<g>
	<path style="fill:#C9B585;" d="M164.433,359.086l-19.059,7.647c-1.824,0.732-3.243,2.038-4.144,3.625l-0.549,7.076
		c0.019,0.052,0.033,0.105,0.053,0.157c1.308,3.26,4.44,5.241,7.75,5.241c1.035,0,2.087-0.194,3.107-0.602l11.4-4.575
		L164.433,359.086z"/>
	<path style="fill:#C9B585;" d="M168.802,302.788l1.353-17.448l-18.562-7.447c-1.031-0.414-2.095-0.602-3.141-0.598l-1.303,16.805
		L168.802,302.788z"/>
	<path style="fill:#C9B585;" d="M154.843,241.731c-1.68,0.699-3.003,1.885-3.89,3.325l-0.592,7.629
		c1.345,3.184,4.433,5.104,7.691,5.104c1.069,0,2.155-0.207,3.202-0.642l11.459-4.765l1.449-18.685L154.843,241.731z"/>
	<path style="fill:#C9B585;" d="M179.465,165.339l-18.212-7.574c-1.139-0.474-2.323-0.67-3.48-0.63l-1.297,16.725l21.63,8.996
		L179.465,165.339z"/>
	<path style="fill:#C9B585;" d="M163.931,126.62c-1.968,0.945-3.387,2.563-4.135,4.443l-0.384,4.946
		c0.136,0.592,0.333,1.179,0.607,1.749c1.436,2.991,4.421,4.736,7.531,4.736c1.212,0,2.442-0.265,3.607-0.825l10.536-5.06
		l1.493-19.238L163.931,126.62z"/>
	<path style="fill:#C9B585;" d="M188.644,47.031l-17.486-8.398c-1.333-0.64-2.751-0.89-4.129-0.805l-1.297,16.72l21.526,10.338
		L188.644,47.031z"/>
</g>
<g>
	<polygon style="fill:#7C7A75;" points="343.752,46.158 350.008,124.728 350.757,134.145 382.184,134.145 381.237,122.242 
		375.181,46.158 347.42,46.158 	"/>
	<polygon style="fill:#7C7A75;" points="384.677,165.473 353.251,165.473 355.151,189.355 360.32,254.313 391.748,254.313 	"/>
	<polygon style="fill:#7C7A75;" points="406.34,437.649 403.804,405.808 372.379,405.808 375.109,440.134 378.27,479.837 
		409.696,479.837 	"/>
	<polygon style="fill:#7C7A75;" points="394.242,285.64 362.813,285.64 369.885,374.48 401.311,374.48 	"/>
	<polygon style="fill:#7C7A75;" points="148.484,285.64 117.057,285.64 109.987,374.48 141.413,374.48 	"/>
	<polygon style="fill:#7C7A75;" points="119.55,254.313 150.978,254.313 156.148,189.355 158.049,165.473 126.621,165.473 	"/>
	<polygon style="fill:#7C7A75;" points="136.188,440.134 138.92,405.808 107.493,405.808 104.959,437.649 101.601,479.837 
		133.029,479.837 	"/>
	<polygon style="fill:#7C7A75;" points="129.114,134.145 160.542,134.145 161.291,124.728 167.544,46.158 164.58,46.158 
		136.117,46.158 130.061,122.242 	"/>
</g>
<g>
	<path style="fill:#FFB92E;" d="M313.57,14.83H164.58h-50.456h-13.951v31.328h13.951h50.456h118.007h31.165h33.667h46.472h3.985
		h13.247V36.56c0,0,0-2.832,0-4.352V28.78c0-1.52,0-4.352,0-4.352V14.83h-13.247h-53.796"/>
	<path style="fill:#FFB92E;" d="M422.255,148.095c0-1.52,0-4.352,0-4.352v-9.598h-13.247h-61.587h-182.84h-61.588H89.042v31.328
		h13.951h61.587h118.007h31.165h33.667h57.602h3.985h13.247v-9.598c0,0,0-2.832,0-4.352v-3.428H422.255z"/>
	<path style="fill:#FFB92E;" d="M433.386,268.262c0-1.52,0-4.352,0-4.352v-9.598h-13.247h-72.717h-182.84H91.863H77.912v31.329
		h13.951h72.717h118.007h31.165h33.667h68.733h3.985h13.247v-9.598c0,0,0-2.832,0-4.352v-3.429H433.386z"/>
	<path style="fill:#FFB92E;" d="M444.516,388.43c0-1.52,0-4.352,0-4.352v-9.598h-13.247h-83.848h-182.84H80.732h-13.95v31.329
		h13.951h83.848h118.007h31.165h33.667h68.733h15.115h13.247v-9.598c0,0,0-2.832,0-4.352V388.43z"/>
</g>
<g>
	<polygon style="fill:#F79E28;" points="114.124,14.83 100.173,14.83 100.173,46.158 114.124,46.158 130.783,46.158 130.783,14.83 	
		"/>
	<polygon style="fill:#F79E28;" points="102.993,134.145 89.042,134.145 89.042,165.473 102.993,165.473 119.652,165.473 
		119.652,134.145 	"/>
	<polygon style="fill:#F79E28;" points="91.863,254.313 77.912,254.313 77.912,285.64 91.863,285.64 108.522,285.64 
		108.522,254.313 	"/>
	<polygon style="fill:#F79E28;" points="80.732,374.48 66.783,374.48 66.783,405.808 80.732,405.808 97.391,405.808 97.391,374.48 	
		"/>
</g>
<g>
	<path style="fill:#F28838;" d="M100.174,60.747c-4.61,0-8.348-3.736-8.348-8.348V10.296c0-4.611,3.738-8.348,8.348-8.348
		c4.61,0,8.348,3.738,8.348,8.348v42.103C108.522,57.01,104.784,60.747,100.174,60.747z"/>
	<path style="fill:#F28838;" d="M411.125,60.747c-4.61,0-8.348-3.736-8.348-8.348V10.296c0-4.611,3.738-8.348,8.348-8.348
		c4.611,0,8.348,3.738,8.348,8.348v42.103C419.473,57.01,415.735,60.747,411.125,60.747z"/>
	<path style="fill:#F28838;" d="M89.043,180.063c-4.61,0-8.348-3.738-8.348-8.348v-42.103c0-4.611,3.738-8.348,8.348-8.348
		c4.61,0,8.348,3.736,8.348,8.348v42.103C97.391,176.325,93.654,180.063,89.043,180.063z"/>
	<path style="fill:#F28838;" d="M422.255,180.063c-4.61,0-8.348-3.738-8.348-8.348v-42.103c0-4.611,3.738-8.348,8.348-8.348
		c4.611,0,8.348,3.736,8.348,8.348v42.103C430.603,176.325,426.866,180.063,422.255,180.063z"/>
	<path style="fill:#F28838;" d="M77.913,300.23c-4.61,0-8.348-3.736-8.348-8.348v-42.104c0-4.611,3.738-8.348,8.348-8.348
		s8.348,3.736,8.348,8.348v42.103C86.261,296.493,82.523,300.23,77.913,300.23z"/>
	<path style="fill:#F28838;" d="M433.386,300.23c-4.61,0-8.348-3.736-8.348-8.348v-42.104c0-4.611,3.738-8.348,8.348-8.348
		c4.611,0,8.348,3.736,8.348,8.348v42.103C441.734,296.493,437.996,300.23,433.386,300.23z"/>
	<path style="fill:#F28838;" d="M66.783,420.397c-4.61,0-8.348-3.736-8.348-8.348v-42.103c0-4.611,3.738-8.348,8.348-8.348
		s8.348,3.736,8.348,8.348v42.103C75.13,416.66,71.393,420.397,66.783,420.397z"/>
	<path style="fill:#F28838;" d="M444.516,420.397c-4.61,0-8.348-3.736-8.348-8.348v-42.103c0-4.611,3.738-8.348,8.348-8.348
		c4.611,0,8.348,3.736,8.348,8.348v42.103C452.864,416.66,449.126,420.397,444.516,420.397z"/>
</g>
<path style="fill:#CCC3A8;" d="M414.202,510.052h83.848c7.704,0,13.95-6.245,13.95-13.95v-3.428c0-7.704-6.245-13.95-13.95-13.95
	h-83.848H97.798H13.95c-7.704,0-13.95,6.245-13.95,13.95v3.428c0,7.704,6.245,13.95,13.95,13.95h83.848H349.37h31.165"/>
<path style="fill:#C9B585;" d="M22.261,496.102v-3.428c0-7.704,6.245-13.95,13.95-13.95H13.95c-7.704,0-13.95,6.245-13.95,13.95
	v3.428c0,7.704,6.245,13.95,13.95,13.95h22.261C28.506,510.052,22.261,503.807,22.261,496.102z"/>
</svg>