<?xml version="1.0" encoding="iso-8859-1"?>
<!-- Uploaded to: SVG Repo, www.svgrepo.com, Generator: SVG Repo Mixer Tools -->
<!DOCTYPE svg PUBLIC "-//W3C//DTD SVG 1.1//EN" "http://www.w3.org/Graphics/SVG/1.1/DTD/svg11.dtd">
<svg height="800px" width="800px" version="1.1" id="Capa_1" xmlns="http://www.w3.org/2000/svg" xmlns:xlink="http://www.w3.org/1999/xlink" 
	 viewBox="0 0 58 58" xml:space="preserve">
<g>
	<circle style="fill:#CB465F;" cx="44.5" cy="4" r="1"/>
	<circle style="fill:#88C057;" cx="31.5" cy="23" r="1"/>
	<path style="fill:#E7ECED;" d="M22.341,21.841L22.341,21.841c2.722-2.722,2.722-7.177,0-9.899l-9.9-9.9
		c-2.722-2.722-7.177-2.722-9.899,0l0,0c-2.722,2.722-2.722,7.177,0,9.899l9.9,9.9C15.164,24.563,19.618,24.563,22.341,21.841z"/>
	<path style="fill:#7383BF;" d="M9.671,33h-3v-3c0-0.552-0.448-1-1-1s-1,0.448-1,1v3h-3c-0.552,0-1,0.448-1,1s0.448,1,1,1h3v3
		c0,0.552,0.448,1,1,1s1-0.448,1-1v-3h3c0.552,0,1-0.448,1-1S10.224,33,9.671,33z"/>
	<path style="fill:#EFCE4A;" d="M55.086,52.828l2.121-2.121c0.391-0.391,0.391-1.023,0-1.414s-1.023-0.391-1.414,0l-2.121,2.121
		l-2.121-2.121c-0.391-0.391-1.023-0.391-1.414,0s-0.391,1.023,0,1.414l2.121,2.121l-2.121,2.121c-0.391,0.391-0.391,1.023,0,1.414
		c0.195,0.195,0.451,0.293,0.707,0.293s0.512-0.098,0.707-0.293l2.121-2.121l2.121,2.121c0.195,0.195,0.451,0.293,0.707,0.293
		s0.512-0.098,0.707-0.293c0.391-0.391,0.391-1.023,0-1.414L55.086,52.828z"/>
	<path style="fill:#DD352E;" d="M17.284,6.885l-4.843-4.843c-2.722-2.722-7.177-2.722-9.899,0h0c-2.722,2.722-2.722,7.177,0,9.899
		l4.843,4.843L17.284,6.885z"/>
	<path style="fill:#E7ECED;" d="M48.5,39L48.5,39c3.85,0,7-3.15,7-7V18c0-3.85-3.15-7-7-7h0c-3.85,0-7,3.15-7,7v14
		C41.5,35.85,44.65,39,48.5,39z"/>
	<path style="fill:#DD352E;" d="M55.5,24.849l0-6.849c0-3.85-3.15-7-7-7l0,0c-3.85,0-7,3.15-7,7v6.849H55.5z"/>
	<path style="fill:#E7ECED;" d="M26.228,51.172l5.113-5.113c2.722-2.722,2.722-7.177,0-9.899c-2.722-2.722-7.177-2.722-9.899,0
		l-5.113,5.113L26.228,51.172z"/>
	<path style="fill:#DD352E;" d="M16.412,41.188l-4.871,4.871c-2.722,2.722-2.722,7.177,0,9.899h0c2.722,2.722,7.177,2.722,9.899,0
		l4.871-4.871L16.412,41.188z"/>
	<path style="fill:#FFFFFF;" d="M21,17.5c-0.256,0-0.512-0.098-0.707-0.293l-13.5-13.5c-0.391-0.391-0.391-1.023,0-1.414
		s1.023-0.391,1.414,0l13.5,13.5c0.391,0.391,0.391,1.023,0,1.414C21.512,17.402,21.256,17.5,21,17.5z"/>
	<path style="fill:#FFFFFF;" d="M52.5,32c-0.552,0-1-0.448-1-1V16.704c0-0.552,0.448-1,1-1s1,0.448,1,1V31
		C53.5,31.552,53.052,32,52.5,32z"/>
	<path style="fill:#FFFFFF;" d="M18.5,53.109c-0.256,0-0.512-0.098-0.707-0.293c-0.391-0.391-0.391-1.023,0-1.414l10.109-10.109
		c0.391-0.391,1.023-0.391,1.414,0s0.391,1.023,0,1.414L19.207,52.816C19.012,53.011,18.756,53.109,18.5,53.109z"/>
</g>
</svg>