<?xml version="1.0" encoding="iso-8859-1"?>
<!-- Uploaded to: SVG Repo, www.svgrepo.com, Generator: SVG Repo Mixer Tools -->
<svg height="800px" width="800px" version="1.1" id="Layer_1" xmlns="http://www.w3.org/2000/svg" xmlns:xlink="http://www.w3.org/1999/xlink" 
	 viewBox="0 0 512.132 512.132" xml:space="preserve">
<g transform="translate(1 1)">
	<polygon style="fill:#FFFFFF;" points="7.533,502.598 144.067,502.598 144.067,24.732 7.533,24.732 	"/>
	<polygon style="fill:#FFDD09;" points="33.133,502.598 144.067,502.598 144.067,24.732 33.133,24.732 	"/>
	<polygon style="fill:#FD9808;" points="502.467,476.998 365.933,502.598 282.307,31.558 417.133,7.665 	"/>
	<g>
		<polygon style="fill:#FFDD09;" points="476.867,476.998 365.933,502.598 280.6,33.265 391.533,7.665 		"/>
		<polygon style="fill:#FFDD09;" points="144.067,502.598 280.6,502.598 280.6,24.732 144.067,24.732 		"/>
	</g>
	<g>
		<polygon style="fill:#FCC309;" points="41.667,220.998 109.933,220.998 109.933,84.465 41.667,84.465 		"/>
		<polygon style="fill:#FCC309;" points="178.2,220.998 246.467,220.998 246.467,84.465 178.2,84.465 		"/>
		<polygon style="fill:#FCC309;" points="417.987,206.492 350.573,218.438 326.68,84.465 394.093,72.518 		"/>
		<path style="fill:#FCC309;" d="M109.933,434.332c0-18.773-15.36-34.133-34.133-34.133s-34.133,15.36-34.133,34.133
			s15.36,34.133,34.133,34.133S109.933,453.105,109.933,434.332"/>
		<path style="fill:#FCC309;" d="M246.467,434.332c0-18.773-15.36-34.133-34.133-34.133s-34.133,15.36-34.133,34.133
			s15.36,34.133,34.133,34.133S246.467,453.105,246.467,434.332"/>
		<path style="fill:#FCC309;" d="M454.68,417.265c-3.413-18.773-21.333-30.72-39.253-27.307
			c-18.773,3.413-30.72,21.333-27.307,39.253c3.413,18.773,21.333,30.72,39.253,27.307
			C445.293,453.105,458.093,435.185,454.68,417.265"/>
	</g>
	<path d="M144.067,511.132H7.533c-5.12,0-8.533-3.413-8.533-8.533V24.732c0-5.12,3.413-8.533,8.533-8.533h136.533
		c5.12,0,8.533,3.413,8.533,8.533v477.867C152.6,507.718,149.187,511.132,144.067,511.132z M16.067,494.065h119.467v-460.8H16.067
		V494.065z"/>
	<path d="M365.933,511.132c-1.707,0-3.413-0.853-5.12-1.707c-1.707-1.707-3.413-3.413-3.413-5.12l-82.773-471.04
		c0-2.56,0-4.267,1.707-5.973s3.413-3.413,5.12-3.413L415.427-0.868c4.267-0.853,9.387,2.56,10.24,6.827L511,475.292
		c0.853,4.267-2.56,9.387-6.827,10.24l-136.533,25.6C366.787,511.132,366.787,511.132,365.933,511.132z M292.547,38.385
		l80.213,453.973l119.467-22.187l-81.92-452.267L292.547,38.385z"/>
	<path d="M109.933,229.532H41.667c-5.12,0-8.533-3.413-8.533-8.533V84.465c0-5.12,3.413-8.533,8.533-8.533h68.267
		c5.12,0,8.533,3.413,8.533,8.533v136.533C118.467,226.118,115.053,229.532,109.933,229.532z M50.2,212.465h51.2V92.998H50.2
		V212.465z"/>
	<path d="M75.8,476.998c-23.893,0-42.667-18.773-42.667-42.667c0-23.893,18.773-42.667,42.667-42.667s42.667,18.773,42.667,42.667
		C118.467,458.225,99.693,476.998,75.8,476.998z M75.8,408.732c-14.507,0-25.6,11.093-25.6,25.6c0,14.507,11.093,25.6,25.6,25.6
		s25.6-11.093,25.6-25.6C101.4,419.825,90.307,408.732,75.8,408.732z"/>
	<path d="M109.933,195.398H41.667c-5.12,0-8.533-3.413-8.533-8.533c0-5.12,3.413-8.533,8.533-8.533h68.267
		c5.12,0,8.533,3.413,8.533,8.533C118.467,191.985,115.053,195.398,109.933,195.398z"/>
	<path d="M109.933,161.265H41.667c-5.12,0-8.533-3.413-8.533-8.533s3.413-8.533,8.533-8.533h68.267c5.12,0,8.533,3.413,8.533,8.533
		S115.053,161.265,109.933,161.265z"/>
	<path d="M109.933,127.132H41.667c-5.12,0-8.533-3.413-8.533-8.533c0-5.12,3.413-8.533,8.533-8.533h68.267
		c5.12,0,8.533,3.413,8.533,8.533C118.467,123.718,115.053,127.132,109.933,127.132z"/>
	<path d="M280.6,511.132H144.067c-5.12,0-8.533-3.413-8.533-8.533V24.732c0-5.12,3.413-8.533,8.533-8.533H280.6
		c5.12,0,8.533,3.413,8.533,8.533v477.867C289.133,507.718,285.72,511.132,280.6,511.132z M152.6,494.065h119.467v-460.8H152.6
		V494.065z"/>
	<path d="M246.467,229.532H178.2c-5.12,0-8.533-3.413-8.533-8.533V84.465c0-5.12,3.413-8.533,8.533-8.533h68.267
		c5.12,0,8.533,3.413,8.533,8.533v136.533C255,226.118,251.587,229.532,246.467,229.532z M186.733,212.465h51.2V92.998h-51.2
		V212.465z"/>
	<path d="M212.333,476.998c-23.893,0-42.667-18.773-42.667-42.667c0-23.893,18.773-42.667,42.667-42.667S255,410.438,255,434.332
		C255,458.225,236.227,476.998,212.333,476.998z M212.333,408.732c-14.507,0-25.6,11.093-25.6,25.6c0,14.507,11.093,25.6,25.6,25.6
		c14.507,0,25.6-11.093,25.6-25.6C237.933,419.825,226.84,408.732,212.333,408.732z"/>
	<path d="M246.467,195.398H178.2c-5.12,0-8.533-3.413-8.533-8.533c0-5.12,3.413-8.533,8.533-8.533h68.267
		c5.12,0,8.533,3.413,8.533,8.533C255,191.985,251.587,195.398,246.467,195.398z"/>
	<path d="M246.467,161.265H178.2c-5.12,0-8.533-3.413-8.533-8.533s3.413-8.533,8.533-8.533h68.267c5.12,0,8.533,3.413,8.533,8.533
		S251.587,161.265,246.467,161.265z"/>
	<path d="M246.467,127.132H178.2c-5.12,0-8.533-3.413-8.533-8.533c0-5.12,3.413-8.533,8.533-8.533h68.267
		c5.12,0,8.533,3.413,8.533,8.533C255,123.718,251.587,127.132,246.467,127.132z"/>
	<path d="M350.573,226.972c-4.267,0-7.68-2.56-8.533-6.827L318.147,86.172c0-2.56,0-4.267,1.707-5.973
		c1.707-1.707,3.413-4.267,5.12-4.267l67.413-11.947c4.267-0.853,9.387,2.56,10.24,6.827l23.04,134.827
		c0.853,4.267-2.56,9.387-6.827,10.24l-67.413,11.947C351.427,226.972,350.573,226.972,350.573,226.972z M336.92,91.292
		l20.48,117.76l50.347-8.533l-20.48-118.613L336.92,91.292z"/>
	<path d="M421.4,465.905c-20.48,0-38.4-14.507-41.813-34.987c-4.267-23.04,11.093-45.227,34.987-49.493
		c11.093-1.707,22.187,0.853,31.573,6.827c9.387,6.827,15.36,16.213,17.92,27.307c1.707,11.093-0.853,22.187-6.827,31.573
		c-6.827,9.387-16.213,15.36-27.307,17.92C425.667,465.052,423.107,465.905,421.4,465.905z M421.4,397.638c-1.707,0-3.413,0-4.267,0
		c-6.827,0.853-12.8,5.12-16.213,10.24c-4.267,5.973-5.12,12.8-4.267,18.773c2.56,13.653,15.36,23.04,29.867,20.48
		c6.827-0.853,12.8-5.12,16.213-10.24c4.267-5.973,5.12-12.8,4.267-18.773l0,0c-0.853-6.827-5.12-12.8-10.24-16.213
		C431.64,398.492,426.52,397.638,421.4,397.638z"/>
	<path d="M344.6,193.692c-4.267,0-7.68-2.56-8.533-6.827c-0.853-4.267,2.56-9.387,6.827-10.24l67.413-11.947
		c4.267-0.853,9.387,2.56,10.24,6.827c0.853,4.267-2.56,9.387-6.827,10.24l-67.413,11.947
		C345.453,193.692,344.6,193.692,344.6,193.692z"/>
	<path d="M338.627,160.412c-4.267,0-7.68-2.56-8.533-6.827c-0.853-4.267,2.56-9.387,6.827-10.24l67.413-11.947
		c4.267-0.853,9.387,2.56,10.24,6.827c0.853,4.267-2.56,9.387-6.827,10.24l-67.413,11.093
		C339.48,160.412,338.627,160.412,338.627,160.412z"/>
	<path d="M332.653,126.278c-4.267,0-7.68-2.56-8.533-6.827c-0.853-4.267,2.56-9.387,6.827-10.24l67.413-11.947
		c4.267-0.853,9.387,2.56,10.24,6.827c0.853,4.267-2.56,9.387-6.827,10.24l-67.413,11.947
		C333.507,126.278,332.653,126.278,332.653,126.278z"/>
</g>
</svg>