<?xml version="1.0" encoding="iso-8859-1"?>
<!-- Uploaded to: SVG Repo, www.svgrepo.com, Generator: SVG Repo Mixer Tools -->
<svg height="800px" width="800px" version="1.1" id="Layer_1" xmlns="http://www.w3.org/2000/svg" xmlns:xlink="http://www.w3.org/1999/xlink" 
	 viewBox="0 0 512 512" xml:space="preserve">
<polygon style="fill:#F7B84E;" points="72,40 24,0 24,66.4 "/>
<polygon style="fill:#BD6428;" points="72,80 0,80 72,40 "/>
<polygon style="fill:#AE5C26;" points="280,0 72,0 24,0 72,40 72,80 280,80 280,40 328,0 "/>
<polygon style="fill:#F7B84E;" points="280,40 328,0 328,66.4 "/>
<polygon style="fill:#BD6428;" points="280,80 352,80 280,40 "/>
<path style="fill:#FFCB5B;" d="M0,80v352c0,8,7.2,16,16,16h320c8.8,0,16-8,16-16V80H0z"/>
<g>
	<path style="fill:#F7B84E;" d="M129.6,262.4c-11.2-12-17.6-28.8-17.6-46.4v-56c0-4.8-3.2-8-8-8v56
		C104,229.6,113.6,249.6,129.6,262.4z"/>
	<path style="fill:#F7B84E;" d="M264,152v56c0,48.8-39.2,88-88,88c-22.4,0-42.4-8-58.4-21.6c16,18.4,40,29.6,66.4,29.6
		c48.8,0,88-39.2,88-88v-56C272,155.2,268.8,152,264,152z"/>
	<path style="fill:#F7B84E;" d="M216,208v-48c-8.8,0-16,7.2-16,16v24c0,4.8-3.2,8-8,8l0,0c-8.8,0-16,7.2-16,16v104.8
		c0,8.8-7.2,15.2-16,15.2s-16,7.2-16,16v56c0,8.8-7.2,16-16,16H48c-8.8,0-16,7.2-16,16h112h16h32V248h32v-40H216z"/>
</g>
<path style="fill:#FFE278;" d="M0,80v16v80l0,0c8.8,0,16-7.2,16-16v-48c0-8.8,7.2-16,16-16h248c8.8,0,16-7.2,16-16l0,0H0z"/>
<g>
	<circle style="fill:#AE5C26;" cx="96" cy="144" r="16"/>
	<circle style="fill:#AE5C26;" cx="256" cy="144" r="16"/>
</g>
<path style="fill:#FFFFFF;" d="M256,144c-4.8,0-8,3.2-8,8v56c0,40-32,72-72,72s-72-32-72-72v-56c0-4.8-3.2-8-8-8s-8,3.2-8,8v56
	c0,48.8,39.2,88,88,88s88-39.2,88-88v-56C264,147.2,260.8,144,256,144z"/>
<polygon style="fill:#CC202C;" points="264,200 216,160 216,226.4 "/>
<polygon style="fill:#953F27;" points="264,240 192,240 264,200 "/>
<polygon style="fill:#81301C;" points="440,160 264,160 216,160 264,200 264,240 440,240 440,200 488,160 "/>
<polygon style="fill:#CC202C;" points="440,200 488,160 488,226.4 "/>
<polygon style="fill:#953F27;" points="440,240 512,240 440,200 "/>
<path style="fill:#EE2C39;" d="M192,240v256c0,8,7.2,16,16,16h288c8.8,0,16-8,16-16V240H192z"/>
<g>
	<path style="fill:#CC202C;" d="M305.6,390.4c-11.2-12-17.6-28.8-17.6-46.4v-24c0-4.8-3.2-8-8-8v24
		C280,357.6,289.6,377.6,305.6,390.4z"/>
	<path style="fill:#CC202C;" d="M440,312v24c0,48.8-39.2,88-88,88c-22.4,0-42.4-8-58.4-21.6c16,18.4,40,29.6,66.4,29.6
		c48.8,0,88-39.2,88-88v-24C448,315.2,444.8,312,440,312z"/>
	<path style="fill:#CC202C;" d="M496,336v80c0,8.8-7.2,16-16,16l0,0c-8.8,0-16,7.2-16,16v32c0,8.8-7.2,16-16,16H240
		c-8.8,0-16,7.2-16,16h240h16h16c8.8,0,16-7.2,16-16V320C503.2,320,496,327.2,496,336z"/>
</g>
<path style="fill:#F16351;" d="M192,240v16v80l0,0c8.8,0,16-7.2,16-16v-48c0-8.8,7.2-16,16-16h216c8.8,0,16-7.2,16-16l0,0H192z"/>
<g>
	<circle style="fill:#81301C;" cx="272" cy="304" r="16"/>
	<circle style="fill:#81301C;" cx="432" cy="304" r="16"/>
</g>
<path style="fill:#FFFFFF;" d="M432,304c-4.8,0-8,3.2-8,8v24c0,40-32,72-72,72s-72-32-72-72v-24c0-4.8-3.2-8-8-8s-8,3.2-8,8v24
	c0,48.8,39.2,88,88,88s88-39.2,88-88v-24C440,307.2,436.8,304,432,304z"/>
</svg>