<svg id="Layer_5" viewBox="0 0 128 128" xmlns="http://www.w3.org/2000/svg" data-name="Layer 5"><path d="m21 90h86l-16-39h-54z" fill="#e3e1e1"/><path d="m64 75c-20.9867 0-38 14.5827-38 32.5714v15.4286h76v-15.4286c0-17.9887-17.0132-32.5714-38-32.5714z" fill="#e3e1e1"/><path d="m64 75a41.2393 41.2393 0 0 0 -27 9.6567v38.3433h54v-38.3433a41.2393 41.2393 0 0 0 -27-9.6567z" fill="#fff"/><path d="m61 83h6v40h-6z" fill="#e3e1e1"/><path d="m64 88a12.0137 12.0137 0 0 1 -12-12v-2h24v2a12.0137 12.0137 0 0 1 -12 12z" fill="#e3e1e1"/><path d="m64 81a8 8 0 0 1 -8-8v-8h16v8a8 8 0 0 1 -8 8z" fill="#edb494"/><circle cx="64" cy="96" fill="#ededed" r="1"/><circle cx="64" cy="108" fill="#ededed" r="1"/><circle cx="64" cy="120" fill="#ededed" r="1"/><path d="m64 69a27 27 0 0 1 -27-27v-8a27 27 0 0 1 27-27 27 27 0 0 1 27 27v8a27 27 0 0 1 -27 27z" fill="#2c2c2c"/><path d="m83.5 54.25h3a6.0176 6.0176 0 0 0 6-6 6.0176 6.0176 0 0 0 -6-6h-3a6.0176 6.0176 0 0 0 -6 6 6.0176 6.0176 0 0 0 6 6z" fill="#edb494"/><path d="m44.5 54.25h-3a6.0176 6.0176 0 0 1 -6-6 6.0176 6.0176 0 0 1 6-6h3a6.0176 6.0176 0 0 1 6 6 6.0176 6.0176 0 0 1 -6 6z" fill="#edb494"/><path d="m64 73a22.0647 22.0647 0 0 1 -22-22v-10a22 22 0 0 1 22-22 22.0647 22.0647 0 0 1 22 22v10a22.0647 22.0647 0 0 1 -22 22z" fill="#fdc8a8"/><g fill="#2c2c2c"><circle cx="52" cy="46" r="3"/><circle cx="76" cy="46" r="3"/><path d="m80.6921 38.6958-8.8633 1.5628a1.5042 1.5042 0 0 1 -1.7376-1.2167 1.5043 1.5043 0 0 1 1.2167-1.7377l8.8633-1.5628a1.5042 1.5042 0 0 1 1.7376 1.2167 1.5043 1.5043 0 0 1 -1.2167 1.7377z"/><path d="m56.1712 40.2586-8.8633-1.5628a1.5043 1.5043 0 0 1 -1.2167-1.7377 1.5042 1.5042 0 0 1 1.7376-1.2167l8.8633 1.5628a1.5043 1.5043 0 0 1 1.2167 1.7377 1.5042 1.5042 0 0 1 -1.7376 1.2167z"/><path d="m64 69a26.9914 26.9914 0 0 1 -24-14.6354v.6354a24 24 0 0 0 48 0v-.6354a26.9914 26.9914 0 0 1 -24 14.6354z"/><path d="m26 107.5714v15.4286h21l-12.7043-35.7308a29.6788 29.6788 0 0 0 -8.2957 20.3022z"/><path d="m93.7043 87.2692-12.7043 35.7308h21v-15.4286a29.6788 29.6788 0 0 0 -8.2957-20.3022z"/></g><path d="m89.1609 83.1724-14.1609 39.8276h6l12.7043-35.7308a35.59 35.59 0 0 0 -4.5434-4.0968z" fill="#e9c778"/><path d="m34.2957 87.2692 12.7043 35.7308h6l-14.1609-39.8276a35.59 35.59 0 0 0 -4.5434 4.0968z" fill="#e9c778"/><path d="m107 90-14-56a29 29 0 0 0 -58 0l-14 56 23 18v-75.6448a1.9919 1.9919 0 0 1 1.3334-1.8869c2.4605-.8617 8.4214-2.4683 18.6666-2.4683s16.2061 1.6066 18.6666 2.4683a1.9919 1.9919 0 0 1 1.3334 1.8869v75.6448z" fill="#ededed"/><path d="m35.7384 23.0459a225.8848 225.8848 0 0 1 56.5232 0 1.9928 1.9928 0 0 1 1.7384 1.977 1.98 1.98 0 0 1 -2.2307 1.9617 225.8609 225.8609 0 0 0 -55.5386 0 1.98 1.98 0 0 1 -2.2307-1.9617 1.9928 1.9928 0 0 1 1.7384-1.977z" fill="#3a3a3a"/><path d="m73.0431 57.3331a4.6576 4.6576 0 0 0 -3.666-1.3331h-10.7542a4.6576 4.6576 0 0 0 -3.666 1.3331 3.9975 3.9975 0 0 0 -.9569 2.6991v9.9678h2v-8a2 2 0 0 1 2-2h12a2 2 0 0 1 2 2v8h2v-9.9678a3.9975 3.9975 0 0 0 -.9569-2.6991z" fill="#2c2c2c"/><path d="m58 61a6 6 0 0 0 12 0z" fill="#e62626"/><path d="m64 57a2 2 0 0 1 -2-2v-4a2 2 0 0 1 2-2 2 2 0 0 1 2 2v4a2 2 0 0 1 -2 2z" fill="#edb494"/><path d="m35.9868 21.0334a1.98 1.98 0 0 0 2.1974 1.7185 225.75 225.75 0 0 1 51.6316 0 1.98 1.98 0 0 0 2.1974-1.7185 1.9953 1.9953 0 0 0 -1.7411-2.2286 225.7566 225.7566 0 0 0 -52.5442 0 1.9953 1.9953 0 0 0 -1.7411 2.2286z" fill="#5f5f5f"/></svg>