<svg id="Layer_5" viewBox="0 0 128 128" xmlns="http://www.w3.org/2000/svg" data-name="Layer 5"><path d="m64 74c-20.9867 0-38 14.5827-38 32.5714v15.4286h76v-15.4286c0-17.9887-17.0132-32.5714-38-32.5714z" fill="#3166b8"/><path d="m64 74a41.2393 41.2393 0 0 0 -27 9.6567v38.3433h54v-38.3433a41.2393 41.2393 0 0 0 -27-9.6567z" fill="#3473c8"/><path d="m61 82h6v40h-6z" fill="#3166b8"/><path d="m64 87a12.0137 12.0137 0 0 1 -12-12v-5h24v5a12.0137 12.0137 0 0 1 -12 12z" fill="#3166b8"/><path d="m64 80a8 8 0 0 1 -8-8v-8h16v8a8 8 0 0 1 -8 8z" fill="#edb494"/><g fill="#ededed"><circle cx="64" cy="95" r="1"/><circle cx="64" cy="107" r="1"/><circle cx="64" cy="119" r="1"/></g><path d="m64 61a27 27 0 0 1 -27-27 27 27 0 0 1 27-27 27 27 0 0 1 27 27 27 27 0 0 1 -27 27z" fill="#2c2c2c"/><path d="m83.5 54.25h3a6.0176 6.0176 0 0 0 6-6 6.0176 6.0176 0 0 0 -6-6h-3a6.0176 6.0176 0 0 0 -6 6 6.0176 6.0176 0 0 0 6 6z" fill="#edb494"/><path d="m44.5 54.25h-3a6.0176 6.0176 0 0 1 -6-6 6.0176 6.0176 0 0 1 6-6h3a6.0176 6.0176 0 0 1 6 6 6.0176 6.0176 0 0 1 -6 6z" fill="#edb494"/><path d="m64 76a22.0647 22.0647 0 0 1 -22-22v-12a22 22 0 0 1 22-22 22.0647 22.0647 0 0 1 22 22v12a22.0647 22.0647 0 0 1 -22 22z" fill="#fdc8a8"/><circle cx="76" cy="48.077" fill="#fedecb" r="7.5"/><circle cx="52" cy="48.077" fill="#fedecb" r="7.5"/><circle cx="52" cy="46" fill="#4f4f4f" r="3"/><circle cx="76" cy="46" fill="#4f4f4f" r="3"/><path d="m80.6921 37.6958-8.8633 1.5628a1.5042 1.5042 0 0 1 -1.7376-1.2167 1.5043 1.5043 0 0 1 1.2167-1.7377l8.8633-1.5628a1.5042 1.5042 0 0 1 1.7376 1.2167 1.5043 1.5043 0 0 1 -1.2167 1.7377z" fill="#2c2c2c"/><path d="m56.1712 39.2586-8.8633-1.5628a1.5043 1.5043 0 0 1 -1.2167-1.7377 1.5042 1.5042 0 0 1 1.7376-1.2167l8.8633 1.5628a1.5043 1.5043 0 0 1 1.2167 1.7377 1.5042 1.5042 0 0 1 -1.7376 1.2167z" fill="#2c2c2c"/><path d="m66.7815 70h-5.563a20.3517 20.3517 0 0 1 -17.9757-10.5662 10.3 10.3 0 0 1 -1.0507-2.5838 21.9923 21.9923 0 0 0 43.6158 0 10.3 10.3 0 0 1 -1.0507 2.5841 20.3517 20.3517 0 0 1 -17.9757 10.5659z" fill="#2c2c2c"/><path d="m70 61h-12a6 6 0 0 0 6 6 6 6 0 0 0 6-6z" fill="#e62626"/><path d="m64 57a2 2 0 0 1 -2-2v-4a2 2 0 0 1 2-2 2 2 0 0 1 2 2v4a2 2 0 0 1 -2 2z" fill="#edb494"/><path d="m54 6h20a17 17 0 0 1 17 17v10a42.1032 42.1032 0 0 0 -21.6619-6h-10.6762a42.1032 42.1032 0 0 0 -21.6619 6v-10a17 17 0 0 1 17-17z" fill="#e3e1e1"/><path d="m74 98h12v3h-12z" fill="#3166b8"/><path d="m76 56.1543a8.0772 8.0772 0 1 1 8.0771-8.0772 8.0864 8.0864 0 0 1 -8.0771 8.0772zm0-15a6.9229 6.9229 0 1 0 6.9229 6.9228 6.9306 6.9306 0 0 0 -6.9229-6.9228z" fill="#606060"/><path d="m52 56.1543a8.0772 8.0772 0 1 1 8.0771-8.0772 8.0864 8.0864 0 0 1 -8.0771 8.0772zm0-15a6.9229 6.9229 0 1 0 6.9229 6.9228 6.9306 6.9306 0 0 0 -6.9229-6.9228z" fill="#606060"/><path d="m68.168 47.9507a6.2772 6.2772 0 0 0 -8.336 0l-.664-.7471a7.2738 7.2738 0 0 1 9.664 0z" fill="#606060"/></svg>