<svg id="Layer_5" viewBox="0 0 128 128" xmlns="http://www.w3.org/2000/svg" data-name="Layer 5"><path d="m17 110h94l-20-84h-54z" fill="#e3e1e1"/><path d="m64 75c-20.9867 0-38 14.5827-38 32.5714v15.4286h76v-15.4286c0-17.9887-17.0132-32.5714-38-32.5714z" fill="#ededed"/><path d="m64 75a41.2393 41.2393 0 0 0 -27 9.6567v38.3433h54v-38.3433a41.2393 41.2393 0 0 0 -27-9.6567z" fill="#fff"/><path d="m61 83h6v40h-6z" fill="#e3e1e1"/><path d="m64 88a12.0137 12.0137 0 0 1 -12-12v-2h24v2a12.0137 12.0137 0 0 1 -12 12z" fill="#e3e1e1"/><path d="m64 81a8 8 0 0 1 -8-8v-8h16v8a8 8 0 0 1 -8 8z" fill="#edb494"/><circle cx="64" cy="96" fill="#ededed" r="1"/><circle cx="64" cy="108" fill="#ededed" r="1"/><circle cx="64" cy="120" fill="#ededed" r="1"/><path d="m64 69a27 27 0 0 1 -27-27v-8a27 27 0 0 1 27-27 27 27 0 0 1 27 27v8a27 27 0 0 1 -27 27z" fill="#2c2c2c"/><path d="m83.5 54.25h3a6.0176 6.0176 0 0 0 6-6 6.0176 6.0176 0 0 0 -6-6h-3a6.0176 6.0176 0 0 0 -6 6 6.0176 6.0176 0 0 0 6 6z" fill="#edb494"/><path d="m44.5 54.25h-3a6.0176 6.0176 0 0 1 -6-6 6.0176 6.0176 0 0 1 6-6h3a6.0176 6.0176 0 0 1 6 6 6.0176 6.0176 0 0 1 -6 6z" fill="#edb494"/><path d="m64 73a22.0647 22.0647 0 0 1 -22-22v-10a22 22 0 0 1 22-22 22.0647 22.0647 0 0 1 22 22v10a22.0647 22.0647 0 0 1 -22 22z" fill="#fdc8a8"/><path d="m80.3406 44.5h-14.3406l1.3569 6.7845a4 4 0 0 0 3.9223 3.2155h7.4416a4 4 0 0 0 3.9223-3.2155l.6392-3.1962a3 3 0 0 0 -2.9417-3.5883z" fill="#fedecb"/><path d="m47.6594 44.5h14.3406l-1.3569 6.7845a4 4 0 0 1 -3.9223 3.2155h-7.4416a4 4 0 0 1 -3.9223-3.2155l-.6392-3.1962a3 3 0 0 1 2.9417-3.5883z" fill="#fedecb"/><circle cx="52" cy="46" fill="#2c2c2c" r="3"/><circle cx="76" cy="46" fill="#2c2c2c" r="3"/><path d="m64 69a26.9914 26.9914 0 0 1 -24-14.6354v.6354a24 24 0 0 0 48 0v-.6354a26.9914 26.9914 0 0 1 -24 14.6354z" fill="#2c2c2c"/><path d="m111 110-18.0952-76h.0952a29 29 0 0 0 -58 0h.0952l-18.0952 76h6l24.9472-80.5986a42.0843 42.0843 0 0 1 10.7147-1.4014h10.6762a42.0843 42.0843 0 0 1 10.7147 1.4014l24.9472 80.5986z" fill="#fff"/><g fill="#ededed"><path d="m35.552 69.448-1.552 1.552.818.818z"/><path d="m36.236 67.236 1.419-4.581-.655-.655-3 3z"/><path d="m41.909 48.909 1.418-4.582-.327-.327-3 3z"/><path d="m40.931 52.069-.931.931.491.491z"/><path d="m30.564 85.564 1.418-4.582-.982-.982-3 3z"/><path d="m46.31 34.69-.31.31.164.164z"/><path d="m30.172 86.828-2.172 2.172 1.145 1.146z"/><path d="m81.836 35.164.164-.164-.31-.31z"/><path d="m75.4758 28.4758-2.4758-2.4758-2.0532 2.0533a41.6786 41.6786 0 0 1 4.529.4225z"/><path d="m24.891 103.891 1.418-4.582-1.309-1.309-3 3z"/><path d="m76.3761 28.6239c1.236.2121 2.4653.4586 3.6767.7775l.3654 1.18 1.5818-1.5814-3-3z"/><path d="m84.673 44.327 1.418 4.582 1.909-1.909-3-3z"/><path d="m69 28-2-2-2 2z"/><path d="m47.5818 30.5818.3654-1.18c1.2114-.3189 2.4407-.5654 3.6767-.7775l-2.6239-2.6243-3 3z"/><path d="m57.0533 28.0533-2.0533-2.0533-2.4758 2.4759a41.6824 41.6824 0 0 1 4.5291-.4226z"/><path d="m63 28-2-2-2 2z"/><path d="m18.538 103.539.462.461 3-3-2.308-2.308z"/><path d="m28.879 68.879h4.243v4.243h-4.243z" transform="matrix(.707 -.707 .707 .707 -41.124 42.714)"/><path d="m25.75 73.25 2.25-2.25-1.385-1.385z"/><path d="m31 80 1.862-1.862.538-1.738-2.4-2.4-3 3z"/><path d="m28.879 62.879h4.243v4.243h-4.243z" transform="matrix(.707 -.707 .707 .707 -36.882 40.956)"/><path d="m31.231 50.231-1.154 4.846.923.923 3-3z"/><path d="m27.625 65.375.375-.375-.231-.231z"/><path d="m25.461 74.461-1.153 4.847.692.692 3-3z"/><path d="m24.793 104.207-2.793 2.793 1.473 1.473z"/><path d="m88.879 44.879h4.243v4.243h-4.243z" transform="matrix(.707 -.707 .707 .707 -6.582 78.11)"/><path d="m17.385 108.385 1.615 1.615 3-3-3-3-.75.75z"/><path d="m25 98 2.483-2.483.244-.79-2.727-2.727-3 3z"/><path d="m23.875 81.125-.721 3.029 1.846 1.846 3-3-3-3z"/><path d=""/><path d="m22.879 86.879h4.243v4.243h-4.243z" transform="matrix(.707 -.707 .707 .707 -55.611 43.747)"/><path d="m20.125 96.875 1.875-1.875-1.154-1.154z"/><path d="m103 86 1.846-1.846-.721-3.029-1.125-1.125-3 3z"/><path d="m109.462 103.539-1.154-4.847-2.308 2.308 3 3z"/><path d="m97.923 55.077-1.154-4.846-2.769 2.769 3 3z"/><path d="m95.615 45.385-1.615 1.615 2.625 2.625z"/><path d="m101.385 69.615-1.385 1.385 2.25 2.25z"/><path d="m107.154 93.846-1.154 1.154 1.875 1.875z"/><path d="m94.462 40.539-.462.461.75.75z"/><path d="m103.692 79.308-1.154-4.847-2.538 2.539 3 3z"/><path d="m100.231 64.769-.231.231.375.375z"/><path d="m84.2438 13.2438.5124.5124q-.253-.2594-.5124-.5124z"/><path d="m91.6779 25.3221a28.7916 28.7916 0 0 0 -1.73-4.27l-1.9479 1.9479 3 3z"/><path d="m43.7559 13.2441q-.2587.2524-.5111.5111z"/><path d="m69.4766 5.5235a29.1326 29.1326 0 0 0 -5.4766-.5235l3 3z"/><path d="m87.701 17.299a29.1214 29.1214 0 0 0 -2.7068-3.2932l-2.9942 2.9942 3 3z"/><path d="m70.8126 5.8126 2.1874 2.1874 1.1642-1.1643a28.7593 28.7593 0 0 0 -3.3516-1.0231z"/><path d="m81.8483 11.1519a29.0266 29.0266 0 0 0 -3.5954-2.4047l-2.2529 2.2528 3 3z"/><path d="m96.018 80.982 1.418 4.582 2.564-2.564-3-3z"/><path d="m94.879 62.879h4.243v4.243h-4.243z" transform="matrix(.707 -.707 .707 .707 -17.551 87.63)"/><path d="m93.182 71.818.818-.818-1.552-1.552z"/><path d="m90.345 62.655 1.419 4.581 2.236-2.236-3-3z"/><path d="m91 56-2.073 2.073.832 2.686 1.241 1.241 3-3z"/><path d="m88.879 50.879h4.243v4.243h-4.243z" transform="matrix(.707 -.707 .707 .707 -10.823 79.87)"/><path d="m94.879 68.879h4.243v4.243h-4.243z" transform="matrix(.707 -.707 .707 .707 -21.794 89.384)"/><path d="m97 62 2.077-2.077-.577-2.423-1.5-1.5-3 3z"/><path d="m100.517 95.517 2.483 2.483 3-3-3-3-2.727 2.727z"/><path d="m104.527 108.473 1.473-1.473-2.793-2.793z"/><path d="m103.109 103.891 2.891-2.891-3-3-1.309 1.309z"/><path d="m103 92 3-3-3-3-3 3z"/><path d="m98.855 90.146 1.145-1.146-2.172-2.172z"/><path d="m87.509 53.491.491-.491-.931-.931z"/><path d="m95.138 78.138 1.862 1.862 3-3-3-3-2.4 2.4z"/><path d="m31 56-1.5 1.5-.577 2.423 2.077 2.077 3-3z"/><path d="m109 110 1.615-1.615-.865-3.635-.75-.75-3 3z"/><path d="m46.879 20.879h4.243v4.243h-4.243z" transform="matrix(.707 -.707 .707 .707 -1.912 41.385)"/><path d="m58.879 20.879h4.243v4.243h-4.243z" transform="matrix(.707 -.707 .707 .707 1.603 49.87)"/><path d="m76.879 20.879h4.243v4.243h-4.243z" transform="matrix(.707 -.707 .707 .707 6.875 62.598)"/><path d="m70.879 20.879h4.243v4.243h-4.243z" transform="matrix(.707 -.707 .707 .707 5.118 58.355)"/><path d="m64.879 20.879h4.243v4.243h-4.243z" transform="matrix(.707 -.707 .707 .707 3.36 54.113)"/><path d="m52.879 20.879h4.243v4.243h-4.243z" transform="matrix(.707 -.707 .707 .707 -.154 45.627)"/><path d="m34.879 38.879h4.243v4.243h-4.243z" transform="matrix(.707 -.707 .707 .707 -18.154 38.172)"/><path d="m37 32-2 2h.095l-.403 1.692 2.308 2.308 3-3z"/><path d="m40.879 26.879h4.243v4.243h-4.243z" transform="matrix(.707 -.707 .707 .707 -7.912 38.898)"/><path d="m40.879 32.879h4.243v4.243h-4.243z" transform="matrix(.707 -.707 .707 .707 -12.155 40.655)"/><path d="m43 44 .621-.621 1.124-3.634-1.745-1.745-3 3z"/><path d="m70.879 8.879h4.243v4.243h-4.243z" transform="matrix(.707 -.707 .707 .707 13.603 54.841)"/><path d="m76.879 14.879h4.243v4.243h-4.243z" transform="matrix(.707 -.707 .707 .707 11.118 60.841)"/><path d="m37 26-1.1874 1.1875a28.8939 28.8939 0 0 0 -.5626 3.0625l1.75 1.75 3-3z"/><path d="m61 8 3-3a29.1316 29.1316 0 0 0 -5.4765.5234z"/><path d="m82.879 20.879h4.243v4.243h-4.243z" transform="matrix(.707 -.707 .707 .707 8.632 66.84)"/><path d="m64.879 8.879h4.243v4.243h-4.243z" transform="matrix(.707 -.707 .707 .707 11.844 50.596)"/><path d="m88.879 38.879h4.243v4.243h-4.243z" transform="matrix(.707 -.707 .707 .707 -2.338 76.355)"/><path d="m82.879 32.879h4.243v4.243h-4.243z" transform="matrix(.707 -.707 .707 .707 .147 70.355)"/><path d="m91 32 1.7505-1.75a28.8929 28.8929 0 0 0 -.5631-3.0622l-1.1874-1.1878-3 3z"/><path d="m85 38-1.745 1.745 1.124 3.634.621.621 3-3z"/><path d="m91 38 2.308-2.308-.403-1.692h.095l-2-2-3 3z"/><path d="m82.879 26.879h4.243v4.243h-4.243z" transform="matrix(.707 -.707 .707 .707 4.39 68.599)"/><path d="m53.8357 6.8358 1.1643 1.1642 2.1876-2.1875a28.7818 28.7818 0 0 0 -3.3519 1.0233z"/><path d="m49.7471 8.7473a29.0166 29.0166 0 0 0 -3.5953 2.4045l2.8482 2.8482 3-3z"/><path d="m43.0058 14.0059a29.1292 29.1292 0 0 0 -2.7068 3.2931l2.701 2.701 3-3z"/><path d="m38.0519 21.052a28.79 28.79 0 0 0 -1.73 4.27l.6781.678 3-3z"/><path d="m58.879 8.879h4.243v4.243h-4.243z" transform="matrix(.707 -.707 .707 .707 10.089 46.356)"/><path d="m33.25 41.75.75-.75-.462-.462z"/><path d="m70.879 14.879h4.243v4.243h-4.243z" transform="matrix(.707 -.707 .707 .707 9.36 56.598)"/><path d="m58.879 14.879h4.243v4.243h-4.243z" transform="matrix(.707 -.707 .707 .707 5.845 48.111)"/><path d="m37 62 1.241-1.241.832-2.686-2.073-2.073-3 3z"/><path d="m64.879 14.879h4.243v4.243h-4.243z" transform="matrix(.707 -.707 .707 .707 7.603 52.355)"/><path d="m52.879 14.879h4.243v4.243h-4.243z" transform="matrix(.707 -.707 .707 .707 4.088 43.869)"/><path d="m46.879 14.879h4.243v4.243h-4.243z" transform="matrix(.707 -.707 .707 .707 2.331 39.627)"/><path d="m40.879 20.879h4.243v4.243h-4.243z" transform="matrix(.707 -.707 .707 .707 -3.669 37.144)"/><path d="m34.879 50.879h4.243v4.243h-4.243z" transform="matrix(.707 -.707 .707 .707 -26.64 41.688)"/><path d="m34.879 44.879h4.243v4.243h-4.243z" transform="matrix(.707 -.707 .707 .707 -22.397 39.929)"/><path d="m52.879 8.879h4.243v4.243h-4.243z" transform="matrix(.707 -.707 .707 .707 8.332 42.114)"/><path d="m31.375 49.625 2.625-2.625-1.615-1.615z"/></g><path d="m35.7384 23.0459a225.8848 225.8848 0 0 1 56.5232 0 1.9928 1.9928 0 0 1 1.7384 1.977 1.98 1.98 0 0 1 -2.2307 1.9617 225.8609 225.8609 0 0 0 -55.5386 0 1.98 1.98 0 0 1 -2.2307-1.9617 1.9928 1.9928 0 0 1 1.7384-1.977z" fill="#3a3a3a"/><path d="m73.0431 57.3331a4.6576 4.6576 0 0 0 -3.666-1.3331h-10.7542a4.6576 4.6576 0 0 0 -3.666 1.3331 3.9975 3.9975 0 0 0 -.9569 2.6991v9.9678h2v-8a2 2 0 0 1 2-2h12a2 2 0 0 1 2 2v8h2v-9.9678a3.9975 3.9975 0 0 0 -.9569-2.6991z" fill="#2c2c2c"/><path d="m58 61a6 6 0 0 0 12 0z" fill="#e62626"/><path d="m64 57a2 2 0 0 1 -2-2v-4a2 2 0 0 1 2-2 2 2 0 0 1 2 2v4a2 2 0 0 1 -2 2z" fill="#edb494"/><path d="m83.0469 45.2813a3.4846 3.4846 0 0 0 -2.7061-1.2813h-32.6816a3.5 3.5 0 0 0 -3.4317 4.1855l.6386 3.1963a4.5127 4.5127 0 0 0 4.4132 3.6182h7.4414a4.5125 4.5125 0 0 0 4.4131-3.6182l.4762-2.3818h4.78l.4764 2.3818a4.5127 4.5127 0 0 0 4.4129 3.6182h7.4414a4.5125 4.5125 0 0 0 4.4131-3.6182l.6387-3.1963a3.4862 3.4862 0 0 0 -.7256-2.9042zm-22.8936 5.9052a3.51 3.51 0 0 1 -3.4326 2.8135h-7.4414a3.51 3.51 0 0 1 -3.4326-2.8135l-.6387-3.1965a2.5006 2.5006 0 0 1 2.4512-2.99h13.7308l-.25 1.2529-.55 2.7471zm6.0367-3.1865h-4.379l.3574-1.7882.2416-1.2118h3.18l.2424 1.2118zm16.6025-.01-.6387 3.1963a3.51 3.51 0 0 1 -3.4331 2.8137h-7.4414a3.51 3.51 0 0 1 -3.4326-2.8135l-.4367-2.1865-.55-2.7471-.25-1.2529h13.73a2.5006 2.5006 0 0 1 2.4512 2.99z" fill="#3d3d3d"/><path d="m49 46a3 3 0 1 0 5.8163-1h-5.6326a2.9721 2.9721 0 0 0 -.1837 1z" fill="#4f4f4f"/><path d="m73 46a3 3 0 1 0 5.8163-1h-5.6326a2.9721 2.9721 0 0 0 -.1837 1z" fill="#4f4f4f"/><path d="m79.0045 40.66a6.0953 6.0953 0 0 0 -6.0092 0 2.069 2.069 0 0 1 -2.3112-.0241c-.5868-.5233-.2706-1.8095.8948-2.4705a8.9692 8.9692 0 0 1 8.842 0c1.1655.661 1.482 1.9472.8948 2.4705a2.069 2.069 0 0 1 -2.3112.0241z" fill="#2c2c2c"/><path d="m55.0046 40.66a6.0953 6.0953 0 0 0 -6.0092 0 2.069 2.069 0 0 1 -2.3112-.0241c-.587-.5233-.27-1.8095.8948-2.4705a8.9692 8.9692 0 0 1 8.842 0c1.1653.661 1.4816 1.9472.8948 2.4705a2.069 2.069 0 0 1 -2.3112.0241z" fill="#2c2c2c"/><path d="m35.9868 21.0334a1.98 1.98 0 0 0 2.1974 1.7185 225.75 225.75 0 0 1 51.6316 0 1.98 1.98 0 0 0 2.1974-1.7185 1.9953 1.9953 0 0 0 -1.7411-2.2286 225.7566 225.7566 0 0 0 -52.5442 0 1.9953 1.9953 0 0 0 -1.7411 2.2286z" fill="#5f5f5f"/></svg>