<svg id="Layer_5" viewBox="0 0 128 128" xmlns="http://www.w3.org/2000/svg" data-name="Layer 5"><circle cx="64" cy="116" fill="#fff" r="2"/><path d="m98 93.03-34-18.03c-20.9867 0-38 14.5827-38 32.5714v15.4286h76v-15.4286a28.68 28.68 0 0 0 -4-14.5414z" fill="#2c2c2c"/><path d="m64 75a41.2393 41.2393 0 0 0 -27 9.6567v38.3433h54v-36z" fill="#3d3d3d"/><path d="" fill="#2c2c2c"/><path d="m97.5 93-16.5-7-14-11 20-12 10 25z" fill="#e3e1e1"/><path d="m61 83h6v40h-6z" fill="#2c2c2c"/><path d="m64 68a27 27 0 0 1 -27-27v-8a27 27 0 0 1 27-27 27 27 0 0 1 27 27v8a27 27 0 0 1 -27 27z" fill="#2c2c2c"/><path d="m64 81a8 8 0 0 1 -8-8v-8h16v8a8 8 0 0 1 -8 8z" fill="#edb494"/><path d="m83.5 53.25h3a6.0176 6.0176 0 0 0 6-6 6.0176 6.0176 0 0 0 -6-6h-3a6.0176 6.0176 0 0 0 -6 6 6.0176 6.0176 0 0 0 6 6z" fill="#edb494"/><path d="m44.5 53.25h-3a6.0176 6.0176 0 0 1 -6-6 6.0176 6.0176 0 0 1 6-6h3a6.0176 6.0176 0 0 1 6 6 6.0176 6.0176 0 0 1 -6 6z" fill="#edb494"/><path d="m64 72a22.0647 22.0647 0 0 1 -22-22v-10a22 22 0 0 1 22-22 22.0647 22.0647 0 0 1 22 22v10a22.0647 22.0647 0 0 1 -22 22z" fill="#fdc8a8"/><g fill="#2c2c2c"><circle cx="52" cy="45" r="3"/><circle cx="76" cy="45" r="3"/><path d="m80.5 38.5h-9a1.5044 1.5044 0 0 1 -1.5-1.5 1.5044 1.5044 0 0 1 1.5-1.5h9a1.5044 1.5044 0 0 1 1.5 1.5 1.5044 1.5044 0 0 1 -1.5 1.5z"/><path d="m56.5 38.5h-9a1.5044 1.5044 0 0 1 -1.5-1.5 1.5044 1.5044 0 0 1 1.5-1.5h9a1.5044 1.5044 0 0 1 1.5 1.5 1.5044 1.5044 0 0 1 -1.5 1.5z"/><path d="m64 68a26.9914 26.9914 0 0 1 -24-14.6354v2.6354a24 24 0 0 0 48 0v-2.6354a26.9914 26.9914 0 0 1 -24 14.6354z"/></g><path d="m63 58h2a8 8 0 0 1 8 8 21.25 21.25 0 0 1 -18 0 8 8 0 0 1 8-8z" fill="#fdc8a8"/><path d="m70 60a6 6 0 0 1 -12 0z" fill="#e62626"/><path d="m71.5279 55h-15.0558c-2.7408 0-5.2464 1.9356-6.4721 5h28c-1.2257-3.0644-3.7313-5-6.4721-5z" fill="#2c2c2c"/><circle cx="64" cy="105" fill="#515151" r="1"/><circle cx="64" cy="117" fill="#515151" r="1"/><path d="m82.8557 79.0211-.8557-.1172a52.5691 52.5691 0 0 0 1.6452-22.9359l-4.1547-27.698a41.755 41.755 0 0 0 -10.1524-1.27h-10.6762a42.0206 42.0206 0 0 0 -10.1519 1.27l-3.5018 23.3416a20 20 0 0 0 17.0865 22.7848l9.9053 1.3456a39.2131 39.2131 0 0 1 22 11.85l-.1479-4.332a26.2481 26.2481 0 0 0 -10.9964-4.2389z" fill="none"/><path d="m98 93.0274c-6.234-10.6858-19.1133-18.0274-34-18.0274a19.599 19.599 0 0 1 -19.3507-22.7087l3.8607-24.0213a42.0206 42.0206 0 0 1 10.1519-1.27h10.6762a41.755 41.755 0 0 1 10.1524 1.27l4.1547 27.698c1.1509 7.673-1.1452 23.032-1.1452 23.032l.1179.0124a19.3488 19.3488 0 0 1 14.3821 8.9876l-5-59a24 24 0 0 0 -24-24h-8a24 24 0 0 0 -24 24l-4 37a29.4555 29.4555 0 0 0 29.2415 33h16.957a35.8108 35.8108 0 0 0 19.8015-5.9726z" fill="#ededed"/><path d="m70 89c-12.8723 0-23.8473-6.6225-28.1051-15.9218a26.355 26.355 0 0 0 25.6051 18.9218 27.0009 27.0009 0 0 0 17.2979-6.1909 35.1736 35.1736 0 0 1 -14.7979 3.1909z" fill="#e3e1e1"/><path d="m35.9868 20.0334a1.98 1.98 0 0 0 2.1974 1.7185 225.75 225.75 0 0 1 51.6316 0 1.98 1.98 0 0 0 2.1974-1.7185 1.9953 1.9953 0 0 0 -1.7411-2.2286 225.7566 225.7566 0 0 0 -52.5442 0 1.9953 1.9953 0 0 0 -1.7411 2.2286z" fill="#5f5f5f"/><path d="m35.7384 22.0459a225.8848 225.8848 0 0 1 56.5232 0 1.9928 1.9928 0 0 1 1.7384 1.977 1.98 1.98 0 0 1 -2.2307 1.9617 225.8609 225.8609 0 0 0 -55.5386 0 1.98 1.98 0 0 1 -2.2307-1.9617 1.9928 1.9928 0 0 1 1.7384-1.977z" fill="#3a3a3a"/><path d="m64 56a2 2 0 0 1 -2-2v-4a2 2 0 0 1 2-2 2 2 0 0 1 2 2v4a2 2 0 0 1 -2 2z" fill="#edb494"/></svg>