<svg id="Layer_5" viewBox="0 0 128 128" xmlns="http://www.w3.org/2000/svg" data-name="Layer 5"><path d="m64 74c-20.9867 0-38 14.5827-38 32.5714v15.4286h76v-15.4286c0-17.9887-17.0132-32.5714-38-32.5714z" fill="#3accb7"/><path d="m64 74a41.2393 41.2393 0 0 0 -27 9.6567v38.3433h54v-38.3433a41.2393 41.2393 0 0 0 -27-9.6567z" fill="#21b4ab"/><path d="m61 82h6v40h-6z" fill="#3accb7"/><path d="m62.8429 86.9454a12.234 12.234 0 0 1 -10.8429-12.2971 5.6483 5.6483 0 0 1 5.6483-5.6483h12.7034a5.6483 5.6483 0 0 1 5.6483 5.6483v.3517a12.0134 12.0134 0 0 1 -13.1571 11.9454z" fill="#3accb7"/><path d="m64 80a8 8 0 0 1 -8-8v-8h16v8a8 8 0 0 1 -8 8z" fill="#edb494"/><g fill="#21b4ab"><circle cx="64" cy="95" r="1"/><circle cx="64" cy="107" r="1"/><circle cx="64" cy="119" r="1"/></g><path d="m64 60a27 27 0 0 1 -27-27 27 27 0 0 1 27-27 27 27 0 0 1 27 27 27 27 0 0 1 -27 27z" fill="#2c2c2c"/><path d="m83.5 54.25h3a6.0176 6.0176 0 0 0 6-6 6.0176 6.0176 0 0 0 -6-6h-3a6.0176 6.0176 0 0 0 -6 6 6.0176 6.0176 0 0 0 6 6z" fill="#edb494"/><path d="m44.5 54.25h-3a6.0176 6.0176 0 0 1 -6-6 6.0176 6.0176 0 0 1 6-6h3a6.0176 6.0176 0 0 1 6 6 6.0176 6.0176 0 0 1 -6 6z" fill="#edb494"/><path d="m64 72a22.0647 22.0647 0 0 1 -22-22v-10a22 22 0 0 1 22-22 22.0647 22.0647 0 0 1 22 22v10a22.0647 22.0647 0 0 1 -22 22z" fill="#fdc8a8"/><circle cx="52" cy="45" fill="#2c2c2c" r="3"/><circle cx="76" cy="45" fill="#2c2c2c" r="3"/><path d="m70 60h-12a6 6 0 0 0 6 6 6 6 0 0 0 6-6z" fill="#e62626"/><path d="m64 56.5a2 2 0 0 1 -2-2v-5a2 2 0 0 1 2-2 2 2 0 0 1 2 2v5a2 2 0 0 1 -2 2z" fill="#edb494"/><path d="m91.1461 10.6486a8.8944 8.8944 0 0 1 -6.1961 2.3514 9.288 9.288 0 0 1 -4.9187-1.3568 28.3031 28.3031 0 0 0 -14.9602-4.6432h-1.0711a12.3542 12.3542 0 0 0 -1.6938.1215c-14.5988 2.0232-12.7271 23.8785 2.0112 23.8785h10.6826a17 17 0 0 0 17-17 6.9667 6.9667 0 0 0 -.8539-3.3514z" fill="#2c2c2c"/><path d="m80.6921 37.4144-8.8633 1.5628a1.5042 1.5042 0 0 1 -1.7376-1.2167 1.5043 1.5043 0 0 1 1.2167-1.7377l8.8633-1.5628a1.5042 1.5042 0 0 1 1.7376 1.2167 1.5043 1.5043 0 0 1 -1.2167 1.7377z" fill="#2c2c2c"/><path d="m56.1712 38.9772-8.8633-1.5628a1.5043 1.5043 0 0 1 -1.2167-1.7377 1.5042 1.5042 0 0 1 1.7376-1.2167l8.8633 1.5628a1.5043 1.5043 0 0 1 1.2167 1.7377 1.5042 1.5042 0 0 1 -1.7376 1.2167z" fill="#2c2c2c"/></svg>