<?xml version="1.0" encoding="UTF-8" standalone="no"?>
<!-- Created with Inkscape (http://www.inkscape.org/) -->

<svg
   version="1.1"
   id="svg2"
   xml:space="preserve"
   width="116.37067"
   height="143.48553"
   viewBox="0 0 116.37067 143.48553"
   sodipodi:docname="2756.svg"
   xmlns:inkscape="http://www.inkscape.org/namespaces/inkscape"
   xmlns:sodipodi="http://sodipodi.sourceforge.net/DTD/sodipodi-0.dtd"
   xmlns="http://www.w3.org/2000/svg"
   xmlns:svg="http://www.w3.org/2000/svg"><defs
     id="defs6" /><sodipodi:namedview
     id="namedview4"
     pagecolor="#ffffff"
     bordercolor="#666666"
     borderopacity="1.0"
     inkscape:pageshadow="2"
     inkscape:pageopacity="0.0"
     inkscape:pagecheckerboard="0"
     inkscape:showpageshadow="2"
     inkscape:deskcolor="#d1d1d1"
     showgrid="false" /><g
     id="g8"
     inkscape:groupmode="layer"
     inkscape:label="ink_ext_XXXXXX"
     transform="matrix(1.3333333,0,0,-1.3333333,-509.55199,800.22687)"><g
       id="g10"
       transform="scale(0.1)"><path
         d="m 4019.35,5370.1 37.49,12.23 0.01,-0.02 c 14.89,4.9 26.37,8.76 31.57,10.77 2.16,0.83 3.77,0.74 5.17,0.25 2.13,1.32 4.35,2.67 6.68,4.07 58.76,35.24 64.18,92.64 64.35,125.6 -5.72,4.61 -11.27,9.43 -16.55,14.53 -40.44,39.04 -40.09,137.7 -49.85,130.72 -22.31,-14.99 -36.6,29.63 -39.39,56.13 -2.16,20.48 4.59,31.65 12.91,30.57 3.45,-3.8 8.19,-1.27 13.26,-11.3 4.1,-8.11 8.05,31.65 45,62.32 l 44.49,38.83 c 36.95,-4.18 50.41,-14.64 115.3,-48.75 54.55,-28.68 123.95,-51.78 133.73,-59.66 4.33,-3.49 7.67,12.89 24.28,17.73 l 0.54,0.75 c 7.26,-1.02 12.7,-11.85 10.74,-30.49 -2.79,-26.5 -17.08,-71.12 -39.39,-56.13 -9.76,6.98 -9.42,-91.68 -49.85,-130.72 -2.91,-2.8 -5.87,-5.54 -8.9,-8.21 -2.38,-2.09 -4.93,-3.98 -7.4,-5.97 0.14,-32.9 5.4,-90.58 64.37,-125.95 2.33,-1.4 4.56,-2.74 6.7,-4.02 1.4,0.44 2.99,0.51 5.09,-0.3 12.58,-4.87 61.49,-20.1 107.82,-35.15 2,15.22 -2.15,31.15 -16.72,46.74 -69.71,74.55 8.63,63.98 5.32,145.69 -2.1,51.98 -57.88,71.5 -40.18,127.13 28.14,88.5 -14.15,243.26 -80.82,269.28 -157.84,106.36 -310.38,49.35 -363.35,-94.49 -55.45,-150.57 39.92,-170.95 -29.16,-240.03 -22.75,-22.76 -30.79,-58.71 -21.7,-81.88 17.67,-45 60.33,-90.86 30.42,-119.25 -19.22,-18.25 -34.42,-34.97 -38.68,-53.1 12.34,4.08 24.8,8.16 36.7,12.04 v 0.04"
         style="fill:#754193;fill-opacity:1;fill-rule:nonzero;stroke:none"
         id="path1200" /><path
         d="m 4353.54,5523.35 c -7.27,-5.88 -14.8,-11.44 -22.88,-16.17 -9.22,-5.4 -18.98,-9.88 -29.15,-13.15 -9.25,-2.98 -18.81,-4.93 -28.47,-5.91 -12,-1.21 -24.32,-0.84 -36.24,1.05 -9.79,1.55 -19.4,4.17 -28.62,7.79 -10.35,4.06 -20.18,9.37 -29.43,15.54 -4.89,3.25 -9.55,6.82 -14.13,10.5 -0.17,-32.96 -5.59,-90.36 -64.35,-125.6 -2.33,-1.4 -4.55,-2.75 -6.68,-4.07 14.74,-5.18 -7.42,-80.26 50,-146.06 25.37,-29.09 75.21,-41.09 116.31,-40.82 41.1,0.26 91.98,14.15 114.64,40.82 56.03,65.96 34.88,141.27 50.07,146.11 -2.14,1.28 -4.37,2.62 -6.7,4.02 -58.97,35.37 -64.23,93.05 -64.37,125.95"
         style="fill:#eaccb0;fill-opacity:1;fill-rule:nonzero;stroke:none"
         id="path1202" /><path
         d="m 4208.18,5496.96 c 9.22,-3.62 18.83,-6.24 28.62,-7.79 11.92,-1.89 24.24,-2.26 36.24,-1.05 9.66,0.98 19.22,2.93 28.47,5.91 10.17,3.27 19.93,7.75 29.15,13.15 8.08,4.73 15.61,10.29 22.88,16.17 2.47,1.99 5.02,3.88 7.4,5.97 3.03,2.67 5.99,5.41 8.9,8.21 40.43,39.04 40.09,137.7 49.85,130.72 22.31,-14.99 36.6,29.63 39.39,56.13 1.96,18.64 -3.48,29.47 -10.74,30.49 l -0.54,-0.75 c -16.61,-4.84 -19.95,-21.22 -24.28,-17.73 -9.78,7.88 -79.18,30.98 -133.73,59.66 -64.89,34.11 -78.35,44.57 -115.3,48.75 L 4130,5805.97 c -36.95,-30.67 -40.9,-70.43 -45,-62.32 -5.07,10.03 -9.81,7.5 -13.26,11.3 -8.32,1.08 -15.07,-10.09 -12.91,-30.57 2.79,-26.5 17.08,-71.12 39.39,-56.13 9.76,6.98 9.41,-91.68 49.85,-130.72 5.28,-5.1 10.83,-9.92 16.55,-14.53 4.58,-3.68 9.24,-7.25 14.13,-10.5 9.25,-6.17 19.08,-11.48 29.43,-15.54"
         style="fill:#f2d4b6;fill-opacity:1;fill-rule:nonzero;stroke:none"
         id="path1204" /><path
         d="m 4027.96,5089.03 39.27,-0.21 -39.27,0.28 c 0,0 -2.87,201.68 -8.61,280.96 -11.9,-3.88 -24.36,-7.96 -36.7,-12.04 -46.51,-15.39 -91.02,-30.76 -94.37,-35.23 v -0.05 c 1.43,0.57 2.88,0.92 4.34,0.92 45.8,0.01 88.46,-249.89 91.36,-299.12 0.65,-10.93 2.35,-24.54 3.38,-42.02 14.09,-6.21 28.38,-12.03 42.95,-17.28 -1.34,67.18 -5.19,120 -2.35,123.79"
         style="fill:#c1d4f2;fill-opacity:1;fill-rule:nonzero;stroke:none"
         id="path1206" /><path
         d="m 4488.27,5089.1 -39.34,-0.28 c 0,0 2.69,254.72 10.56,294.1 l 37.39,-12.21 c -5.73,-79.25 -8.61,-281.61 -8.61,-281.61 z m 135.53,234.56 c 1.97,0.78 3.92,0.74 5.87,0.24 v 0.11 c -3.31,4.4 -46.47,19.08 -92.15,33.92 -46.33,15.05 -95.24,30.28 -107.82,35.15 -2.1,0.81 -3.69,0.74 -5.09,0.3 -15.19,-4.84 5.96,-80.15 -50.07,-146.11 -22.66,-26.67 -73.54,-40.56 -114.64,-40.82 -41.1,-0.27 -90.94,11.73 -116.31,40.82 -57.42,65.8 -35.26,140.88 -50,146.06 -1.4,0.49 -3.01,0.58 -5.17,-0.25 -5.2,-2.01 -16.68,-5.87 -31.57,-10.77 7.86,-39.42 10.45,-293.49 10.45,-293.49 l 190.91,-1.06 230.24,1.27 c 2.85,-3.79 -1,-56.6 -2.34,-123.79 14.84,5.35 29.4,11.29 43.74,17.64 0.65,17.44 1.94,30.65 2.58,41.66 2.9,49.23 41.77,279.41 91.37,299.12"
         style="fill:#c1d4f2;fill-opacity:1;fill-rule:nonzero;stroke:none"
         id="path1208" /><path
         d="m 4488.45,5089.03 -230.24,-1.27 -190.91,1.06 c 0,0 -2.59,254.07 -10.45,293.49 l -0.01,0.02 -37.49,-12.23 v -0.04 c 5.74,-79.28 8.61,-280.96 8.61,-280.96 l 39.27,-0.28 -39.27,0.21 c -2.84,-3.79 1.01,-56.61 2.35,-123.79 71.18,-25.64 147.89,-39.68 227.9,-39.68 80.01,0 156.72,14.04 227.9,39.68 1.34,67.19 5.19,120 2.34,123.79"
         style="fill:#000000;fill-opacity:1;fill-rule:nonzero;stroke:none"
         id="path1210" /><path
         d="m 4694.42,5086.45 c -16.92,121.52 -39.72,230.96 -64.75,237.45 -1.95,0.5 -3.9,0.54 -5.87,-0.24 -49.6,-19.71 -88.47,-249.89 -91.37,-299.12 -0.64,-11.01 -1.93,-24.22 -2.58,-41.66 59.99,26.52 115.33,61.54 164.57,103.57"
         style="fill:#9baec9;fill-opacity:1;fill-rule:nonzero;stroke:none"
         id="path1212" /><path
         d="m 3892.62,5323.66 c -1.46,0 -2.91,-0.35 -4.34,-0.92 -26.92,-10.53 -49.92,-117.39 -66.64,-235.98 49.54,-42.35 105.28,-77.6 165.72,-104.24 -1.03,17.48 -2.73,31.09 -3.38,42.02 -2.9,49.23 -45.56,299.13 -91.36,299.12"
         style="fill:#9baec9;fill-opacity:1;fill-rule:nonzero;stroke:none"
         id="path1214" /><path
         d="m 4496.88,5370.71 -37.39,12.21 c -7.87,-39.38 -10.56,-294.1 -10.56,-294.1 l 39.34,0.28 c 0,0 2.88,202.36 8.61,281.61"
         style="fill:#000000;fill-opacity:1;fill-rule:nonzero;stroke:none"
         id="path1216" /></g></g></svg>
