<?xml version="1.0" encoding="UTF-8" standalone="no"?>
<!-- Created with Inkscape (http://www.inkscape.org/) -->

<svg
   version="1.1"
   id="svg2"
   xml:space="preserve"
   width="114.96936"
   height="144.75452"
   viewBox="0 0 114.96936 144.75452"
   xmlns="http://www.w3.org/2000/svg"
   xmlns:svg="http://www.w3.org/2000/svg"><defs
     id="defs6" /><g
     id="g8"
     transform="matrix(1.3333333,0,0,-1.3333333,-709.66795,290.1145)"><g
       id="g10"
       transform="scale(0.1)"><path
         d="m 5642.06,1698.68 c -41.3,39.88 -40.95,140.66 -50.92,133.54 -22.79,-15.31 -37.39,30.27 -40.24,57.33 -1.75,16.62 2.25,27.25 8.22,30.41 3.25,0.65 5.92,0.53 8.17,-0.06 1.49,-0.73 3.01,-1.78 4.5,-3.28 1.65,-1.65 3.01,-2.67 4.23,-3.38 3.2,-4.65 4.63,-9.72 7.42,-8.99 19.86,5.24 63.79,44.33 113.06,83.54 62.23,49.51 99.18,63.18 136.92,67.45 0,0 3.05,-21.2 40.8,-52.54 37.75,-31.34 47.52,-98.45 55.35,-93.46 4.79,3.05 10.9,-1.28 14.94,10.97 9.4,3.39 17.63,-8.07 15.25,-30.66 -2.84,-27.06 -17.44,-72.64 -40.23,-57.33 -9.97,7.12 -9.62,-93.66 -50.93,-133.54 -2.96,-2.86 -5.99,-5.66 -9.08,-8.38 -3.13,-2.75 -6.45,-5.27 -9.72,-7.84 0.13,-18.2 2.02,-43.57 13.37,-68.63 h 94.35 c 0,0 118.34,54.03 57.76,103.45 -69.7,56.86 8.64,48.79 5.33,111.11 -2.1,39.65 -47.48,51.58 -40.18,96.97 10.94,68.08 -13.04,183.21 -96.88,202.74 -27.44,18.05 -54.65,30.48 -81.06,38.15 -0.98,0.3 -1.87,0.62 -2.89,0.93 -6.99,2.1 -14.09,3.59 -21.21,4.81 -1.15,0.21 -2.29,0.37 -3.43,0.56 -1.96,0.3 -3.91,0.69 -5.87,0.92 -98.06,14.21 -180.81,-36.66 -216.18,-107.64 -56.88,-114.15 23.27,-137.54 -45.81,-190.23 -22.75,-17.35 -30.79,-44.77 -21.7,-62.45 17.67,-34.32 58.34,-59.01 28.44,-80.67 -45.31,-32.81 -25.64,-76.76 39.41,-118.65 h 94.25 c 11.34,25.05 13.23,50.41 13.36,68.61 -6.51,5.12 -12.84,10.48 -18.8,16.24"
         style="fill:#3a3a3a;fill-opacity:1;fill-rule:nonzero;stroke:none"
         id="path2398" /><path
         d="m 5633.82,1588.53 c 0,0 -15.92,-39.38 8.9,-70.83 21.64,-27.42 55.02,-77.43 71.11,-103.55 l 0.01,0.01 c 0.77,-1.21 1.51,-2.49 2.26,-3.73 l 1,-1.64 1.49,-2.54 c 2,-3.42 3.37,-5.94 4.01,-7.41 17.93,-34.64 34.54,-71.28 34.54,-71.28 0,0 11.34,36.64 29.26,71.28 0.65,1.47 2.02,3.99 4.02,7.41 l 1.49,2.54 1,1.64 c 0.75,1.24 1.49,2.52 2.26,3.73 l 0.01,-0.01 c 16.08,26.12 49.47,76.13 71.11,103.55 24.82,31.45 8.9,70.83 8.9,70.83 l -7.97,14.15 2.3,-0.97 c -2.38,4.01 -4.51,8.06 -6.35,12.12 -11.35,25.06 -13.24,50.43 -13.37,68.63 -6.78,-5.35 -13.76,-10.42 -21.21,-14.79 -9.42,-5.51 -19.39,-10.09 -29.79,-13.43 -9.44,-3.03 -19.21,-5.03 -29.08,-6.03 -12.26,-1.24 -24.84,-0.86 -37.02,1.07 -10,1.58 -19.81,4.26 -29.23,7.96 -10.58,4.15 -20.62,9.57 -30.07,15.87 -4.33,2.89 -8.44,6.1 -12.54,9.33 -0.13,-18.2 -2.02,-43.56 -13.36,-68.61 -1.7,-3.75 -3.64,-7.48 -5.79,-11.18 l 0.07,0.03 -7.96,-14.15"
         style="fill:#f7ddcb;fill-opacity:1;fill-rule:nonzero;stroke:none"
         id="path2404" /><path
         d="m 5868.6,1698.68 c 41.31,39.88 40.96,140.66 50.93,133.54 22.79,-15.31 37.39,30.27 40.23,57.33 2.38,22.59 -5.85,34.05 -15.25,30.66 -4.04,-12.25 -10.15,-7.92 -14.94,-10.97 -7.83,-4.99 -17.6,62.12 -55.35,93.46 -37.75,31.34 -40.8,52.54 -40.8,52.54 -37.74,-4.27 -74.69,-17.94 -136.92,-67.45 -49.27,-39.21 -93.2,-78.3 -113.06,-83.54 -2.79,-0.73 -4.22,4.34 -7.42,8.99 -1.22,0.71 -2.58,1.73 -4.23,3.38 -1.49,1.5 -3.01,2.55 -4.5,3.28 -2.25,0.59 -4.92,0.71 -8.17,0.06 -5.97,-3.16 -9.97,-13.79 -8.22,-30.41 2.85,-27.06 17.45,-72.64 40.24,-57.33 9.97,7.12 9.62,-93.66 50.92,-133.54 5.96,-5.76 12.29,-11.12 18.8,-16.24 4.1,-3.23 8.21,-6.44 12.54,-9.33 9.45,-6.3 19.49,-11.72 30.07,-15.87 9.42,-3.7 19.23,-6.38 29.23,-7.96 12.18,-1.93 24.76,-2.31 37.02,-1.07 9.87,1 19.64,3 29.08,6.03 10.4,3.34 20.37,7.92 29.79,13.43 7.45,4.37 14.43,9.44 21.21,14.79 3.27,2.57 6.59,5.09 9.72,7.84 3.09,2.72 6.12,5.52 9.08,8.38"
         style="fill:#ffe6d4;fill-opacity:1;fill-rule:nonzero;stroke:none"
         id="path2408" /><path
         d="m 5812.63,1412.77 9.73,-4.4 c 15.1,-7.1 3.5,-8.05 3.5,-8.05 0,0 -13.53,-7.5 -33.25,-29.92 -26.12,-29.7 -35.47,-42.84 -35.47,-42.84 0,0 -14.62,13.14 -40.74,42.84 -19.72,22.42 -31.09,28.97 -31.09,28.97 0,0 -13.76,1.9 1.34,9 l 9.72,4.4 c -43.19,22.31 -68.02,8.67 -86.33,-3.82 26.29,-34.71 58.34,-88.25 80.59,-129.09 20.93,-38.41 55.53,-94.26 59.14,-119.76 0.29,-2 0.84,-4.9 1.49,-8.1 1.36,-0.4 2.71,-0.9 4.07,-1.2 l 1.22,0.4 c 0.73,3.5 1.35,6.7 1.66,8.9 3.61,25.5 38.21,81.35 59.14,119.76 22.36,41.02 54.59,94.86 80.94,129.54 -18.25,12.37 -42.99,25.41 -85.66,3.37"
         style="fill:#f4f4f4;fill-opacity:1;fill-rule:nonzero;stroke:none"
         id="path2414" /><path
         d="m 6075.35,1172 c 39.02,21.5 75.63,46.8 109.43,75.32 -25.42,107.8 -50.48,200.43 -58.28,208.86 -5.73,-24.34 -47.43,-169.29 -50.95,-193.39 -3.83,-26.19 2.11,-52.09 -0.2,-90.79"
         style="fill:#eaeaea;fill-opacity:1;fill-rule:nonzero;stroke:none"
         id="path2416" /><path
         d="m 5432.44,1262.79 c -3.53,24.13 -43.68,169.89 -49.05,193.95 l -0.6,0.1 c -6.34,0.55 -33.23,-98.36 -60.28,-213.43 34.11,-28.31 71.05,-53.21 110.35,-74.41 -2.81,40.4 3.51,66.94 -0.42,93.79"
         style="fill:#eaeaea;fill-opacity:1;fill-rule:nonzero;stroke:none"
         id="path2418" /><path
         d="m 5958.81,1534.45 c -4.4,1.77 -7.3,2.88 -9.21,3.38 -8.94,2.32 4.6,-9.48 -1.95,-39.2 -1.19,-5.43 -3.12,-18.36 -16.8,-42.23 2.63,-33.36 1.79,-62 -7.76,-60.7 -7.55,1.03 -15.31,7.28 -24.8,13.7 -26.35,-34.68 -58.58,-88.52 -80.94,-129.54 -20.93,-38.41 -55.53,-94.26 -59.14,-119.76 -0.31,-2.2 -0.93,-5.4 -1.66,-8.9 -0.74,-3.6 -1.6,-7.6 -2.56,-11.9 2.99,-13.4 6.53,-28.6 7.48,-35.6 0.64,-4.6 1.19,-9.1 1.75,-13.5 h 6.02 22.4 c 102.43,6 198.67,35 283.71,81.8 2.31,38.7 -3.63,64.6 0.2,90.79 3.52,24.1 45.22,169.05 50.95,193.39 0.5,2.12 0.76,3.42 0.67,3.55 -6.66,9.16 -143.39,64.73 -168.36,74.72"
         style="fill:#c10202;fill-opacity:1;fill-rule:nonzero;stroke:none"
         id="path2420" /><path
         d="m 5753.99,1139.3 c -1.03,4.7 -1.96,8.9 -2.73,12.7 -0.65,3.2 -1.2,6.1 -1.49,8.1 -3.61,25.5 -38.21,81.35 -59.14,119.76 -22.25,40.84 -54.3,94.38 -80.59,129.09 -9.18,-6.26 -16.76,-12.24 -24.12,-13.25 -9.4,-1.28 -10.37,26.44 -7.89,59.12 -14.53,24.9 -16.47,38.26 -17.7,43.81 -5.5,25.01 3.23,37.33 0.82,39.24 -1.07,0.84 -4.31,-0.35 -11.98,-3.42 -24.96,-9.99 -159.73,-65.1 -166.38,-74.25 -0.1,-0.13 0.14,-1.4 0.6,-3.46 5.37,-24.06 45.52,-169.82 49.05,-193.95 3.93,-26.85 -2.39,-53.39 0.42,-93.79 23.06,-12.4 46.99,-23.4 71.56,-33.1 v 46.7 h 144.88 v -49.5 h -137.72 c 62.58,-23.9 129.61,-38.8 199.55,-42.9 h 30.22 3.42 18.45 c -0.56,4.4 -1.11,8.9 -1.75,13.5 -0.95,7 -4.49,22.2 -7.48,35.6"
         style="fill:#d00700;fill-opacity:1;fill-rule:nonzero;stroke:none"
         id="path2422" /><path
         d="m 5592.24,1549.04 c -4.49,-15.79 -11.46,-58.04 -14.21,-94.22 -2.48,-32.68 -1.51,-60.4 7.89,-59.12 7.36,1.01 14.94,6.99 24.12,13.25 18.31,12.49 43.14,26.13 86.33,3.82 l -9.72,-4.4 c -15.1,-7.1 -1.34,-9 -1.34,-9 0,0 11.37,-6.55 31.09,-28.97 26.12,-29.7 40.74,-42.84 40.74,-42.84 0,0 -16.61,36.64 -34.54,71.28 -0.64,1.47 -2.01,3.99 -4.01,7.41 l -1.49,2.54 -1,1.64 c -0.75,1.24 -1.49,2.52 -2.26,3.73 l -0.01,-0.01 c -16.09,26.12 -49.47,76.13 -71.11,103.55 -24.82,31.45 -8.9,70.83 -8.9,70.83 l 7.96,14.15 -0.07,-0.03 c -14.47,-5.11 -36.46,-20.66 -46.71,-46.1 l -0.14,-0.38 c -0.93,-2.34 -1.91,-4.63 -2.62,-7.13"
         style="fill:#e0e0e0;fill-opacity:1;fill-rule:nonzero;stroke:none"
         id="path2424" /><path
         d="m 5875.19,1588.53 c 0,0 15.92,-39.38 -8.9,-70.83 -21.64,-27.42 -55.03,-77.43 -71.11,-103.55 l -0.01,0.01 c -0.77,-1.21 -1.51,-2.49 -2.26,-3.73 l -1,-1.64 -1.49,-2.54 c -2,-3.42 -3.37,-5.94 -4.02,-7.41 -17.92,-34.64 -29.26,-71.28 -29.26,-71.28 0,0 9.35,13.14 35.47,42.84 19.72,22.42 33.25,29.92 33.25,29.92 0,0 11.6,0.95 -3.5,8.05 l -9.73,4.4 c 42.67,22.04 67.41,9 85.66,-3.37 9.49,-6.42 17.25,-12.67 24.8,-13.7 9.55,-1.3 10.39,27.34 7.76,60.7 -2.83,35.82 -9.66,77.08 -14.08,92.64 -0.86,3 -1.99,5.8 -3.15,8.56 l -0.11,0.3 c -9.96,23.45 -29.81,38.11 -43.99,43.81 l -2.3,0.97 7.97,-14.15"
         style="fill:#e0e0e0;fill-opacity:1;fill-rule:nonzero;stroke:none"
         id="path2426" /><path
         d="m 5649.3,1182.6 h -144.88 v -46.7 c 2.39,-1 4.76,-1.9 7.16,-2.8 h 137.72 v 49.5"
         style="fill:#f5f5f5;fill-opacity:1;fill-rule:nonzero;stroke:none"
         id="path2428" /></g></g></svg>
