<?xml version="1.0" encoding="UTF-8" standalone="no"?>
<!-- Created with Inkscape (http://www.inkscape.org/) -->

<svg
   version="1.1"
   id="svg2"
   xml:space="preserve"
   width="120.17859"
   height="142.85156"
   viewBox="0 0 120.17859 142.85156"
   sodipodi:docname="2756.svg"
   xmlns:inkscape="http://www.inkscape.org/namespaces/inkscape"
   xmlns:sodipodi="http://sodipodi.sourceforge.net/DTD/sodipodi-0.dtd"
   xmlns="http://www.w3.org/2000/svg"
   xmlns:svg="http://www.w3.org/2000/svg"><defs
     id="defs6" /><sodipodi:namedview
     id="namedview4"
     pagecolor="#ffffff"
     bordercolor="#666666"
     borderopacity="1.0"
     inkscape:pageshadow="2"
     inkscape:pageopacity="0.0"
     inkscape:pagecheckerboard="0"
     inkscape:showpageshadow="2"
     inkscape:deskcolor="#d1d1d1"
     showgrid="false" /><g
     id="g8"
     inkscape:groupmode="layer"
     inkscape:label="ink_ext_XXXXXX"
     transform="matrix(1.3333333,0,0,-1.3333333,-1106.3987,799.5929)"><g
       id="g10"
       transform="scale(0.1)"><path
         d="m 8456.78,5014.22 c -0.61,11.74 -1.04,37.19 4.07,63.36 -0.1,4.42 -0.2,8.87 -0.31,13.54 -7.58,73.91 -24.27,201.8 -74.9,219.49 -25.37,-26.89 -53.44,-94.93 -72.84,-169.64 -3.81,-14.67 -8.97,-31.54 -14.81,-49.29 49.16,-42.98 104.62,-78.88 164.84,-106.2 -0.28,7.3 -0.5,15.18 -0.69,23.69 -2.83,0.03 -5.21,2.16 -5.36,5.05"
         style="fill:#3493a9;fill-opacity:1;fill-rule:nonzero;stroke:none"
         id="path1322" /><path
         d="m 9117.93,5307.96 c -50.64,-17.69 -65.08,-137.17 -72.66,-211.08 0,-34.63 0.39,-67.21 -1.3,-98.77 56.93,28.89 109.18,65.58 155.36,108.76 -3.82,12.15 -7.22,23.69 -9.92,34.1 -21.43,82.48 -53.39,156.66 -80.64,176.48 2.4,-2.63 7.75,-5.72 9.16,-9.49"
         style="fill:#3493a9;fill-opacity:1;fill-rule:nonzero;stroke:none"
         id="path1324" /><path
         d="m 8632.18,5421.88 c -5.48,-7.24 -15.42,-17.86 -21.5,-23.72 -6.78,-5.68 -14.55,-13.96 -22.41,-25.12 11.41,-17.09 35.86,-52.55 65.46,-88.62 43.61,-53.14 95.83,-85.73 98.29,-87.25 1.97,1.22 36.06,22.58 71.97,58.54 l 2.04,2.06 0.1,0.11 c 3.64,3.75 6.94,7.35 9.76,10.66 30.5,35.91 51.92,64.61 65.74,84.38 l 1.04,1.49 c 6.7,9.64 11.53,17.03 14.64,21.96 -6.03,5.93 -12.69,11.42 -20.16,16.29 -2.93,4.16 -7.03,7.51 -10.12,10.86 -6.31,6.83 -8.3,8.06 -16.17,18.38 l -0.66,0.85 0.93,0.57 c -22.62,31.49 -25.44,67.26 -25.53,90.61 -7.28,-5.88 -14.81,-11.45 -22.88,-16.18 -9.22,-5.39 -18.98,-9.88 -29.16,-13.15 -9.25,-2.97 -18.8,-4.92 -28.47,-5.9 -12,-1.22 -24.32,-0.85 -36.24,1.04 -9.79,1.56 -19.39,4.17 -28.62,7.8 -10.35,4.06 -20.18,9.37 -29.43,15.53 -4.88,3.26 -9.55,6.83 -14.12,10.51 -0.12,-23.05 -2.89,-57.98 -24.58,-89.01 l 1.66,-0.39 -1.58,-2.3"
         style="fill:#7a5f56;fill-opacity:1;fill-rule:nonzero;stroke:none"
         id="path1326" /><path
         d="m 8700.23,5487.54 c 9.23,-3.63 18.83,-6.24 28.62,-7.8 11.92,-1.89 24.24,-2.26 36.24,-1.04 9.67,0.98 19.22,2.93 28.47,5.9 10.18,3.27 19.94,7.76 29.16,13.15 8.07,4.73 15.6,10.3 22.88,16.18 2.46,1.99 5.01,3.88 7.39,5.97 3.04,2.67 6,5.41 8.9,8.21 40.44,39.04 40.09,137.69 49.85,130.72 22.31,-14.99 36.6,29.63 39.39,56.12 1.52,14.41 -1.43,24.07 -6.16,28.29 l -1.05,-1.09 c -18.81,3.89 -18.99,-17.13 -24.48,-15.68 -19.86,5.24 -63.79,44.33 -113.07,83.53 -62.23,49.51 -99.17,63.18 -136.92,67.45 0,0 -3.04,-21.2 -40.79,-52.54 -37.75,-31.33 -44.24,-96.82 -52.07,-91.84 -5,3.19 -12.79,-2.33 -17.76,11.57 -5.78,-3.16 -9.65,-13.52 -7.94,-29.69 2.78,-26.49 17.08,-71.11 39.38,-56.12 9.77,6.97 9.42,-91.68 49.86,-130.72 5.28,-5.1 10.83,-9.93 16.55,-14.53 4.57,-3.68 9.24,-7.25 14.12,-10.51 9.25,-6.16 19.08,-11.47 29.43,-15.53"
         style="fill:#866a5e;fill-opacity:1;fill-rule:nonzero;stroke:none"
         id="path1328" /><path
         d="m 8623.73,5022.22 v 0 l -1.98,-0.16 c -2.79,-0.23 -5.21,1.82 -5.51,4.61 -4.84,45.26 -27.57,114.52 -85.41,109.81 -56.69,-4.61 -55.85,-97.57 -54.73,-121.06 0.14,-2.92 -2.07,-5.38 -4.98,-5.62 l -2.2,-0.18 c 0.27,-3.39 0.83,-12.65 1.67,-27.64 51.19,-22.44 105.67,-38.73 162.57,-47.84 -5.7,51.56 -8.89,81.37 -9.43,88.08"
         style="fill:#4ea5b8;fill-opacity:1;fill-rule:nonzero;stroke:none"
         id="path1330" /><path
         d="m 8978.64,5119.53 c -2.14,-16.77 -3.99,-31.25 -3.99,-39.9 0,-0.91 -0.28,-1.73 -0.52,-2.57 10.66,-5.41 18.04,-16.35 18.04,-29.13 0,-18.09 -14.67,-32.76 -32.77,-32.76 -18.1,0 -32.78,14.67 -32.78,32.76 0,16.72 12.56,30.35 28.72,32.37 0.07,9.85 1.85,23.9 4.11,41.67 7.47,58.58 18.65,152.81 -16.44,219.49 -16.78,-25.09 -42.03,-61.66 -64.37,-89.15 -44.21,-54.41 -119.11,-99.14 -126.39,-100.6 v -0.14 l -0.23,0.07 -0.24,-0.07 v 0.14 c -7.29,1.46 -82.38,46.19 -126.7,100.6 -19.92,24.46 -42.15,56.1 -58.68,80.47 -16.55,-39.31 -29.26,-96.27 -27.47,-176.8 l -0.02,-0.07 c 58.05,-1.71 89.99,-63.03 96.61,-127.49 0.29,-2.86 -1.87,-5.39 -4.73,-5.63 l -0.64,-0.05 c 0.55,-6.73 3.81,-37.08 9.61,-89.68 32.79,-4.91 66.33,-7.5 100.48,-7.5 109.33,0 212.47,26.26 303.73,72.55 1.69,31.56 1.3,64.14 1.3,98.77 7.58,73.91 22.02,193.39 72.66,211.08 -1.41,3.77 -6.76,6.86 -9.16,9.49 l -0.59,0.58 c -4.95,6.59 -91.87,34.34 -146.35,52.1 -0.05,-0.08 -2.29,-3.59 -6.03,-9.33 44.34,-72.09 31.05,-176.88 22.84,-241.27"
         style="fill:#4ea5b8;fill-opacity:1;fill-rule:nonzero;stroke:none"
         id="path1332" /><path
         d="m 8460.54,5091.12 c 0.11,-4.67 0.21,-9.12 0.31,-13.54 0.63,3.25 1.31,6.5 2.12,9.74 11.6,46.17 35.76,62.33 56.9,67.02 l -0.28,1.21 c -2.07,93.83 14.12,155.35 34.57,195.49 -7.7,11.62 -12.5,19.12 -12.5,19.12 l 30.91,10.53 0.1,0.14 c -39.44,-13.8 -170.13,-54.78 -177.99,-61.36 -4.54,-3.8 -7.54,-4.82 -9.04,-8.86 v 0 c 50.63,-17.69 67.32,-145.58 74.9,-219.49"
         style="fill:#4ea5b8;fill-opacity:1;fill-rule:nonzero;stroke:none"
         id="path1334" /><path
         d="m 8751.78,5151.71 v -0.14 l 0.24,0.07 0.23,-0.07 v 0.14 c 7.28,1.46 82.18,46.19 126.39,100.6 22.34,27.49 47.59,64.06 64.37,89.15 -6.7,12.74 -15.1,24.48 -25.54,34.76 -3.37,-5.11 -8.41,-12.62 -14.8,-21.81 l -1.04,-1.49 c -12.94,-18.56 -31.03,-43.4 -51.57,-68.5 -7.81,-9.54 -15.9,-18.39 -23.93,-26.54 l -0.1,-0.11 -2.04,-2.06 c -35.91,-35.96 -70,-57.32 -71.97,-58.54 -2.46,1.52 -54.68,34.11 -98.29,87.25 -29.6,36.07 -54.05,71.53 -65.46,88.62 -7.47,-10.58 -14.98,-23.91 -21.87,-40.26 16.53,-24.37 38.76,-56.01 58.68,-80.47 44.32,-54.41 119.41,-99.14 126.7,-100.6"
         style="fill:#3493a9;fill-opacity:1;fill-rule:nonzero;stroke:none"
         id="path1348" /><path
         d="m 8576.59,5733.07 c 7.83,-4.98 14.32,60.51 52.07,91.84 37.75,31.34 40.79,52.54 40.79,52.54 37.75,-4.27 74.69,-17.94 136.92,-67.45 49.28,-39.2 93.21,-78.29 113.07,-83.53 5.49,-1.45 5.67,19.57 24.48,15.68 l 1.05,1.09 c 4.87,10.75 8.32,100.12 -28.38,161.28 -45.45,75.75 -134.47,108.49 -213.32,84.88 -49.35,-14.78 -52.21,-36.35 -74.41,-42.16 -46.15,-12.1 -74.78,-84.74 -74.78,-155.25 0,-25.48 1.93,-39.49 4.75,-47.35 4.97,-13.9 12.76,-8.38 17.76,-11.57"
         style="fill:#534d46;fill-opacity:1;fill-rule:nonzero;stroke:none"
         id="path1350" /><path
         d="m 8554.16,5351.04 c -20.45,-40.14 -36.64,-101.66 -34.57,-195.49 l 0.28,-1.21 c -21.14,-4.69 -45.3,-20.85 -56.9,-67.02 -0.81,-3.24 -1.49,-6.49 -2.12,-9.74 -5.11,-26.17 -4.68,-51.62 -4.07,-63.36 0.15,-2.89 2.53,-5.02 5.36,-5.05 l 0.36,-0.04 0.14,-0.02 6.28,0.51 2.2,0.18 c 2.91,0.24 5.12,2.7 4.98,5.62 -1.12,23.49 -1.96,116.45 54.73,121.06 57.84,4.71 80.57,-64.55 85.41,-109.81 0.3,-2.79 2.72,-4.84 5.51,-4.61 l 1.98,0.16 6.42,0.52 0.64,0.05 c 2.86,0.24 5.02,2.77 4.73,5.63 -6.62,64.46 -38.56,125.78 -96.61,127.49 l 0.02,0.07 c -1.79,80.53 10.92,137.49 27.47,176.8 6.89,16.35 14.4,29.68 21.87,40.26 7.86,11.16 15.63,19.44 22.41,25.12 6.08,5.86 16.02,16.48 21.5,23.72 l 1.58,2.3 -1.66,0.39 c -2.37,0.23 -5.43,-0.8 -7.58,-1.61 -8.03,-3.02 -30.03,-13.4 -51.85,-42.13 l -0.1,-0.14 c -6.27,-8.28 -12.51,-18.09 -18.41,-29.65"
         style="fill:#000000;fill-opacity:1;fill-rule:nonzero;stroke:none"
         id="path1352" /><path
         d="m 8462.64,5009.11 -0.14,0.02 -0.01,-0.03 c 0.25,-3.08 0.75,-11.32 1.47,-24.13 2.21,-1 4.41,-2.02 6.63,-2.99 -0.84,14.99 -1.4,24.25 -1.67,27.64 l -6.28,-0.51"
         style="fill:#e5e5e5;fill-opacity:1;fill-rule:nonzero;stroke:none"
         id="path1354" /><path
         d="m 8623.73,5022.22 v 0 c 0.54,-6.71 3.73,-36.52 9.43,-88.08 2.2,-0.35 4.39,-0.75 6.6,-1.08 -5.8,52.6 -9.06,82.95 -9.61,89.68 l -6.42,-0.52"
         style="fill:#e5e5e5;fill-opacity:1;fill-rule:nonzero;stroke:none"
         id="path1356" /><path
         d="m 8870.86,5421.9 c 7.87,-10.32 9.86,-11.55 16.17,-18.38 3.09,-3.35 7.19,-6.7 10.12,-10.86 7.47,-4.87 14.13,-10.36 20.16,-16.29 l 0.16,-0.15 c 10.44,-10.28 18.84,-22.02 25.54,-34.76 35.09,-66.68 23.91,-160.91 16.44,-219.49 -2.26,-17.77 -4.04,-31.82 -4.11,-41.67 1.35,0.17 2.67,0.41 4.06,0.41 5.33,0 10.29,-1.39 14.73,-3.65 0.24,0.84 0.52,1.66 0.52,2.57 0,8.65 1.85,23.13 3.99,39.9 8.21,64.39 21.5,169.18 -22.84,241.27 -3.16,5.15 -6.55,10.17 -10.33,14.95 -15.87,20.13 -37.35,36.84 -66.13,48.14 -2.97,1.17 -5.78,0.94 -8.21,-0.57 l -0.93,-0.57 0.66,-0.85"
         style="fill:#000000;fill-opacity:1;fill-rule:nonzero;stroke:none"
         id="path1358" /><path
         d="m 8959.4,5070.77 c 12.61,0 22.83,-10.22 22.83,-22.84 0,-12.6 -10.22,-22.83 -22.83,-22.83 -12.61,0 -22.84,10.23 -22.84,22.83 0,12.62 10.23,22.84 22.84,22.84 z m -32.78,-22.84 c 0,-18.09 14.68,-32.76 32.78,-32.76 18.1,0 32.77,14.67 32.77,32.76 0,12.78 -7.38,23.72 -18.04,29.13 -4.44,2.26 -9.4,3.65 -14.73,3.65 -1.39,0 -2.71,-0.24 -4.06,-0.41 -16.16,-2.02 -28.72,-15.65 -28.72,-32.37"
         style="fill:#a3a3a3;fill-opacity:1;fill-rule:nonzero;stroke:none"
         id="path1360" /><path
         d="m 8959.4,5025.1 c 12.61,0 22.83,10.23 22.83,22.83 0,12.62 -10.22,22.84 -22.83,22.84 -12.61,0 -22.84,-10.22 -22.84,-22.84 0,-12.6 10.23,-22.83 22.84,-22.83"
         style="fill:#ffffff;fill-opacity:1;fill-rule:nonzero;stroke:none"
         id="path1362" /></g></g></svg>
