<?xml version="1.0" encoding="UTF-8" standalone="no"?>
<!-- Created with Inkscape (http://www.inkscape.org/) -->

<svg
   version="1.1"
   id="svg2"
   xml:space="preserve"
   width="119.93201"
   height="144.60254"
   viewBox="0 0 119.93201 144.60254"
   sodipodi:docname="2756.svg"
   xmlns:inkscape="http://www.inkscape.org/namespaces/inkscape"
   xmlns:sodipodi="http://sodipodi.sourceforge.net/DTD/sodipodi-0.dtd"
   xmlns="http://www.w3.org/2000/svg"
   xmlns:svg="http://www.w3.org/2000/svg"><defs
     id="defs6" /><sodipodi:namedview
     id="namedview4"
     pagecolor="#ffffff"
     bordercolor="#666666"
     borderopacity="1.0"
     inkscape:pageshadow="2"
     inkscape:pageopacity="0.0"
     inkscape:pagecheckerboard="0"
     inkscape:showpageshadow="2"
     inkscape:deskcolor="#d1d1d1"
     showgrid="false" /><g
     id="g8"
     inkscape:groupmode="layer"
     inkscape:label="ink_ext_XXXXXX"
     transform="matrix(1.3333333,0,0,-1.3333333,-707.76128,545.3772)"><g
       id="g10"
       transform="scale(0.1)"><path
         d="m 5575.44,3457.35 c 16.56,14.06 26.13,10.35 26.13,10.35 0,0 -1.65,-0.7 -3.8,-2.68 l 1.38,0.83 c 58.4,35.03 64.11,91.92 64.35,124.97 -6.52,5.13 -12.84,10.49 -18.8,16.25 -41.31,39.88 -40.95,140.65 -50.92,133.54 -22.79,-15.32 -37.39,30.26 -40.24,57.32 -1.75,16.62 2.25,27.26 8.22,30.41 3.24,0.65 5.91,0.54 8.16,-0.06 1.5,-0.73 3.01,-1.78 4.51,-3.28 1.65,-1.65 3.01,-2.67 4.23,-3.37 3.19,-4.66 4.62,-9.73 7.41,-8.99 19.86,5.24 63.8,44.33 113.07,83.53 62.23,49.51 99.17,63.19 136.92,67.46 0,0 3.05,-21.21 40.79,-52.55 37.75,-31.33 47.52,-98.44 55.35,-93.46 4.8,3.05 10.91,-1.27 14.94,10.97 9.41,3.39 17.64,-8.06 15.26,-30.66 -2.85,-27.06 -17.45,-72.64 -40.24,-57.32 -9.97,7.11 -9.61,-93.66 -50.92,-133.54 -2.97,-2.87 -5.99,-5.66 -9.09,-8.38 -3.12,-2.75 -6.44,-5.27 -9.71,-7.85 0.23,-33.05 5.94,-89.95 64.35,-124.99 l 1.35,-0.81 c -2.14,1.97 -3.77,2.66 -3.77,2.66 0,0 9.56,3.71 26.12,-10.35 4.81,-4.07 14.1,-10.18 23.55,-18.88 10.37,-3.97 33.43,-12.15 60.07,-21.68 14.37,23.1 19.15,50.29 -5.36,76.5 -69.7,74.55 8.64,63.99 5.33,145.69 -2.1,51.98 -57.88,71.5 -40.19,127.13 28.15,88.5 -14.14,243.27 -80.81,269.29 -157.84,106.36 -310.38,49.34 -363.35,-94.49 -55.46,-150.58 39.92,-170.96 -29.16,-240.04 -22.75,-22.75 -30.79,-58.7 -21.7,-81.87 17.67,-45 60.32,-90.86 30.42,-119.26 -29.78,-28.27 -50,-52.87 -34.66,-84.74 29.46,10.57 56.07,19.97 68.61,24.7 8.99,8.04 17.63,13.77 22.2,17.65"
         style="fill:#866a5e;fill-opacity:1;fill-rule:nonzero;stroke:none"
         id="path1712" /><path
         d="m 5615.88,3363.69 c 9.39,-13.32 24.4,-37.58 41.22,-66.96 35.93,-18.83 72.59,-30.47 100.87,-30.47 27.98,0 64.86,11.8 101.1,30.87 16.72,29.2 31.64,53.29 40.99,66.56 37.74,53.52 28.62,74.53 27.48,81.31 -1.92,11.29 -6.23,17.12 -9.4,20.04 l -1.35,0.81 c -58.41,35.04 -64.12,91.94 -64.35,124.99 -6.79,-5.34 -13.77,-10.42 -21.22,-14.78 -9.42,-5.52 -19.39,-10.09 -29.78,-13.44 -9.45,-3.03 -19.21,-5.03 -29.08,-6.02 -12.26,-1.24 -24.85,-0.87 -37.03,1.06 -9.99,1.59 -19.81,4.26 -29.23,7.96 -10.57,4.16 -20.62,9.58 -30.06,15.87 -4.34,2.89 -8.45,6.11 -12.54,9.33 -0.24,-33.05 -5.95,-89.94 -64.35,-124.97 l -1.38,-0.83 c -3.17,-2.94 -7.46,-8.77 -9.37,-20.02 -1.15,-6.78 -10.26,-27.79 27.48,-81.31"
         style="fill:#f7ddcb;fill-opacity:1;fill-rule:nonzero;stroke:none"
         id="path1716" /><path
         d="m 5706.1,3565.62 c 9.42,-3.7 19.24,-6.37 29.23,-7.96 12.18,-1.93 24.77,-2.3 37.03,-1.06 9.87,0.99 19.63,2.99 29.08,6.02 10.39,3.35 20.36,7.92 29.78,13.44 7.45,4.36 14.43,9.44 21.22,14.78 3.27,2.58 6.59,5.1 9.71,7.85 3.1,2.72 6.12,5.51 9.09,8.38 41.31,39.88 40.95,140.65 50.92,133.54 22.79,-15.32 37.39,30.26 40.24,57.32 2.38,22.6 -5.85,34.05 -15.26,30.66 -4.03,-12.24 -10.14,-7.92 -14.94,-10.97 -7.83,-4.98 -17.6,62.13 -55.35,93.46 -37.74,31.34 -40.79,52.55 -40.79,52.55 -37.75,-4.27 -74.69,-17.95 -136.92,-67.46 -49.27,-39.2 -93.21,-78.29 -113.07,-83.53 -2.79,-0.74 -4.22,4.33 -7.41,8.99 -1.22,0.7 -2.58,1.72 -4.23,3.37 -1.5,1.5 -3.01,2.55 -4.51,3.28 -2.25,0.6 -4.92,0.71 -8.16,0.06 -5.97,-3.15 -9.97,-13.79 -8.22,-30.41 2.85,-27.06 17.45,-72.64 40.24,-57.32 9.97,7.11 9.61,-93.66 50.92,-133.54 5.96,-5.76 12.28,-11.12 18.8,-16.25 4.09,-3.22 8.2,-6.44 12.54,-9.33 9.44,-6.29 19.49,-11.71 30.06,-15.87"
         style="fill:#ffe6d4;fill-opacity:1;fill-rule:nonzero;stroke:none"
         id="path1718"
         inkscape:export-filename="officeLady.svg"
         inkscape:export-xdpi="98.400002"
         inkscape:export-ydpi="98.400002" /><path
         d="m 5657.1,3296.73 c 41.91,-73.23 95.1,-178.47 100.87,-226.73 5.78,48.35 59.15,153.88 101.1,227.13 -36.24,-19.07 -73.12,-30.87 -101.1,-30.87 -28.28,0 -64.94,11.64 -100.87,30.47"
         style="fill:#f5f5f5;fill-opacity:1;fill-rule:nonzero;stroke:none"
         id="path1722" /><path
         d="m 6150.25,3367.15 1.64,0.11 c -12.99,8.17 -76.85,31.31 -127.78,49.53 -26.64,9.53 -49.7,17.71 -60.07,21.68 7.07,-6.5 14.22,-14.4 19.7,-24.19 19.07,-34.13 20.1,-55.06 33.58,-65.09 12.58,-9.36 -89.77,-16.78 -103.57,-17.73 l -0.6,-0.84 73.76,-55.67 c 0,0 -83.71,-95.73 -140.32,-136.99 -17.53,-12.77 -34.8,-36.39 -49.25,-52.56 -16.65,-18.64 -18.69,-29.14 -32.17,-51.25 v 0 c 2.14,-9.56 4.1,-18.57 4.77,-23.46 0.21,-1.51 0.39,-2.95 0.57,-4.4 103.91,2.91 201.87,29.34 288.83,74.23 1.58,64.69 -0.68,246.11 90.91,286.63"
         style="fill:#1a2830;fill-opacity:1;fill-rule:nonzero;stroke:none"
         id="path1724" /><path
         d="m 5765.17,3034.15 c -15.77,13.75 -29.93,32.61 -46.58,51.25 -14.44,16.17 -31.71,39.79 -49.24,52.56 -56.61,41.26 -140.32,136.99 -140.32,136.99 l 74.72,56.4 c 0,0 -118.61,7.81 -105.13,17.84 13.47,10.03 14.51,30.96 33.58,65.09 5.82,10.42 13.55,18.71 21.04,25.42 -12.54,-4.73 -39.15,-14.13 -68.61,-24.7 -53.27,-19.11 -115.59,-41.95 -119.68,-47.57 l -1.41,-2.39 c 1.71,1.88 3.29,2.72 4.67,2.11 95.79,-42.38 88.92,-238.92 91.16,-294.79 88.32,-42.64 187.37,-66.55 292.02,-66.55 6.41,0 12.75,0.3 19.12,0.48 -0.18,1.45 -0.36,2.89 -0.57,4.4 -0.67,4.89 -2.63,13.9 -4.77,23.46"
         style="fill:#24353f;fill-opacity:1;fill-rule:nonzero;stroke:none"
         id="path1726" /><path
         d="m 5914.37,3467.7 c 0,0 1.63,-0.69 3.77,-2.66 3.17,-2.92 7.48,-8.75 9.4,-20.04 1.14,-6.78 10.26,-27.79 -27.48,-81.31 -9.35,-13.27 -24.27,-37.36 -40.99,-66.56 -41.95,-73.25 -95.32,-178.78 -101.1,-227.13 -5.77,48.26 -58.96,153.5 -100.87,226.73 -16.82,29.38 -31.83,53.64 -41.22,66.96 -37.74,53.52 -28.63,74.53 -27.48,81.31 1.91,11.25 6.2,17.08 9.37,20.02 2.15,1.98 3.8,2.68 3.8,2.68 0,0 -9.57,3.71 -26.13,-10.35 -4.57,-3.88 -13.21,-9.61 -22.2,-17.65 -7.49,-6.71 -15.22,-15 -21.04,-25.42 -19.07,-34.13 -20.11,-55.06 -33.58,-65.09 -13.48,-10.03 105.13,-17.84 105.13,-17.84 l -74.72,-56.4 c 0,0 83.71,-95.73 140.32,-136.99 17.53,-12.77 34.8,-36.39 49.24,-52.56 16.65,-18.64 30.81,-37.5 46.58,-51.25 v 0 c 13.48,22.11 15.52,32.61 32.17,51.25 14.45,16.17 31.72,39.79 49.25,52.56 56.61,41.26 140.32,136.99 140.32,136.99 l -73.76,55.67 -0.76,0.58 -0.2,0.15 0.44,0.03 1.12,0.08 c 13.8,0.95 116.15,8.37 103.57,17.73 -13.48,10.03 -14.51,30.96 -33.58,65.09 -5.48,9.79 -12.63,17.69 -19.7,24.19 -9.45,8.7 -18.74,14.81 -23.55,18.88 -16.56,14.06 -26.12,10.35 -26.12,10.35"
         style="fill:#132026;fill-opacity:1;fill-rule:nonzero;stroke:none"
         id="path1728" /><path
         d="m 6151.89,3367.26 -1.64,-0.11 c -91.59,-40.52 -89.33,-221.94 -90.91,-286.63 54.15,27.96 104.03,62.96 148.36,103.95 -21.77,99.5 -43.97,179.96 -55.81,182.79"
         style="fill:#132026;fill-opacity:1;fill-rule:nonzero;stroke:none"
         id="path1730" /><path
         d="m 5368.21,3367.15 c -1.38,0.61 -2.96,-0.23 -4.67,-2.11 -12.87,-14.18 -34.49,-95.46 -55.33,-192.32 45.42,-39.85 96.15,-73.8 151.16,-100.36 -2.24,55.87 4.63,252.41 -91.16,294.79"
         style="fill:#132026;fill-opacity:1;fill-rule:nonzero;stroke:none"
         id="path1732" /></g></g></svg>
