<?xml version="1.0" encoding="UTF-8" standalone="no"?>
<!-- Created with Inkscape (http://www.inkscape.org/) -->

<svg
   version="1.1"
   id="svg2"
   xml:space="preserve"
   width="142.26454"
   height="152.6069"
   viewBox="0 0 142.26454 152.6069"
   xmlns="http://www.w3.org/2000/svg"
   xmlns:svg="http://www.w3.org/2000/svg"><defs
     id="defs6" /><g
     id="g8"
     transform="matrix(1.3333333,0,0,-1.3333333,-97.899465,1064.9856)"><g
       id="g10"
       transform="scale(0.1)"><path
         d="m 1732.2,7220.24 c -7.43,-11.54 -83.69,-181.05 -100.21,-258.42 -1.03,-4.8 -2,-9.37 -2.97,-13.95 66.19,42.21 124.48,95.62 172.21,157.65 -25.03,52.77 -47.18,93.6 -69.03,114.72"
         style="fill:#0c387d;fill-opacity:1;fill-rule:nonzero;stroke:none"
         id="path588" /><path
         d="m 1269.72,7318.3 c 64.07,0 107.02,35.03 129.01,64.2 1.99,16.95 0.19,33.39 -7.14,47.19 l -7.17,23.77 c -2.75,-3.53 -5.72,-6.93 -9.16,-10.04 -42.51,-38.4 -58.86,-53.05 -105.54,-53.24 -46.68,0.19 -63.04,14.84 -105.55,53.24 -3.35,3.03 -6.26,6.33 -8.95,9.76 l -7.09,-23.49 c -7.39,-13.92 -9.16,-30.52 -7.1,-47.62 22.1,-29.08 64.93,-63.77 128.69,-63.77"
         style="fill:#c69a81;fill-opacity:1;fill-rule:nonzero;stroke:none"
         id="path590" /><path
         d="m 1155.56,7454.32 -0.34,-1.14 c 2.69,-3.43 5.6,-6.73 8.95,-9.76 42.51,-38.4 58.87,-53.05 105.55,-53.24 46.68,0.19 63.03,14.84 105.54,53.24 3.44,3.11 6.41,6.51 9.16,10.04 l -0.26,0.86 0.74,-0.18 0.28,0.39 c 33.68,44.83 16.8,118.02 41.4,117.06 37.89,-1.49 54.32,31.33 45.41,73.78 -5.56,26.51 -25.46,24.42 -36.3,16.44 -3.09,-8.81 -6.12,-15.42 -8.2,-14.79 -5.99,1.81 -3.39,53.93 5.98,114.95 9.98,64.97 -69.85,36.65 -125.74,38.45 -55.89,1.81 -189.62,13.88 -199.6,-16.8 -9.98,-30.68 13.97,-124.53 5.99,-128.13 -1.09,-0.5 -2.22,-0.01 -3.38,1.12 0.38,-3.28 0.3,-4.35 -0.46,-2.44 -4.9,12.19 -35.7,25.21 -42.84,-8.8 -8.9,-42.45 7.53,-75.27 45.42,-73.78 24.67,0.97 7.6,-72.69 41.7,-117.48 l 0.02,-0.03 0.98,0.24"
         style="fill:#d1a385;fill-opacity:1;fill-rule:nonzero;stroke:none"
         id="path596" /><path
         d="m 1114.12,7655.49 c 7.98,3.6 -15.97,97.45 -5.99,128.13 9.98,30.68 143.71,18.61 199.6,16.8 55.89,-1.8 135.72,26.52 125.74,-38.45 -9.37,-61.02 -11.97,-113.14 -5.98,-114.95 2.08,-0.63 5.11,5.98 8.2,14.79 5.8,16.59 11.76,41.16 11.76,41.16 27.94,16.24 17.96,133.55 17.96,151.6 0,18.04 -27.94,48.72 -39.92,48.72 -11.97,0 -2,50.54 -83.83,72.2 -81.84,21.65 -153.69,10.82 -193.61,-9.03 -39.92,-19.85 -69.86,-54.14 -87.82,-59.56 -17.97,-5.41 5.99,-18.04 -7.99,-30.68 -13.97,-12.63 9.98,-28.87 13.98,-54.14 3.99,-25.27 13.97,-106.48 21.95,-115.5 6.89,-7.79 15.27,-42.84 22.57,-49.97 1.16,-1.13 2.29,-1.62 3.38,-1.12"
         style="fill:#534d46;fill-opacity:1;fill-rule:nonzero;stroke:none"
         id="path598" /><path
         d="m 1357.54,7295.77 c 7.97,8.47 15.42,18.72 21.78,29.94 -53.2,-38.35 -109.6,-34.84 -109.6,-34.84 0,0 -56.26,-3.15 -109.28,34.75 6.35,-11.18 13.79,-21.4 21.74,-29.85 61.08,-83.89 86.92,-185.93 86.93,-185.94 0,0.01 27.35,102.05 88.43,185.94"
         style="fill:#ffffff;fill-opacity:1;fill-rule:nonzero;stroke:none"
         id="path602" /><path
         d="m 1269.72,7290.87 c 0,0 56.4,-3.51 109.6,34.84 9.97,17.57 17.15,37.51 19.41,56.79 -21.99,-29.17 -64.94,-64.2 -129.01,-64.2 -63.76,0 -106.59,34.69 -128.69,63.77 2.32,-19.18 9.49,-38.98 19.41,-56.45 53.02,-37.9 109.28,-34.75 109.28,-34.75"
         style="fill:#eaeaea;fill-opacity:1;fill-rule:nonzero;stroke:none"
         id="path606" /><path
         d="m 803.508,7220.84 v 0 c -21.938,-20.83 -44.156,-61.62 -69.262,-114.51 47.848,-62.39 106.387,-116.08 172.879,-158.48 -0.988,4.59 -1.973,9.17 -3,13.97 -16.848,78.86 -95.805,253.56 -100.617,259.02"
         style="fill:#0c387d;fill-opacity:1;fill-rule:nonzero;stroke:none"
         id="path608" /><path
         d="m 1609.93,6952.75 h -301.78 v 15.33 h 301.78 z m 122.27,267.49 0.4,0.6 c 4.82,5.47 -50.08,35.11 -119.87,66.39 -43.81,19.64 -80.98,46.23 -117.32,66.04 6.37,-12.85 12.73,-27.38 19.01,-43.94 0,0 -105.88,-19.04 -117.3,-22.56 -11.43,-3.51 -1.56,-14.15 -16.25,-29.77 -66.77,-71.04 -96.46,-133.96 -110.14,-145.83 l -1.62,-1.33 v -0.01 h 6.16 v -266.99 c 130.14,1.37 251.34,39.73 353.75,105.03 0.97,4.58 1.94,9.15 2.97,13.95 16.52,77.37 92.78,246.88 100.21,258.42"
         style="fill:#093e8c;fill-opacity:1;fill-rule:nonzero;stroke:none"
         id="path610" /><path
         d="m 926.813,6952.75 v 15.33 H 1228.6 v -15.33 z m 334.017,157.08 h 8.28 -0.01 c -12.91,7.98 -40.78,73.26 -110.25,147.17 -14.69,15.62 -4.82,26.26 -16.25,29.77 -11.43,3.52 -117.3,22.56 -117.3,22.56 5.35,14.12 10.76,26.73 16.19,38.13 -37.04,-17.8 -75.474,-41.11 -118.115,-60.23 -69.781,-31.28 -124.676,-60.92 -119.867,-66.39 v 0 c 4.812,-5.46 83.769,-180.16 100.617,-259.02 1.027,-4.8 2.012,-9.38 3,-13.97 102.405,-65.29 223.585,-103.64 353.705,-105.01 v 266.99"
         style="fill:#093e8c;fill-opacity:1;fill-rule:nonzero;stroke:none"
         id="path616" /><path
         d="M 1228.6,6968.08 H 926.813 v -15.33 H 1228.6 v 15.33"
         style="fill:#eaeaea;fill-opacity:1;fill-rule:nonzero;stroke:none"
         id="path618" /><path
         d="m 1025.3,7309.33 c 0,0 105.87,-19.04 117.3,-22.56 11.43,-3.51 1.56,-14.15 16.25,-29.77 69.47,-73.91 97.34,-139.19 110.25,-147.17 h 0.01 v 0 c -0.01,0.01 -25.85,102.05 -86.93,185.94 -7.95,8.45 -15.39,18.67 -21.74,29.85 -9.92,17.47 -17.09,37.27 -19.41,56.45 -2.06,17.1 -0.29,33.7 7.1,47.62 l 7.09,23.49 0.34,1.14 -0.98,-0.24 -0.03,-0.01 c -28.69,-7.04 -71.42,-19.2 -113.06,-106.61 -5.43,-11.4 -10.84,-24.01 -16.19,-38.13"
         style="fill:#0b2a62;fill-opacity:1;fill-rule:nonzero;stroke:none"
         id="path624" /><path
         d="m 1384.16,7454.32 0.26,-0.86 7.17,-23.77 c 7.33,-13.8 9.13,-30.24 7.14,-47.19 -2.26,-19.28 -9.44,-39.22 -19.41,-56.79 -6.36,-11.22 -13.81,-21.47 -21.78,-29.94 -61.08,-83.89 -88.43,-185.93 -88.43,-185.94 v 0 0.01 l 1.62,1.33 c 13.68,11.87 43.37,74.79 110.14,145.83 14.69,15.62 4.82,26.26 16.25,29.77 11.42,3.52 117.3,22.56 117.3,22.56 -6.28,16.56 -12.64,31.09 -19.01,43.94 -40.69,82.04 -82.09,93.89 -110.13,100.77 l -0.38,0.1 -0.74,0.18"
         style="fill:#0b2a62;fill-opacity:1;fill-rule:nonzero;stroke:none"
         id="path626" /></g></g></svg>
