<?xml version="1.0" encoding="UTF-8" standalone="no"?>
<!-- Created with Inkscape (http://www.inkscape.org/) -->

<svg
   version="1.1"
   id="svg2"
   xml:space="preserve"
   width="142.92139"
   height="157.192"
   viewBox="0 0 142.92139 157.192"
   sodipodi:docname="2756.svg"
   xmlns:inkscape="http://www.inkscape.org/namespaces/inkscape"
   xmlns:sodipodi="http://sodipodi.sourceforge.net/DTD/sodipodi-0.dtd"
   xmlns="http://www.w3.org/2000/svg"
   xmlns:svg="http://www.w3.org/2000/svg"><defs
     id="defs6" /><sodipodi:namedview
     id="namedview4"
     pagecolor="#ffffff"
     bordercolor="#666666"
     borderopacity="1.0"
     inkscape:pageshadow="2"
     inkscape:pageopacity="0.0"
     inkscape:pagecheckerboard="0"
     inkscape:showpageshadow="2"
     inkscape:deskcolor="#d1d1d1"
     showgrid="false" /><g
     id="g8"
     inkscape:groupmode="layer"
     inkscape:label="ink_ext_XXXXXX"
     transform="matrix(1.3333333,0,0,-1.3333333,-1097.0826,1323.9413)"><g
       id="g10"
       transform="scale(0.1)"><path
         d="m 8988.86,9537.16 c -0.49,23.7 3.43,48.56 1.66,70.71 -4.05,1.76 -8.5,3.55 -13.33,5.37 -4.7,-19.95 -10.03,-33.42 -10.64,-36.97 10.12,3.87 19.02,-8.51 16.46,-32.76 -3.03,-28.84 -18.59,-77.42 -42.88,-61.11 -10.63,7.6 -10.25,-99.81 -54.27,-142.32 -1.04,-1 -2.13,-1.94 -3.18,-2.93 0.46,-10.15 1.62,-21.66 4.4,-33.79 3.94,5.28 6.15,10.71 6.25,16.31 0,0 16.58,6.73 41.26,-60.19 80.29,8.79 148.6,19.34 148.6,19.34 0,0 4.72,43.09 -30.63,98.1 -23.65,36.82 -37.71,79.29 -45.88,120.93 l -0.02,-0.09 c -8.21,0 -16.97,0 -17.8,39.4"
         style="fill:#0e0c0f;fill-opacity:1;fill-rule:nonzero;stroke:none"
         id="path280" /><path
         d="m 8641.17,9319.67 c 0.09,-5.6 2.31,-11.03 6.25,-16.32 2.46,10.75 3.65,21.01 4.22,30.28 -2.4,2.16 -4.91,4.21 -7.23,6.45 -44.02,42.51 -43.64,149.92 -54.27,142.32 -24.29,-16.31 -39.85,32.27 -42.89,61.11 -2.45,23.28 5.65,35.65 15.24,33.2 v 0.01 c -0.62,1.14 -4.64,15.68 -8.39,37.19 -5.51,-2.01 -10.5,-4 -15.05,-5.95 -1.78,-22.17 2.14,-47.07 1.65,-70.8 -0.82,-39.4 -7.92,-39.4 -16.13,-39.4 0,0 -0.28,0.59 -0.69,1.52 -8.13,-42.1 -22.27,-85.12 -46.19,-122.36 -35.34,-55.01 -30.63,-98.1 -30.63,-98.1 0,0 70.63,-10.92 152.67,-19.78 24.42,67.54 41.44,60.63 41.44,60.63"
         style="fill:#0e0c0f;fill-opacity:1;fill-rule:nonzero;stroke:none"
         id="path282" /><path
         d="m 8876.17,9331.15 c -10.24,-9 -21.2,-17.22 -32.97,-24.11 -10.03,-5.88 -20.66,-10.76 -31.74,-14.32 -10.06,-3.24 -20.47,-5.36 -30.99,-6.43 -13.07,-1.32 -26.48,-0.92 -39.46,1.14 -10.66,1.69 -21.11,4.54 -31.16,8.48 -11.26,4.43 -21.97,10.21 -32.04,16.92 -9.28,6.19 -17.89,13.32 -26.18,20.8 -0.55,-9.27 -1.74,-19.53 -4.21,-30.28 7.49,-10.04 21.54,-19.54 41.51,-28.43 43.72,-19.48 66.57,-20.19 78.32,-20.44 11.75,0.25 34.59,0.96 78.32,20.44 19.97,8.9 34.02,18.39 41.51,28.44 -2.78,12.13 -3.94,23.64 -4.4,33.8 -2.15,-2.02 -4.29,-4.06 -6.51,-6.01"
         style="fill:#c69a81;fill-opacity:1;fill-rule:nonzero;stroke:none"
         id="path284" /><path
         d="m 8866.31,9131.35 c -0.77,-64.9 2.75,-250.35 1.98,-345.7 6.69,-0.01 13.33,-0.03 19.9,-0.05 0.77,60.6 2.53,135.5 1.51,159.35 h 0.02 c -2.35,15.11 -2.72,25.99 0.24,27.17 10.54,4.22 212.9,2.11 229.77,0 2.13,-0.27 3.72,-2.64 4.88,-6.56 1.75,21.48 4.63,39.41 9.18,49.8 25.01,57.15 28.35,115.95 75.1,109.25 3.6,-0.51 7.19,-1.6 10.77,-3.06 l 0.87,1.2 c 3.54,5.31 -180.62,74.23 -237.68,88.63 -8.69,3.6 -16.93,7.19 -24.63,10.83 l 0.01,-0.17 c -0.07,-13.15 -5.03,-63.97 -91.92,-90.69"
         style="fill:#24353f;fill-opacity:1;fill-rule:nonzero;stroke:none"
         id="path288" /><path
         d="m 8660.11,9133.99 c -79.11,27.29 -83.77,75.32 -83.84,88.05 l 0.08,1.56 c -10.68,-5.17 -22.5,-10.25 -35.14,-15.35 -53.2,-14.66 -228.83,-79.28 -230.21,-86.74 3.62,1.48 7.23,2.58 10.86,3.1 46.75,6.7 50.1,-52.1 75.1,-109.25 11.77,-26.89 12.5,-103.85 10.81,-163.81 44.26,-27.49 91.95,-49.92 142.28,-66.63 33.31,0.22 69.77,0.41 107.68,0.55 1.96,153.56 3.18,291.78 2.38,348.52"
         style="fill:#24353f;fill-opacity:1;fill-rule:nonzero;stroke:none"
         id="path290" /><path
         d="m 8709.85,9295.91 c 10.05,-3.94 20.5,-6.79 31.16,-8.48 12.98,-2.06 26.39,-2.46 39.46,-1.14 10.52,1.06 20.92,3.19 30.99,6.43 11.08,3.56 21.71,8.44 31.74,14.32 11.77,6.89 22.73,15.11 32.97,24.11 2.22,1.95 4.36,3.99 6.51,6 1.05,0.99 2.14,1.93 3.18,2.93 44.02,42.51 43.64,149.92 54.27,142.32 24.29,-16.31 39.85,32.27 42.88,61.11 2.56,24.25 -6.34,36.63 -16.46,32.76 0,0 -3.02,-1.97 -6.93,-4.96 -1.14,-1.04 -2.17,-1.88 -3.09,-2.46 -4.68,-3.84 -9.85,-8.71 -12.84,-13.6 -6.4,-10.46 -4.81,41.34 -13.94,54.76 -3.98,5.85 -7.22,13.58 -11.14,20.79 -42.36,10.05 -95.37,17.75 -153.48,17.75 -60.16,0 -115.66,-8.48 -159.46,-19.23 -1.52,-3.1 -3.1,-6.04 -4.83,-8.58 -16.44,-24.15 -4.57,-68.87 -14.62,-59.93 -3.69,3.3 -7.42,5.46 -10.84,7.21 l -1.51,0.76 c -5.16,2.55 -9.42,4.34 -11.38,7.93 -9.59,2.45 -17.69,-9.92 -15.24,-33.2 3.04,-28.84 18.6,-77.42 42.89,-61.11 10.63,7.6 10.25,-99.81 54.27,-142.32 2.32,-2.24 4.83,-4.29 7.23,-6.45 8.28,-7.48 16.89,-14.61 26.17,-20.8 10.07,-6.71 20.78,-12.49 32.04,-16.92"
         style="fill:#d1a385;fill-opacity:1;fill-rule:nonzero;stroke:none"
         id="path292" /><path
         d="m 8573.87,9568.78 1.51,-0.76 c 3.42,-1.75 7.15,-3.91 10.84,-7.21 10.05,-8.94 -1.82,35.78 14.62,59.93 1.73,2.54 3.31,5.48 4.83,8.58 -19.84,-4.87 -37.26,-10.18 -51.57,-15.41 3.75,-21.51 7.77,-36.05 8.39,-37.19 v -0.01 c 1.96,-3.59 6.22,-5.38 11.38,-7.93"
         style="fill:#3a3a3a;fill-opacity:1;fill-rule:nonzero;stroke:none"
         id="path294" /><path
         d="m 8918.61,9630.8 c 3.92,-7.21 7.16,-14.94 11.14,-20.79 9.13,-13.42 7.54,-65.22 13.94,-54.76 2.99,4.89 8.16,9.76 12.84,13.6 1.08,0.89 2.09,1.7 3.09,2.46 3.91,2.99 6.93,4.96 6.93,4.96 0.61,3.55 5.94,17.02 10.64,36.97 -15.84,5.98 -35.57,12.11 -58.58,17.56"
         style="fill:#3a3a3a;fill-opacity:1;fill-rule:nonzero;stroke:none"
         id="path296" /><path
         d="m 8866.31,9131.35 c -22.96,-7.06 -51.56,-12.46 -87.39,-15.01 l 0.03,-1.27 c -4.02,0.14 -7.84,0.35 -11.7,0.55 -3.86,-0.2 -7.69,-0.41 -11.71,-0.55 l 0.04,1.27 c -40.17,2.86 -71.27,9.29 -95.47,17.65 0.8,-56.74 -0.42,-194.96 -2.38,-348.52 68.77,0.26 142.3,0.35 210.56,0.18 0.77,95.35 -2.75,280.8 -1.98,345.7"
         style="fill:#223035;fill-opacity:1;fill-rule:nonzero;stroke:none"
         id="path298" /><path
         d="m 8660.11,9133.99 c 24.2,-8.36 55.3,-14.79 95.47,-17.65 l -0.04,-1.27 c 4.02,0.14 7.85,0.35 11.71,0.55 3.86,-0.2 7.68,-0.41 11.7,-0.55 l -0.03,1.27 c 35.83,2.55 64.43,7.95 87.39,15.01 86.89,26.72 91.85,77.54 91.92,90.69 l -0.01,0.17 c -0.05,10.37 -9.18,-2.53 -22.77,35.02 l -0.86,2.25 c -24.67,66.92 -41.26,60.19 -41.26,60.19 -0.1,-5.6 -2.31,-11.02 -6.25,-16.31 -7.49,-10.05 -21.54,-19.54 -41.51,-28.44 -43.73,-19.48 -66.57,-20.19 -78.32,-20.44 -11.75,0.25 -34.6,0.96 -78.32,20.44 -19.97,8.89 -34.02,18.39 -41.51,28.43 -3.94,5.29 -6.16,10.72 -6.25,16.32 0,0 -17.02,6.91 -41.44,-60.63 l -0.68,-1.81 c -12.5,-35.08 -21.75,-25.74 -22.7,-33.63 l -0.08,-1.56 c 0.07,-12.73 4.73,-60.76 83.84,-88.05"
         style="fill:#212d33;fill-opacity:1;fill-rule:nonzero;stroke:none"
         id="path300" /><path
         d="m 8923.69,8837.21 c -9.08,3.03 -27.97,69.18 -33.97,107.74 h -0.02 c 1.02,-23.85 -0.74,-98.75 -1.51,-159.35 30.44,-0.1 59.59,-0.25 86.51,-0.46 40.29,13.43 78.88,30.51 115.37,50.95 -55.98,-1.55 -156.06,-2.32 -166.38,1.12"
         style="fill:#1d282d;fill-opacity:1;fill-rule:nonzero;stroke:none"
         id="path302" /><path
         d="m 9124.61,8965.56 c -1.16,3.92 -2.75,6.29 -4.88,6.56 -16.87,2.11 -219.23,4.22 -229.77,0 -2.96,-1.18 -2.59,-12.06 -0.24,-27.17 6,-38.56 24.89,-104.71 33.97,-107.74 10.32,-3.44 110.4,-2.67 166.38,-1.12 10.77,6.03 21.33,12.37 31.71,18.96 0.29,2.67 0.59,5.55 0.91,8.64 -0.73,33.88 -0.55,71.45 1.92,101.87"
         style="fill:#212d33;fill-opacity:1;fill-rule:nonzero;stroke:none"
         id="path304" /><path
         d="m 8868.29,8785.65 c -68.26,0.17 -141.79,0.08 -210.56,-0.18 -37.91,-0.14 -74.37,-0.33 -107.68,-0.55 66.67,-22.14 137.89,-34.3 211.99,-34.3 74.35,0 145.8,12.24 212.66,34.52 -26.92,0.21 -56.07,0.36 -86.51,0.46 -6.57,0.02 -13.21,0.04 -19.9,0.05"
         style="fill:#fcfd59;fill-opacity:1;fill-rule:nonzero;stroke:none"
         id="path306" /><path
         d="m 8560.59,9751.53 c 41.87,40.26 99.37,55.57 142.76,61.22 10.65,31.03 21.87,61.85 29.8,83.33 -41.7,-6.02 -108.27,-25.11 -155.4,-83.56 -28.17,-34.93 -42.12,-67.46 -49.11,-102.24 7.34,13.58 17.66,27.51 31.95,41.25"
         style="fill:#f6df00;fill-opacity:1;fill-rule:nonzero;stroke:none"
         id="path312" /><path
         d="m 8820.9,9813.48 c 43.96,-4.99 104.93,-19.8 148.77,-61.95 13.72,-13.19 23.7,-26.56 30.93,-39.63 -7.11,34.18 -21.05,66.23 -48.78,100.62 -49.19,61.01 -119.58,79.15 -160.74,84.29 7.88,-21.34 19.13,-52.2 29.82,-83.33"
         style="fill:#f6df00;fill-opacity:1;fill-rule:nonzero;stroke:none"
         id="path314" /><path
         d="m 8703.35,9812.75 c 35.65,4.64 61.78,2.76 61.78,2.76 0,0 23.23,1.67 55.77,-2.03 -10.69,31.13 -21.94,61.99 -29.82,83.33 -4.19,11.31 -7.43,19.97 -9.13,24.54 -3.09,8.28 -19.7,8.21 -19.7,8.21 0,0 -16.62,0.07 -19.7,-8.21 -1.74,-4.66 -5.09,-13.6 -9.4,-25.27 -7.93,-21.48 -19.15,-52.3 -29.8,-83.33"
         style="fill:#ead018;fill-opacity:1;fill-rule:nonzero;stroke:none"
         id="path316" /><path
         d="m 8990.52,9607.87 c 1.77,-22.15 -2.15,-47.01 -1.66,-70.71 0.83,-39.4 9.59,-39.4 17.8,-39.4 l 0.02,0.09 c 0.15,0.47 2.68,9.05 1.89,13.04 -0.54,2.68 -0.38,21.06 -0.2,46.58 0.03,4.15 0.06,8.47 0.08,12.97 0.06,9.26 0.1,19.18 0.11,29.43 l -0.36,-0.8 c -4.53,2.72 -10.56,5.7 -17.68,8.8"
         style="fill:#373631;fill-opacity:1;fill-rule:nonzero;stroke:none"
         id="path318" /><path
         d="m 8540.7,9537.16 c 0.49,23.73 -3.43,48.63 -1.65,70.8 -7.3,-3.13 -13.47,-6.15 -18.04,-8.89 0.01,-9.96 0.04,-19.61 0.1,-28.63 0.03,-4.5 0.06,-8.82 0.09,-12.97 0.17,-25.52 0.33,-43.9 -0.2,-46.58 -0.61,-3.06 1.68,-8.86 2.88,-11.61 0.41,-0.93 0.69,-1.52 0.69,-1.52 8.21,0 15.31,0 16.13,39.4"
         style="fill:#373631;fill-opacity:1;fill-rule:nonzero;stroke:none"
         id="path320" /><path
         d="m 9008.56,9599.87 c 0,1.14 0.01,2.27 0.01,3.42 v 0 0 0 0 c 0,3.82 -0.19,7.43 -0.48,10.95 -0.3,36.19 -1.28,67.74 -7.49,97.66 30.63,-55.42 10.89,-105.3 7.96,-112.03"
         style="fill:#e2e2e6;fill-opacity:1;fill-rule:nonzero;stroke:none"
         id="path322" /><path
         d="m 8539.05,9607.96 c 1.03,12.83 4.01,24.73 10.88,34.94 v 0 c 1.19,-10.53 2.65,-20.32 4.17,-28.99 -5.51,-2.01 -10.5,-4 -15.05,-5.95"
         style="fill:#7e7d83;fill-opacity:1;fill-rule:nonzero;stroke:none"
         id="path328" /><path
         d="m 8990.52,9607.87 c -4.05,1.76 -8.5,3.55 -13.33,5.37 1.81,7.68 3.51,16.32 4.82,25.74 v 0 c 5.19,-9.33 7.62,-19.86 8.51,-31.11"
         style="fill:#7e7d83;fill-opacity:1;fill-rule:nonzero;stroke:none"
         id="path332" /><path
         d="m 8605.67,9629.32 c 9.73,19.89 16.02,48.68 29.84,55.7 v 0 c 4.02,0.32 8.1,0.49 12.25,0.57 v 0 c 1.31,-0.44 2.63,-0.9 4.05,-1.66 v 0 c 0.25,-0.13 0.51,-0.26 0.76,-0.4 0.73,-0.38 1.46,-0.76 2.19,-1.13 55.09,-28 131.77,-31.64 184.36,-31.64 9.21,0 17.7,0.12 25.19,0.23 v 0 c 4.43,0.06 8.51,0.13 12.2,0.17 0.99,0.01 1.94,0.02 2.87,0.03 1.35,0.01 2.63,0.02 3.85,0.02 0.11,0 0.22,0 0.33,0 0.03,0 0.07,0 0.1,0 5.56,0 9.74,-0.13 12.26,-0.51 0.18,-0.03 0.36,-0.06 0.52,-0.09 10.83,-2.03 17.09,-10.46 22.17,-19.81 -42.36,10.05 -95.37,17.75 -153.48,17.75 -60.16,0 -115.66,-8.48 -159.46,-19.23"
         style="fill:#d3bfb6;fill-opacity:1;fill-rule:nonzero;stroke:none"
         id="path336" /><path
         d="m 8554.1,9613.91 c -1.52,8.67 -2.98,18.46 -4.17,28.99 0.97,1.44 1.95,2.88 3.08,4.25 19.28,23.4 48.44,35.14 82.5,37.87 -13.82,-7.02 -20.11,-35.81 -29.84,-55.7 v 0 c -19.84,-4.87 -37.26,-10.18 -51.57,-15.41 v 0"
         style="fill:#919195;fill-opacity:1;fill-rule:nonzero;stroke:none"
         id="path340" /><path
         d="m 8977.19,9613.24 v 0 c -15.84,5.98 -35.57,12.11 -58.58,17.56 v 0 c -5.08,9.35 -11.34,17.78 -22.17,19.81 -2.43,0.45 -6.81,0.6 -12.78,0.6 -0.03,0 -0.07,0 -0.1,0 v 0 c -0.11,0 -0.22,0 -0.33,0 -1.22,0 -2.5,-0.01 -3.85,-0.02 -0.93,-0.01 -1.88,-0.02 -2.87,-0.03 -3.69,-0.04 -7.77,-0.11 -12.2,-0.17 v 0 c -7.49,-0.11 -15.95,-0.22 -25.15,-0.22 -52.6,0 -129.3,3.63 -184.4,31.63 -0.73,0.37 -1.46,0.75 -2.19,1.13 -0.25,0.14 -0.51,0.27 -0.76,0.4 -1.42,0.76 -2.74,1.22 -4.05,1.66 v 0 c 1.12,0.02 2.23,0.05 3.34,0.09 1.04,0.03 2.08,0.05 3.14,0.06 0.07,0 0.14,0 0.21,0 0.03,0 0.07,0 0.1,0 0.13,0 0.26,0 0.39,0 0.22,-0.01 0.45,-0.01 0.68,-0.01 0.24,-0.01 0.49,-0.01 0.74,-0.02 13.59,-0.25 29.5,-0.34 44.89,-0.34 0.04,0 0.07,0 0.11,0 v 0 0 c 0.05,0 0.1,0 0.15,0 32.88,0 63.27,0.4 63.27,0.4 v 0 c 0,0 30.39,-0.4 63.27,-0.4 0.05,0 0.1,0 0.16,0 v 0 0 c 0.03,0 0.07,0 0.11,0 15.38,0 31.29,0.09 44.88,0.34 0.25,0.01 0.5,0.01 0.75,0.02 v 0 c 1.41,0.02 2.81,0.04 4.2,0.04 h 0.01 c 0.08,0 0.16,0 0.24,0 39.67,-0.05 74.04,-11.06 96.3,-36.44 0.01,-0.02 0.02,-0.03 0.03,-0.04 0.62,-0.71 1.23,-1.42 1.82,-2.14 v 0 c 2.14,-2.59 3.88,-5.35 5.46,-8.17 -1.31,-9.42 -3.01,-18.06 -4.82,-25.74 v 0"
         style="fill:#919195;fill-opacity:1;fill-rule:nonzero;stroke:none"
         id="path344" /><path
         d="m 8521.47,9614.24 c 0.3,35.53 1.25,66.6 7.17,96.04 7.34,13.58 17.66,27.51 31.95,41.25 41.87,40.26 99.37,55.57 142.76,61.22 -14.83,-43.22 -28.49,-86.73 -30.47,-105.71 -39.03,-1.99 -79.19,-6.16 -95.24,-14.75 -32.44,-17.35 -53.04,-38.13 -56.17,-78.05"
         style="fill:#e3d97c;fill-opacity:1;fill-rule:nonzero;stroke:none"
         id="path348" /><path
         d="m 9008.09,9614.24 c -3.12,39.92 -23.72,60.7 -56.16,78.05 -16.75,8.96 -59.76,13.11 -100.33,15 -2.09,19.24 -15.85,62.94 -30.7,106.19 43.96,-4.99 104.93,-19.8 148.77,-61.95 13.72,-13.19 23.7,-26.56 30.93,-39.63 6.21,-29.92 7.19,-61.47 7.49,-97.66"
         style="fill:#e3d97c;fill-opacity:1;fill-rule:nonzero;stroke:none"
         id="path352" /><path
         d="m 8672.88,9707.04 c 1.98,18.98 15.64,62.49 30.47,105.71 19.68,2.56 36.47,3.13 47.55,3.13 8.99,0 14.23,-0.37 14.23,-0.37 0,0 5.25,0.38 14.25,0.38 9.94,0 24.45,-0.47 41.52,-2.41 14.85,-43.25 28.61,-86.95 30.7,-106.19 v 0 c -1.26,0.06 -2.52,0.12 -3.77,0.17 -0.14,0.01 -0.28,0.01 -0.42,0.02 -0.85,0.04 -1.69,0.07 -2.53,0.11 -1.2,0.05 -2.4,0.09 -3.59,0.14 -1.48,0.05 -2.97,0.11 -4.44,0.16 -16.97,0.59 -32.84,0.82 -45.34,0.89 -3.55,0.03 -6.83,0.03 -9.78,0.03 v 0 0 c -0.02,0 -0.04,0 -0.06,0 -10.48,0 -16.89,-0.1 -16.89,-0.1 v 0 c 0,0 -6.39,0.1 -16.86,0.1 -0.02,0 -0.04,0 -0.06,0 v 0 0 c -0.81,0 -1.65,0 -2.52,0 -14.53,-0.02 -35.72,-0.25 -58.38,-1.14 -1.72,-0.06 -3.45,-0.13 -5.19,-0.21 -0.01,0 -0.03,0 -0.04,0 -1.71,-0.08 -3.43,-0.15 -5.15,-0.24 -1.23,-0.06 -2.46,-0.12 -3.7,-0.18 v 0"
         style="fill:#ded386;fill-opacity:1;fill-rule:nonzero;stroke:none"
         id="path356" /><path
         d="m 9008.2,9599.07 c -4.53,2.72 -10.56,5.7 -17.68,8.8 -0.89,11.25 -3.32,21.78 -8.51,31.11 v 0 c -1.58,2.82 -3.32,5.58 -5.46,8.17 v 0 c -0.59,0.72 -1.2,1.43 -1.82,2.14 -0.01,0.01 -0.02,0.02 -0.03,0.04 -22.26,25.38 -56.62,36.39 -96.3,36.44 -0.08,0 -0.16,0 -0.24,0 v 0 h -0.01 c -1.39,0 -2.79,-0.02 -4.2,-0.04 v 0 c -0.25,-0.01 -0.5,-0.01 -0.75,-0.02 -13.59,-0.25 -29.5,-0.34 -44.88,-0.34 -0.04,0 -0.08,0 -0.11,0 -32.94,0 -63.43,0.4 -63.43,0.4 v 0 c 0,0 -30.39,-0.4 -63.27,-0.4 -0.05,0 -0.1,0 -0.15,0 -15.42,0 -31.38,0.09 -45,0.34 -0.25,0.01 -0.5,0.01 -0.74,0.02 -0.23,0 -0.46,0 -0.68,0.01 -0.13,0 -0.26,0 -0.39,0 -0.03,0 -0.07,0 -0.1,0 v 0 c -0.07,0 -0.14,0 -0.21,0 -1.06,-0.01 -2.1,-0.03 -3.14,-0.06 -1.11,-0.04 -2.22,-0.07 -3.34,-0.09 v 0 0 c -4.15,-0.08 -8.23,-0.25 -12.25,-0.57 v 0 c -34.06,-2.73 -63.22,-14.47 -82.5,-37.87 -1.13,-1.37 -2.11,-2.81 -3.08,-4.25 v 0 c -6.87,-10.21 -9.85,-22.11 -10.88,-34.94 v 0 c -7.3,-3.13 -13.47,-6.15 -18.04,-8.89 v 0 0 c 0,1.41 -0.01,2.8 -0.01,4.22 0,3.82 0.19,7.43 0.47,10.95 3.13,39.92 23.73,60.7 56.17,78.05 16.05,8.59 56.21,12.76 95.24,14.75 29.13,1.49 57.63,1.77 74.98,1.77 10.51,0 16.92,-0.1 16.92,-0.1 0,0 6.43,0.1 16.95,0.1 16.34,0 42.55,-0.25 69.87,-1.52 40.57,-1.89 83.58,-6.04 100.33,-15 32.44,-17.35 53.04,-38.13 56.16,-78.05 0.29,-3.52 0.48,-7.13 0.48,-10.95 0,-1.15 -0.01,-2.28 -0.01,-3.42 l -0.36,-0.8"
         style="fill:#908f91;fill-opacity:1;fill-rule:nonzero;stroke:none"
         id="path360" /><path
         d="m 8396.96,9015.36 c -25,57.15 -28.35,115.95 -75.1,109.25 -3.63,-0.52 -7.24,-1.62 -10.86,-3.1 -26.61,-10.86 -53.02,-47.4 -82.88,-107.08 49.47,-64.53 110.34,-119.83 179.65,-162.88 1.69,59.96 0.96,136.92 -10.81,163.81"
         style="fill:#223035;fill-opacity:1;fill-rule:nonzero;stroke:none"
         id="path362"
         inkscape:export-filename="womanengineer.svg"
         inkscape:export-xdpi="98.400002"
         inkscape:export-ydpi="98.400002" /><path
         d="m 9219.66,9121.55 c -3.58,1.46 -7.17,2.55 -10.77,3.06 -46.75,6.7 -50.09,-52.1 -75.1,-109.25 -4.55,-10.39 -7.43,-28.32 -9.18,-49.8 -2.47,-30.42 -2.65,-67.99 -1.92,-101.87 0.06,-2.67 0.11,-5.32 0.18,-7.94 68.44,43.62 128.54,99.14 177.16,163.86 -28.83,56.7 -54.51,91.45 -80.37,101.94"
         style="fill:#223035;fill-opacity:1;fill-rule:nonzero;stroke:none"
         id="path364" /></g></g></svg>
