<?xml version="1.0" encoding="UTF-8" standalone="no"?>
<!-- Created with Inkscape (http://www.inkscape.org/) -->

<svg
   version="1.1"
   id="svg2"
   xml:space="preserve"
   width="140.44006"
   height="158.98251"
   viewBox="0 0 140.44007 158.98251"
   xmlns="http://www.w3.org/2000/svg"
   xmlns:svg="http://www.w3.org/2000/svg"><defs
     id="defs6" /><g
     id="g8"
     transform="matrix(1.3333333,0,0,-1.3333333,-1495.3999,1071.3371)"><g
       id="g10"
       transform="scale(0.1)"><path
         d="m 11746,7252.19 c 109.3,1.13 157,50.73 176.1,93.82 -37.6,21.84 -55.6,50.87 -64.2,78.2 -1.1,-0.98 -2.1,-2.01 -3.2,-2.97 -10.2,-9 -21.2,-17.22 -33,-24.12 -10,-5.87 -20.6,-10.76 -31.7,-14.32 -10.1,-3.23 -20.5,-5.36 -31,-6.43 -13.1,-1.32 -26.5,-0.92 -39.5,1.14 -10.6,1.7 -21.1,4.54 -31.1,8.49 -11.3,4.42 -22,10.2 -32.1,16.92 -11.9,7.98 -23,17.26 -33.4,27.25 l -0.8,0.89 c -6.6,-26.57 -21,-56.7 -52.2,-84.64 19,-43.18 66.4,-93.09 176.1,-94.23"
         style="fill:#c69a81;fill-opacity:1;fill-rule:nonzero;stroke:none"
         id="path141" /><path
         d="m 11464,6959.32 c -13.9,132.24 -30.9,314.18 -34.5,357.05 -59.8,-18.33 -117,-38.36 -117,-44.39 v -0.01 c 36.5,2.73 46.9,-50.88 74.9,-100.89 15.3,-27.35 19.8,-138.69 18,-242.12 13.8,-7.78 27.8,-15.13 42.2,-21.94 1,18.6 2.7,31.89 5.3,37.91 1.7,3.94 3.1,11.24 11.1,14.39"
         style="fill:#f9f9f9;fill-opacity:1;fill-rule:nonzero;stroke:none"
         id="path127" /><path
         d="m 12101.9,7171.08 c 27.8,49.63 38.2,102.74 74.1,100.88 v 0.13 c 0,6.03 -56.5,26.09 -115.7,44.4 -3.5,-42.67 -20.6,-224.92 -34.4,-357.28 7.7,-3.23 9,-10.4 10.7,-14.28 2.1,-4.9 3.5,-14.79 4.5,-28.46 14.5,7.44 28.8,15.21 42.6,23.64 -1.3,100.16 3.4,204.6 18.2,230.97"
         style="fill:#f9f9f9;fill-opacity:1;fill-rule:nonzero;stroke:none"
         id="path135" /><path
         d="m 11554.2,6960.88 h 381.5 c 15.5,147.13 40.3,361.98 52.4,376.69 -10,2.72 -19.3,5.11 -27.4,7.08 -17.4,-45.08 -70.2,-127.97 -210.9,-130.69 v -0.26 c -1.3,0 -2.5,0.11 -3.8,0.13 -1.4,-0.02 -2.6,-0.13 -3.9,-0.13 v 0.26 c -140.7,2.72 -196,85.09 -213.4,130.18 -8,-1.95 -17,-4.26 -26.7,-6.86 12.2,-17.29 36.8,-230.27 52.2,-376.4"
         style="fill:#f9f9f9;fill-opacity:1;fill-rule:nonzero;stroke:none"
         id="path131" /><path
         d="m 11742.1,7213.96 v -0.26 c 1.3,0 2.5,0.11 3.9,0.13 1.3,-0.02 2.5,-0.13 3.8,-0.13 v 0.26 c 140.7,2.72 193.5,85.61 210.9,130.69 v 0.01 l -0.3,0.07 -22.6,4.87 -13,2.79 c -0.8,-2.1 -1.8,-4.24 -2.7,-6.38 -19.1,-43.09 -66.8,-92.69 -176.1,-93.82 -109.7,1.14 -157.1,51.05 -176.1,94.23 -0.9,2 -1.8,4.01 -2.5,5.97 l -12.6,-2.69 -25.7,-5.47 -0.4,-0.08 v -0.01 c 17.4,-45.09 72.7,-127.46 213.4,-130.18"
         style="fill:#edefef;fill-opacity:1;fill-rule:nonzero;stroke:none"
         id="path139" /><path
         d="m 11387.4,7171.08 c -28,50.01 -38.4,103.62 -74.9,100.89 -2.7,-0.2 -5.5,-0.65 -8.5,-1.49 -31.1,-8.73 -65.7,-94.43 -88.5,-182.57 52.7,-64.02 117.2,-117.99 189.9,-158.95 1.8,103.43 -2.7,214.77 -18,242.12"
         style="fill:#edefef;fill-opacity:1;fill-rule:nonzero;stroke:none"
         id="path125" /><path
         d="m 12185.3,7270.48 c -3.3,0.93 -6.4,1.33 -9.3,1.48 -35.9,1.86 -46.3,-51.25 -74.1,-100.88 -14.8,-26.37 -19.5,-130.81 -18.2,-230.97 71.6,43.53 134.3,100.12 185.1,166.35 -22.7,81.27 -54.7,155.9 -83.5,164.02"
         style="fill:#edefef;fill-opacity:1;fill-rule:nonzero;stroke:none"
         id="path137" /><path
         d="m 11473,6960.88 h 81.2 c -15.4,146.13 -40,359.11 -52.2,376.4 l -1.4,1.16 c -11.6,0.9 -72.1,-9.75 -71.1,-21.21 v -0.86 c 3.6,-42.87 20.6,-224.81 34.5,-357.05 2.4,0.94 5.2,1.56 9,1.56"
         style="fill:#2e5566;fill-opacity:1;fill-rule:nonzero;stroke:none"
         id="path129" /><path
         d="m 11935.7,6960.88 h 80.8 c 3.9,0 6.9,-0.65 9.4,-1.67 13.8,132.36 30.9,314.61 34.4,357.28 l 0.1,0.74 c 0.9,11.46 -59.6,22.11 -71.1,21.21 l -1.2,-0.87 c -12.1,-14.71 -36.9,-229.56 -52.4,-376.69"
         style="fill:#2e5566;fill-opacity:1;fill-rule:nonzero;stroke:none"
         id="path133" /><path
         d="m 11561.3,7585.78 c 1.2,62.23 -6.2,66.29 -26.5,80.5 -6.5,-3.14 -10.9,-14.64 -9,-32.65 2.7,-26.16 15.8,-68.36 36.3,-63.89 -0.7,5.92 -0.9,11.96 -0.8,16.04"
         style="fill:#d1a385;fill-opacity:1;fill-rule:nonzero;stroke:none"
         id="path147" /><path
         d="m 11926,7585.78 c 0.1,-4.08 0,-10.12 -0.8,-16.04 20.5,-4.47 33.6,37.73 36.4,63.89 1.9,18.01 -2.6,29.51 -9.1,32.65 -20.3,-14.21 -27.7,-18.27 -26.5,-80.5"
         style="fill:#d1a385;fill-opacity:1;fill-rule:nonzero;stroke:none"
         id="path151" /><path
         d="m 11656.3,7402.92 c 10.1,-6.72 20.8,-12.5 32.1,-16.92 10,-3.95 20.5,-6.79 31.1,-8.49 13,-2.06 26.4,-2.46 39.5,-1.14 10.5,1.07 20.9,3.2 31,6.43 11.1,3.56 21.7,8.45 31.7,14.32 11.8,6.9 22.8,15.12 33,24.12 1.1,0.96 2.1,1.99 3.2,2.97 2.2,1.97 4.4,3.93 6.5,5.96 31,29.94 40,92.01 46.3,123.5 h -9 c -5.9,-1.2 -4.8,-8.76 -4.7,20.38 0.2,37.42 -0.2,70.92 -4.7,106.1 -46,-10.98 -99.8,-19.18 -148.6,-19.18 -48,0 -102.1,8.35 -148.7,19.48 -4.5,-35.29 -4.9,-68.88 -4.7,-106.4 0.2,-29.14 1.2,-21.58 -4.7,-20.38 h -9 c 6.3,-31.19 15.2,-92.36 45.5,-122.61 l 0.8,-0.89 c 10.4,-9.99 21.5,-19.27 33.4,-27.25"
         style="fill:#d1a385;fill-opacity:1;fill-rule:nonzero;stroke:none"
         id="path143" /><path
         d="m 11590.3,7574.05 c -0.2,37.52 0.2,71.11 4.7,106.4 -37.9,9.08 -70.7,20.01 -91,29.79 l -0.1,-2.29 c 0,-17.68 11.2,-32.69 27,-38.33 0.8,-0.86 1.6,-1.72 2.6,-2.42 l 1.3,-0.92 c 20.3,-14.21 27.7,-18.27 26.5,-80.5 -0.1,-4.08 0.1,-10.12 0.8,-16.04 0.8,-6.33 2.2,-12.53 4.7,-16.08 l 9.8,0.01 h 9 c 5.9,-1.2 4.9,-8.76 4.7,20.38"
         style="fill:#393a3f;fill-opacity:1;fill-rule:nonzero;stroke:none"
         id="path145" /><path
         d="m 11892.3,7680.15 c 4.5,-35.18 4.9,-68.68 4.7,-106.1 -0.1,-29.14 -1.2,-21.58 4.7,-20.38 h 9 l 9.8,-0.01 c 2.5,3.55 3.9,9.75 4.7,16.08 0.8,5.92 0.9,11.96 0.8,16.04 -1.2,62.23 6.2,66.29 26.5,80.5 l 1.3,0.92 c 1,0.7 1.8,1.56 2.6,2.42 15.8,5.64 27.1,20.65 27.1,38.33 l -0.2,2.11 c -20.2,-9.84 -52.9,-20.82 -91,-29.91"
         style="fill:#393a3f;fill-opacity:1;fill-rule:nonzero;stroke:none"
         id="path149" /><path
         d="m 12025.9,6959.21 c -2.5,1.02 -5.5,1.67 -9.4,1.67 h -80.8 -381.5 -81.2 c -3.8,0 -6.6,-0.62 -9,-1.56 -8,-3.15 -9.4,-10.45 -11.1,-14.39 -2.6,-6.02 -4.3,-19.31 -5.3,-37.91 87.1,-41.22 184.5,-64.36 287.3,-64.36 110.3,0 214.3,26.73 306.2,73.81 -1,13.67 -2.4,23.56 -4.5,28.46 -1.7,3.88 -3,11.05 -10.7,14.28"
         style="fill:#3e5e6d;fill-opacity:1;fill-rule:nonzero;stroke:none"
         id="path123" /><path
         d="m 11777.5,7701.99 c 34.5,2.42 86.9,6.81 115.1,12.82 56.8,12.07 85,20.71 98.9,22.66 2,0.82 3.1,1.3 3.1,1.3 0,68.38 -15.6,191.3 -117.8,248.33 -6.8,-11.38 -93.4,-158.91 -99.3,-285.11"
         style="fill:#fcc232;fill-opacity:1;fill-rule:nonzero;stroke:none"
         id="path157" /><path
         d="m 11594.7,7714.81 c 28.3,-6.01 80.6,-10.41 115.2,-12.82 -6,126.2 -92.6,273.73 -99.4,285.11 -102.2,-57.03 -117.7,-179.95 -117.7,-248.33 0,0 1,-0.48 3,-1.3 13.9,-1.95 42.2,-10.59 98.9,-22.66"
         style="fill:#fcc232;fill-opacity:1;fill-rule:nonzero;stroke:none"
         id="path153" /><path
         d="m 11595,7680.45 c 46.6,-11.13 100.7,-19.48 148.7,-19.48 48.8,0 102.6,8.2 148.6,19.18 38.1,9.09 70.8,20.07 91,29.91 13.5,6.6 21.4,12.69 21.4,17.33 0,8.89 -1.9,11.65 -13.2,10.08 -13.9,-1.95 -42.1,-10.59 -98.9,-22.66 -28.2,-6.01 -80.6,-10.4 -115.1,-12.82 5.9,126.2 92.5,273.73 99.3,285.11 l 0.5,0.79 c -29.6,29.84 -87.6,47.59 -138,47.13 -47.8,-0.43 -102.2,-19.67 -129.2,-47.13 l 0.4,-0.79 c 6.8,-11.38 93.4,-158.91 99.4,-285.11 -34.6,2.41 -86.9,6.81 -115.2,12.82 -56.7,12.07 -85,20.71 -98.9,22.66 -11.2,1.57 -13.2,-1.19 -13.2,-10.08 0,-4.6 7.9,-10.62 21.4,-17.15 20.3,-9.78 53.1,-20.71 91,-29.79"
         style="fill:#f9b234;fill-opacity:1;fill-rule:nonzero;stroke:none"
         id="path155" /></g></g></svg>
